<svg width="200" height="200" viewBox="0 0 200 200" fill="none" xmlns="http://www.w3.org/2000/svg">
<circle cx="100" cy="100" r="100" fill="#D9D9D9"/>
<path d="M150.211 44H50L58.8415 144.211L100.105 156L141.369 144.211L150.211 44Z" fill="#0277BD"/>
<path d="M100.105 52.8416V146.864L133.116 137.432L140.485 52.8416H100.105Z" fill="#039BE5"/>
<path d="M126.926 67.5796H100.105V79.3687H114.547L113.664 91.1578H100.105V102.947H113.074L112.189 116.211L100.105 120.338V132.717L123.39 125.053L125.453 91.1578L126.926 67.5796Z" fill="white"/>
<path d="M100.106 67.5796V79.3687H73.8747L72.99 67.5796H100.106ZM86.5485 91.1578L87.1369 102.947H100.106V91.1578H86.5485ZM87.7267 108.842H75.9376L76.8223 125.053L100.106 132.717V120.338L88.0216 116.211L87.7267 108.842Z" fill="#EEEEEE"/>
</svg>
