<svg width="200" height="200" viewBox="0 0 200 200" fill="none" xmlns="http://www.w3.org/2000/svg">
<circle cx="100" cy="100" r="100" fill="#D9D9D9"/>
<path d="M150.21 44H50L58.8425 144.21L100.105 156L141.368 144.21L150.21 44Z" fill="#E65100"/>
<path d="M100.105 52.8425V146.863L133.115 137.431L140.484 52.8425H100.105Z" fill="#FF6D00"/>
<path d="M100.105 102.948V91.158H125.452L123.389 125.052L100.105 132.715V120.336L112.189 116.211L113.073 102.948H100.105ZM126.336 79.3682L127.221 67.5785H100.105V79.3682H126.336Z" fill="white"/>
<path d="M100.105 120.336V132.715L76.8213 125.052L75.6418 108.842H87.4315L88.0207 116.211L100.105 120.336ZM85.6628 79.3682H100.105V67.5785H73.2838L75.3472 102.948H100.105V91.158H86.5477L85.6628 79.3682Z" fill="#EEEEEE"/>
</svg>
