<svg width="1364" height="737" viewBox="0 0 1364 737" fill="none" xmlns="http://www.w3.org/2000/svg">
<line x1="13" y1="735.5" x2="1364" y2="735.5" stroke="#CACACA" stroke-width="3"/>
<rect x="521" y="565" width="500" height="130" rx="65" fill="white"/>
<path d="M1085.68 713.798L1069.81 708.082L1084.3 644.138L1107.73 652.575L1085.68 713.798Z" fill="#FFB6B6"/>
<path d="M1087.53 708.618L1071.04 702.673L1060.33 698.82C1057.71 697.878 1054.94 697.459 1052.16 697.59C1049.38 697.72 1046.66 698.396 1044.14 699.579C1041.63 700.763 1039.37 702.43 1037.5 704.486C1035.62 706.542 1034.18 708.947 1033.23 711.563L1033 712.21L1084.19 730.636L1091.59 710.077L1087.53 708.618Z" fill="#2F2E41"/>
<path d="M1338.4 691.198L1323.85 699.73L1284.01 647.654L1305.49 635.062L1338.4 691.198Z" fill="#FFB6B6"/>
<path d="M1339.33 684.275L1335.62 686.449L1320.48 695.325L1310.67 701.077C1308.27 702.482 1306.17 704.345 1304.49 706.562C1302.81 708.778 1301.59 711.304 1300.89 713.994C1300.18 716.685 1300.02 719.487 1300.4 722.241C1300.78 724.995 1301.71 727.646 1303.11 730.044L1303.46 730.636L1350.38 703.127L1339.33 684.275Z" fill="#2F2E41"/>
<path d="M1182.54 172.025C1201.19 172.025 1216.3 156.909 1216.3 138.262C1216.3 119.615 1201.19 104.499 1182.54 104.499C1163.89 104.499 1148.78 119.615 1148.78 138.262C1148.78 156.909 1163.89 172.025 1182.54 172.025Z" fill="#FFB6B6"/>
<path d="M1195.6 184.161L1188.52 186.139L1163.7 203.879L1136.84 235.514C1136.84 235.514 1127.19 253.602 1130.81 274.1C1134.43 294.599 1142.36 337.3 1142.36 337.3C1142.36 337.3 1208.08 336.85 1210.49 333.232C1212.9 329.615 1213.68 313.184 1213.68 313.184L1223.33 205.866C1223.33 205.866 1212.48 187.779 1206.45 187.779C1202.56 187.648 1198.79 186.391 1195.6 184.161Z" fill="#00BFA6"/>
<path d="M1211.87 331.856C1211.87 331.856 1199.21 332.477 1190.77 334.888C1182.33 337.3 1139.94 334.888 1139.94 334.888L1117.22 425.324L1072.88 680.009L1107.28 686.89L1167.83 502.492L1198.1 560.289L1293.06 664.872L1319.2 648.359L1240.76 524.51L1223.33 430.148C1223.33 430.148 1239.01 377.092 1217.3 344.535L1211.87 331.856Z" fill="#2F2E41"/>
<path opacity="0.2" d="M1187.9 246L1175.84 335.23L1163.2 335.89L1187.9 246Z" fill="black"/>
<path d="M1138.93 345.617C1142.73 345.617 1145.81 341.921 1145.81 337.361C1145.81 332.801 1142.73 329.104 1138.93 329.104C1135.13 329.104 1132.05 332.801 1132.05 337.361C1132.05 341.921 1135.13 345.617 1138.93 345.617Z" fill="#2F2E41"/>
<path d="M1173.3 451.271C1174.74 449.844 1175.84 448.12 1176.54 446.221C1177.23 444.321 1177.5 442.292 1177.33 440.276C1177.16 438.261 1176.54 436.308 1175.53 434.555C1174.52 432.802 1173.14 431.291 1171.49 430.13L1184.95 382.835L1160.58 390.524L1151.53 434.257C1149.76 437.169 1149.13 440.628 1149.74 443.978C1150.35 447.328 1152.18 450.337 1154.86 452.434C1157.54 454.532 1160.9 455.571 1164.3 455.357C1167.7 455.143 1170.9 453.689 1173.3 451.271Z" fill="#FFB6B6"/>
<path d="M1200.39 190.717C1200.39 190.717 1216.63 183.688 1226.49 201.385C1236.35 219.082 1222.12 280.591 1220.12 290.573C1218.13 300.556 1174.71 426.807 1174.71 426.807L1151.32 418.55L1200.39 190.717Z" fill="#00BFA6"/>
<path d="M1224.33 83C1225.76 85.1566 1226.56 87.6711 1226.64 90.2593C1226.72 92.8476 1226.07 95.4066 1224.78 97.6471C1223.36 95.1168 1221.08 93.1761 1218.36 92.1744C1215.64 91.1726 1212.64 91.1755 1209.92 92.1827C1207.2 93.1898 1204.93 95.1349 1203.52 97.668C1202.1 100.201 1201.64 103.156 1202.21 106C1185.81 98.8268 1177.8 95.0899 1160.75 100.532C1156.87 101.653 1153.21 103.401 1149.9 105.708C1146.36 108.397 1143.6 111.983 1141.91 116.095C1140.21 120.206 1139.65 124.695 1140.27 129.098C1150.64 128.3 1149.99 130.254 1160.36 129.455L1159.88 128.352C1164.04 135.951 1165.9 144.588 1165.26 153.223C1164.61 161.857 1161.49 170.122 1156.26 177.021C1154.73 178.714 1153.43 180.594 1152.38 182.616C1151.86 183.635 1151.63 184.772 1151.69 185.911C1151.76 187.051 1152.12 188.153 1152.75 189.106C1153.76 190.227 1155.08 191.03 1156.54 191.419C1159.72 192.493 1163.09 192.91 1166.45 192.645C1169.8 192.38 1173.06 191.439 1176.04 189.878C1179.02 188.316 1181.65 186.168 1183.77 183.562C1185.9 180.956 1187.47 177.946 1188.4 174.715C1188.16 180.094 1188.43 186.518 1192.99 189.385C1195.61 191.032 1198.92 190.949 1202.01 190.812C1210.14 190.45 1218.27 190.089 1226.4 189.727C1223.33 187.948 1222.15 183.98 1222.52 180.456C1222.88 176.931 1224.47 173.672 1225.77 170.375C1232.98 152.064 1227.51 132.674 1217.37 115.809C1225.11 116.15 1236.2 107.534 1237.03 99.8351C1237.32 95.9644 1236.19 92.1212 1233.85 89.0231C1231.51 85.925 1228.13 83.784 1224.33 83Z" fill="#D3AC6B"/>
<path d="M435 695C470.899 695 500 665.899 500 630C500 594.101 470.899 565 435 565C399.102 565 370 594.101 370 630C370 665.899 399.102 695 435 695Z" fill="white"/>
<path d="M389.204 651H387.554V618.495L384.639 628.56H382.934L387.554 612.5H389.204V651ZM419 625.59C419 621.887 418.01 618.953 416.03 616.79C414.05 614.627 411.428 613.545 408.165 613.545C405.745 613.545 403.637 614.187 401.84 615.47C400.08 616.753 399.2 618.935 399.2 622.015C399.2 623.592 399.53 625.003 400.19 626.25C400.85 627.46 401.657 628.395 402.61 629.055C403.6 629.678 404.553 630.155 405.47 630.485C406.387 630.778 407.193 630.925 407.89 630.925C408.953 630.925 410.017 630.76 411.08 630.43C412.18 630.1 412.987 629.788 413.5 629.495C414.05 629.202 414.398 628.982 414.545 628.835L415.535 630.21C415.278 630.393 414.93 630.613 414.49 630.87C414.087 631.127 413.225 631.475 411.905 631.915C410.585 632.355 409.265 632.575 407.945 632.575C405.525 632.575 403.178 631.658 400.905 629.825C398.668 627.955 397.55 625.333 397.55 621.96C397.55 618.513 398.558 615.983 400.575 614.37C402.628 612.757 405.177 611.95 408.22 611.95C411.923 611.95 414.912 613.197 417.185 615.69C419.495 618.183 420.65 621.502 420.65 625.645C420.65 627.992 420.21 630.522 419.33 633.235C418.487 635.912 417.277 638.552 415.7 641.155C414.123 643.722 411.997 645.977 409.32 647.92C406.643 649.863 403.673 651.092 400.41 651.605L399.97 650.01C402.427 649.643 404.718 648.837 406.845 647.59C408.972 646.307 410.75 644.803 412.18 643.08C413.647 641.32 414.893 639.413 415.92 637.36C416.983 635.27 417.753 633.235 418.23 631.255C418.743 629.238 419 627.35 419 625.59ZM427.324 652.98L425.839 652.375L442.724 610.52L444.209 611.125L427.324 652.98ZM471.606 651H449.826V647.15C449.826 645.463 450.321 643.795 451.311 642.145C452.338 640.495 453.603 639.047 455.106 637.8C456.609 636.553 458.241 635.252 460.001 633.895C461.761 632.502 463.393 631.237 464.896 630.1C466.399 628.927 467.646 627.625 468.636 626.195C469.663 624.765 470.176 623.372 470.176 622.015C470.176 620.182 469.919 618.678 469.406 617.505C468.893 616.332 468.123 615.488 467.096 614.975C466.106 614.425 465.098 614.058 464.071 613.875C463.081 613.692 461.853 613.6 460.386 613.6C458.259 613.6 456.463 614.095 454.996 615.085C453.566 616.075 452.466 617.798 451.696 620.255L457.636 624.71H454.941L449.826 620.86C450.596 617.853 451.843 615.617 453.566 614.15C455.289 612.683 457.563 611.95 460.386 611.95C464.419 611.95 467.334 612.738 469.131 614.315C470.928 615.892 471.826 618.458 471.826 622.015C471.826 623.628 471.313 625.223 470.286 626.8C469.296 628.377 468.049 629.77 466.546 630.98C465.043 632.19 463.411 633.473 461.651 634.83C459.891 636.15 458.259 637.397 456.756 638.57C455.253 639.743 453.988 641.082 452.961 642.585C451.971 644.088 451.476 645.61 451.476 647.15V649.35H471.606V651ZM484.165 651H482.515V618.495L479.6 628.56H477.895L482.515 612.5H484.165V651Z" fill="black"/>
<path d="M586 509C621.899 509 651 479.899 651 444C651 408.101 621.899 379 586 379C550.102 379 521 408.101 521 444C521 479.899 550.102 509 586 509Z" fill="white"/>
<path d="M589.628 463H567.848V459.15C567.848 457.463 568.343 455.795 569.333 454.145C570.359 452.495 571.624 451.047 573.128 449.8C574.631 448.553 576.263 447.252 578.023 445.895C579.783 444.502 581.414 443.237 582.918 442.1C584.421 440.927 585.668 439.625 586.658 438.195C587.684 436.765 588.198 435.372 588.198 434.015C588.198 432.182 587.941 430.678 587.428 429.505C586.914 428.332 586.144 427.488 585.118 426.975C584.128 426.425 583.119 426.058 582.093 425.875C581.103 425.692 579.874 425.6 578.408 425.6C576.281 425.6 574.484 426.095 573.018 427.085C571.588 428.075 570.488 429.798 569.718 432.255L575.658 436.71H572.963L567.848 432.86C568.618 429.853 569.864 427.617 571.588 426.15C573.311 424.683 575.584 423.95 578.408 423.95C582.441 423.95 585.356 424.738 587.153 426.315C588.949 427.892 589.848 430.458 589.848 434.015C589.848 435.628 589.334 437.223 588.308 438.8C587.318 440.377 586.071 441.77 584.568 442.98C583.064 444.19 581.433 445.473 579.673 446.83C577.913 448.15 576.281 449.397 574.778 450.57C573.274 451.743 572.009 453.082 570.983 454.585C569.993 456.088 569.498 457.61 569.498 459.15V461.35H589.628V463ZM602.187 463H600.537V430.495L597.622 440.56H595.917L600.537 424.5H602.187V463Z" fill="black"/>
<path d="M435 323C470.899 323 500 293.899 500 258C500 222.101 470.899 193 435 193C399.102 193 370 222.101 370 258C370 293.899 399.102 323 435 323Z" fill="white"/>
<path d="M397.512 272H375.732V268.15C375.732 266.463 376.227 264.795 377.217 263.145C378.244 261.495 379.509 260.047 381.012 258.8C382.515 257.553 384.147 256.252 385.907 254.895C387.667 253.502 389.299 252.237 390.802 251.1C392.305 249.927 393.552 248.625 394.542 247.195C395.569 245.765 396.082 244.372 396.082 243.015C396.082 241.182 395.825 239.678 395.312 238.505C394.799 237.332 394.029 236.488 393.002 235.975C392.012 235.425 391.004 235.058 389.977 234.875C388.987 234.692 387.759 234.6 386.292 234.6C384.165 234.6 382.369 235.095 380.902 236.085C379.472 237.075 378.372 238.798 377.602 241.255L383.542 245.71H380.847L375.732 241.86C376.502 238.853 377.749 236.617 379.472 235.15C381.195 233.683 383.469 232.95 386.292 232.95C390.325 232.95 393.24 233.738 395.037 235.315C396.834 236.892 397.732 239.458 397.732 243.015C397.732 244.628 397.219 246.223 396.192 247.8C395.202 249.377 393.955 250.77 392.452 251.98C390.949 253.19 389.317 254.473 387.557 255.83C385.797 257.15 384.165 258.397 382.662 259.57C381.159 260.743 379.894 262.082 378.867 263.585C377.877 265.088 377.382 266.61 377.382 268.15V270.35H397.512V272ZM410.071 272H408.421V239.495L405.506 249.56H403.801L408.421 233.5H410.071V272ZM419.187 273.98L417.702 273.375L434.587 231.52L436.072 232.125L419.187 273.98ZM463.469 272H441.689V268.15C441.689 266.463 442.184 264.795 443.174 263.145C444.201 261.495 445.466 260.047 446.969 258.8C448.472 257.553 450.104 256.252 451.864 254.895C453.624 253.502 455.256 252.237 456.759 251.1C458.262 249.927 459.509 248.625 460.499 247.195C461.526 245.765 462.039 244.372 462.039 243.015C462.039 241.182 461.782 239.678 461.269 238.505C460.756 237.332 459.986 236.488 458.959 235.975C457.969 235.425 456.961 235.058 455.934 234.875C454.944 234.692 453.716 234.6 452.249 234.6C450.122 234.6 448.326 235.095 446.859 236.085C445.429 237.075 444.329 238.798 443.559 241.255L449.499 245.71H446.804L441.689 241.86C442.459 238.853 443.706 236.617 445.429 235.15C447.152 233.683 449.426 232.95 452.249 232.95C456.282 232.95 459.197 233.738 460.994 235.315C462.791 236.892 463.689 239.458 463.689 243.015C463.689 244.628 463.176 246.223 462.149 247.8C461.159 249.377 459.912 250.77 458.409 251.98C456.906 253.19 455.274 254.473 453.514 255.83C451.754 257.15 450.122 258.397 448.619 259.57C447.116 260.743 445.851 262.082 444.824 263.585C443.834 265.088 443.339 266.61 443.339 268.15V270.35H463.469V272ZM471.958 233.5H493.518L481.913 248.24C483.563 248.46 485.103 248.845 486.533 249.395C487.963 249.908 489.301 250.642 490.548 251.595C491.795 252.512 492.785 253.722 493.518 255.225C494.251 256.728 494.618 258.433 494.618 260.34C494.618 264.117 493.481 267.105 491.208 269.305C488.971 271.468 485.928 272.55 482.078 272.55C480.318 272.55 478.668 272.312 477.128 271.835C475.588 271.358 474.341 270.79 473.388 270.13C472.471 269.47 471.665 268.81 470.968 268.15C470.271 267.49 469.776 266.922 469.483 266.445L469.098 265.73L470.638 265.07C470.748 265.217 470.895 265.437 471.078 265.73C471.261 265.987 471.701 266.445 472.398 267.105C473.095 267.765 473.846 268.352 474.653 268.865C475.46 269.378 476.523 269.855 477.843 270.295C479.2 270.698 480.611 270.9 482.078 270.9C485.561 270.9 488.238 269.965 490.108 268.095C492.015 266.188 492.968 263.603 492.968 260.34C492.968 257.297 491.923 254.932 489.833 253.245C487.743 251.558 485.03 250.44 481.693 249.89L478.943 249.45L490.108 235.15H471.958V233.5Z" fill="black"/>
<path d="M586 130C621.899 130 651 100.899 651 65C651 29.1015 621.899 0 586 0C550.102 0 521 29.1015 521 65C521 100.899 550.102 130 586 130Z" fill="white"/>
<path d="M548.512 84H526.732V80.15C526.732 78.4633 527.227 76.795 528.217 75.145C529.244 73.495 530.509 72.0467 532.012 70.8C533.515 69.5533 535.147 68.2517 536.907 66.895C538.667 65.5017 540.299 64.2367 541.802 63.1C543.305 61.9267 544.552 60.625 545.542 59.195C546.569 57.765 547.082 56.3717 547.082 55.015C547.082 53.1817 546.825 51.6783 546.312 50.505C545.799 49.3317 545.029 48.4883 544.002 47.975C543.012 47.425 542.004 47.0583 540.977 46.875C539.987 46.6917 538.759 46.6 537.292 46.6C535.165 46.6 533.369 47.095 531.902 48.085C530.472 49.075 529.372 50.7983 528.602 53.255L534.542 57.71H531.847L526.732 53.86C527.502 50.8533 528.749 48.6167 530.472 47.15C532.195 45.6833 534.469 44.95 537.292 44.95C541.325 44.95 544.24 45.7383 546.037 47.315C547.834 48.8917 548.732 51.4583 548.732 55.015C548.732 56.6283 548.219 58.2233 547.192 59.8C546.202 61.3767 544.955 62.77 543.452 63.98C541.949 65.19 540.317 66.4733 538.557 67.83C536.797 69.15 535.165 70.3967 533.662 71.57C532.159 72.7433 530.894 74.0817 529.867 75.585C528.877 77.0883 528.382 78.61 528.382 80.15V82.35H548.512V84ZM561.071 84H559.421V51.495L556.506 61.56H554.801L559.421 45.5H561.071V84ZM570.187 85.98L568.702 85.375L585.587 43.52L587.072 44.125L570.187 85.98ZM614.469 84H592.689V80.15C592.689 78.4633 593.184 76.795 594.174 75.145C595.201 73.495 596.466 72.0467 597.969 70.8C599.472 69.5533 601.104 68.2517 602.864 66.895C604.624 65.5017 606.256 64.2367 607.759 63.1C609.262 61.9267 610.509 60.625 611.499 59.195C612.526 57.765 613.039 56.3717 613.039 55.015C613.039 53.1817 612.782 51.6783 612.269 50.505C611.756 49.3317 610.986 48.4883 609.959 47.975C608.969 47.425 607.961 47.0583 606.934 46.875C605.944 46.6917 604.716 46.6 603.249 46.6C601.122 46.6 599.326 47.095 597.859 48.085C596.429 49.075 595.329 50.7983 594.559 53.255L600.499 57.71H597.804L592.689 53.86C593.459 50.8533 594.706 48.6167 596.429 47.15C598.152 45.6833 600.426 44.95 603.249 44.95C607.282 44.95 610.197 45.7383 611.994 47.315C613.791 48.8917 614.689 51.4583 614.689 55.015C614.689 56.6283 614.176 58.2233 613.149 59.8C612.159 61.3767 610.912 62.77 609.409 63.98C607.906 65.19 606.274 66.4733 604.514 67.83C602.754 69.15 601.122 70.3967 599.619 71.57C598.116 72.7433 596.851 74.0817 595.824 75.585C594.834 77.0883 594.339 78.61 594.339 80.15V82.35H614.469V84ZM622.958 45.5H644.518L632.913 60.24C634.563 60.46 636.103 60.845 637.533 61.395C638.963 61.9083 640.301 62.6417 641.548 63.595C642.795 64.5117 643.785 65.7217 644.518 67.225C645.251 68.7283 645.618 70.4333 645.618 72.34C645.618 76.1167 644.481 79.105 642.208 81.305C639.971 83.4683 636.928 84.55 633.078 84.55C631.318 84.55 629.668 84.3117 628.128 83.835C626.588 83.3583 625.341 82.79 624.388 82.13C623.471 81.47 622.665 80.81 621.968 80.15C621.271 79.49 620.776 78.9217 620.483 78.445L620.098 77.73L621.638 77.07C621.748 77.2167 621.895 77.4367 622.078 77.73C622.261 77.9867 622.701 78.445 623.398 79.105C624.095 79.765 624.846 80.3517 625.653 80.865C626.46 81.3783 627.523 81.855 628.843 82.295C630.2 82.6983 631.611 82.9 633.078 82.9C636.561 82.9 639.238 81.965 641.108 80.095C643.015 78.1883 643.968 75.6033 643.968 72.34C643.968 69.2967 642.923 66.9317 640.833 65.245C638.743 63.5583 636.03 62.44 632.693 61.89L629.943 61.45L641.108 47.15H622.958V45.5Z" fill="black"/>
<path d="M637.355 649H629.355V614H635.455C639.855 614 643.172 614.817 645.405 616.45C647.639 618.05 648.755 620.317 648.755 623.25C648.755 626.583 647.355 629.033 644.555 630.6C648.622 632.133 650.655 635.017 650.655 639.25C650.655 642.25 649.555 644.633 647.355 646.4C645.155 648.133 641.822 649 637.355 649ZM637.355 647.5C638.922 647.5 640.355 647.383 641.655 647.15C642.955 646.883 644.189 646.467 645.355 645.9C646.555 645.3 647.489 644.433 648.155 643.3C648.822 642.167 649.155 640.817 649.155 639.25C649.155 635.683 647.439 633.267 644.005 632L641.005 630.9L643.805 629.3C646.105 628.033 647.255 626.017 647.255 623.25C647.255 618.083 643.322 615.5 635.455 615.5H630.855V647.5H637.355ZM659.21 647.5H677.61L667.01 618.35L655.86 649H654.26L667.01 613.95L679.76 649H659.21V647.5ZM707.305 642.6C706.405 644.8 705.139 646.5 703.505 647.7C701.872 648.9 699.422 649.5 696.155 649.5C692.055 649.5 689.089 648.25 687.255 645.75C685.422 643.217 684.505 639.283 684.505 633.95V629.05C684.505 623.717 685.422 619.8 687.255 617.3C689.089 614.767 692.055 613.5 696.155 613.5C699.422 613.5 701.872 614.1 703.505 615.3C705.139 616.5 706.405 618.2 707.305 620.4L705.955 621.05C705.189 619.117 704.105 617.633 702.705 616.6C701.305 615.533 699.122 615 696.155 615C694.522 615 693.122 615.217 691.955 615.65C690.789 616.05 689.739 616.75 688.805 617.75C687.872 618.75 687.172 620.2 686.705 622.1C686.239 623.967 686.005 626.283 686.005 629.05V633.95C686.005 636.717 686.239 639.05 686.705 640.95C687.172 642.817 687.872 644.25 688.805 645.25C689.739 646.25 690.789 646.967 691.955 647.4C693.122 647.8 694.522 648 696.155 648C699.122 648 701.305 647.483 702.705 646.45C704.105 645.383 705.189 643.883 705.955 641.95L707.305 642.6ZM728.647 622.65C728.647 619.417 729.464 617.083 731.097 615.65C732.73 614.217 735.38 613.5 739.047 613.5C741.614 613.5 743.68 614.167 745.247 615.5C746.814 616.833 747.947 618.867 748.647 621.6L743.997 625.1H741.547L746.947 621.05C746.247 618.817 745.23 617.25 743.897 616.35C742.597 615.45 740.98 615 739.047 615C737.714 615 736.58 615.083 735.647 615.25C734.747 615.417 733.83 615.75 732.897 616.25C731.997 616.717 731.314 617.483 730.847 618.55C730.38 619.617 730.147 620.983 730.147 622.65C730.147 624.117 730.814 625.417 732.147 626.55C733.514 627.683 735.164 628.65 737.097 629.45C739.03 630.25 740.964 631.067 742.897 631.9C744.864 632.733 746.514 633.8 747.847 635.1C749.214 636.4 749.897 637.9 749.897 639.6C749.897 642.933 749.064 645.417 747.397 647.05C745.764 648.683 742.947 649.5 738.947 649.5C735.68 649.5 733.114 648.85 731.247 647.55C729.38 646.217 728.097 644.167 727.397 641.4L728.797 640.8C729.464 643.5 730.597 645.383 732.197 646.45C733.83 647.483 736.08 648 738.947 648C742.147 648 744.514 647.383 746.047 646.15C747.614 644.917 748.397 642.733 748.397 639.6C748.397 638.133 747.714 636.833 746.347 635.7C745.014 634.567 743.364 633.6 741.397 632.8C739.464 632 737.53 631.183 735.597 630.35C733.664 629.517 732.014 628.45 730.647 627.15C729.314 625.85 728.647 624.35 728.647 622.65ZM778.524 614V615.5H766.774V649H765.274V615.5H753.524V614H778.524ZM788.538 647.5H808.238V617.55L796.988 641.65L785.738 617.5V649L784.238 648.95V613.95H785.738L796.988 638.1L808.238 614L809.738 613.95V649L788.538 648.95V647.5ZM839.988 621.05C839.222 619.117 838.138 617.633 836.738 616.6C835.338 615.533 833.155 615 830.188 615C828.555 615 827.155 615.217 825.988 615.65C824.822 616.05 823.772 616.75 822.838 617.75C821.905 618.75 821.205 620.2 820.738 622.1C820.272 623.967 820.038 626.283 820.038 629.05V633.95C820.038 636.717 820.272 639.05 820.738 640.95C821.205 642.817 821.905 644.25 822.838 645.25C823.772 646.25 824.822 646.967 825.988 647.4C827.155 647.8 828.555 648 830.188 648C833.188 648 835.572 647.367 837.338 646.1C839.105 644.8 839.988 643.417 839.988 641.95V633.5H833.838V632H841.788V641.45C841.788 643.683 840.772 645.583 838.738 647.15C836.738 648.717 833.888 649.5 830.188 649.5C826.088 649.5 823.122 648.25 821.288 645.75C819.455 643.217 818.538 639.283 818.538 633.95V629.05C818.538 623.717 819.455 619.8 821.288 617.3C823.122 614.767 826.088 613.5 830.188 613.5C833.488 613.5 835.955 614.117 837.588 615.35C839.222 616.55 840.488 618.267 841.388 620.5L839.988 621.05ZM869.046 647.5H882.846L876.796 630.9L879.596 629.3C881.896 628.033 883.046 626.017 883.046 623.25C883.046 618.083 879.113 615.5 871.246 615.5H866.646V649H865.146V614H871.246C875.646 614 878.963 614.817 881.196 616.45C883.43 618.05 884.546 620.317 884.546 623.25C884.546 626.583 883.146 629.033 880.346 630.6L878.646 631.55L884.996 649H869.046V647.5ZM913.637 649H912.137V631.5H894.137V649H892.637V614H894.137V630H912.137V614H913.637V649Z" fill="black"/>
<rect y="379" width="500" height="130" rx="65" fill="white"/>
<path d="M38.9672 436.5H57.3672L46.7672 407.35L35.6172 438H34.0172L46.7672 402.95L59.5172 438H38.9672V436.5ZM65.1621 438V409H66.6621L82.9621 435.25V409H84.4621V438H82.9621L66.6621 411.7V438H65.1621ZM93.9707 409H95.4707V438H93.9707V409ZM109.657 436.5H128.957V411.1L117.707 422.35L106.457 411.1V438L104.957 437.95V409H106.457L117.707 420.25L128.957 409H130.457V438L109.657 437.95V436.5ZM142.617 436.5H158.917L148.667 412.35L137.767 438H136.167L148.667 408.5L161.167 438H142.617V436.5ZM185.621 409V410.5H175.121V438H173.621V410.5H163.121V409H185.621ZM203.583 423.45L210.383 438H208.733L201.733 423C201.799 422.967 202.083 422.833 202.583 422.6C203.116 422.333 203.483 422.15 203.683 422.05C203.883 421.917 204.216 421.7 204.683 421.4C205.149 421.1 205.499 420.817 205.733 420.55C205.966 420.25 206.216 419.917 206.483 419.55C206.783 419.15 206.999 418.717 207.133 418.25C207.266 417.75 207.333 417.217 207.333 416.65C207.333 414.55 206.333 413 204.333 412C202.333 411 199.849 410.5 196.883 410.5H192.883V438H191.383V409H196.883C200.816 409 203.783 409.683 205.783 411.05C207.816 412.417 208.833 414.283 208.833 416.65C208.833 418.183 208.316 419.55 207.283 420.75C206.249 421.917 205.016 422.817 203.583 423.45ZM217.164 409H218.664V438H217.164V409ZM229.6 434.95C227.8 432.583 226.9 428.767 226.9 423.5C226.9 418.233 227.8 414.417 229.6 412.05C231.4 409.683 234.384 408.5 238.55 408.5C242.717 408.5 245.717 409.65 247.55 411.95L246.45 412.95C244.984 410.983 242.35 410 238.55 410C236.884 410 235.484 410.183 234.35 410.55C233.217 410.883 232.167 411.533 231.2 412.5C230.267 413.433 229.567 414.817 229.1 416.65C228.634 418.45 228.4 420.733 228.4 423.5C228.4 426.267 228.634 428.567 229.1 430.4C229.567 432.2 230.267 433.583 231.2 434.55C232.167 435.483 233.217 436.133 234.35 436.5C235.484 436.833 236.884 437 238.55 437C242.35 437 244.984 436.017 246.45 434.05L247.55 435.05C245.717 437.35 242.717 438.5 238.55 438.5C234.384 438.5 231.4 437.317 229.6 434.95ZM274.406 435.05C272.573 437.35 269.573 438.5 265.406 438.5C261.239 438.5 258.256 437.317 256.456 434.95C254.656 432.583 253.756 428.767 253.756 423.5C253.756 418.233 254.656 414.417 256.456 412.05C258.256 409.683 261.239 408.5 265.406 408.5C270.239 408.5 273.523 410.083 275.256 413.25L263.006 423.5H260.656L273.306 412.95C271.839 410.983 269.206 410 265.406 410C263.739 410 262.339 410.183 261.206 410.55C260.073 410.883 259.023 411.533 258.056 412.5C257.123 413.433 256.423 414.817 255.956 416.65C255.489 418.45 255.256 420.733 255.256 423.5C255.256 426.267 255.489 428.567 255.956 430.4C256.423 432.2 257.123 433.583 258.056 434.55C259.023 435.483 260.073 436.133 261.206 436.5C262.339 436.833 263.739 437 265.406 437C269.206 437 271.839 436.017 273.306 434.05L274.406 435.05ZM298.595 434.95C296.795 432.583 295.895 428.767 295.895 423.5C295.895 418.233 296.795 414.417 298.595 412.05C300.395 409.683 303.378 408.5 307.545 408.5C311.711 408.5 314.711 409.65 316.545 411.95L315.445 412.95C313.978 410.983 311.345 410 307.545 410C305.878 410 304.478 410.183 303.345 410.55C302.211 410.883 301.161 411.533 300.195 412.5C299.261 413.433 298.561 414.817 298.095 416.65C297.628 418.45 297.395 420.733 297.395 423.5C297.395 426.267 297.628 428.567 298.095 430.4C298.561 432.2 299.261 433.583 300.195 434.55C301.161 435.483 302.211 436.133 303.345 436.5C304.478 436.833 305.878 437 307.545 437C311.345 437 313.978 436.017 315.445 434.05L316.545 435.05C314.711 437.35 311.711 438.5 307.545 438.5C303.378 438.5 300.395 437.317 298.595 434.95ZM343.4 435.05C341.567 437.35 338.567 438.5 334.4 438.5C330.233 438.5 327.25 437.317 325.45 434.95C323.65 432.583 322.75 428.767 322.75 423.5C322.75 418.233 323.65 414.417 325.45 412.05C327.25 409.683 330.233 408.5 334.4 408.5C339.233 408.5 342.517 410.083 344.25 413.25L332 423.5H329.65L342.3 412.95C340.833 410.983 338.2 410 334.4 410C332.733 410 331.333 410.183 330.2 410.55C329.067 410.883 328.017 411.533 327.05 412.5C326.117 413.433 325.417 414.817 324.95 416.65C324.483 418.45 324.25 420.733 324.25 423.5C324.25 426.267 324.483 428.567 324.95 430.4C325.417 432.2 326.117 433.583 327.05 434.55C328.017 435.483 329.067 436.133 330.2 436.5C331.333 436.833 332.733 437 334.4 437C338.2 437 340.833 436.017 342.3 434.05L343.4 435.05ZM351.393 438V409H352.893L369.193 435.25V409H370.693V438H369.193L352.893 411.7V438H351.393ZM398.951 409V410.5H388.451V438H386.951V410.5H376.451V409H398.951ZM416.913 423.45L423.713 438H422.063L415.063 423C415.13 422.967 415.413 422.833 415.913 422.6C416.446 422.333 416.813 422.15 417.013 422.05C417.213 421.917 417.546 421.7 418.013 421.4C418.48 421.1 418.83 420.817 419.063 420.55C419.296 420.25 419.546 419.917 419.813 419.55C420.113 419.15 420.33 418.717 420.463 418.25C420.596 417.75 420.663 417.217 420.663 416.65C420.663 414.55 419.663 413 417.663 412C415.663 411 413.18 410.5 410.213 410.5H406.213V438H404.713V409H410.213C414.146 409 417.113 409.683 419.113 411.05C421.146 412.417 422.163 414.283 422.163 416.65C422.163 418.183 421.646 419.55 420.613 420.75C419.58 421.917 418.346 422.817 416.913 423.45ZM449.894 435.05C448.061 437.35 445.061 438.5 440.894 438.5C436.727 438.5 433.744 437.317 431.944 434.95C430.144 432.583 429.244 428.767 429.244 423.5C429.244 418.233 430.144 414.417 431.944 412.05C433.744 409.683 436.727 408.5 440.894 408.5C445.727 408.5 449.011 410.083 450.744 413.25L438.494 423.5H436.144L448.794 412.95C447.327 410.983 444.694 410 440.894 410C439.227 410 437.827 410.183 436.694 410.55C435.561 410.883 434.511 411.533 433.544 412.5C432.611 413.433 431.911 414.817 431.444 416.65C430.977 418.45 430.744 420.733 430.744 423.5C430.744 426.267 430.977 428.567 431.444 430.4C431.911 432.2 432.611 433.583 433.544 434.55C434.511 435.483 435.561 436.133 436.694 436.5C437.827 436.833 439.227 437 440.894 437C444.694 437 447.327 436.017 448.794 434.05L449.894 435.05ZM148.064 497H144.264V468H148.064C152.997 468 156.93 469.3 159.864 471.9C162.797 474.5 164.264 478.033 164.264 482.5C164.264 486.967 162.797 490.5 159.864 493.1C156.93 495.7 152.997 497 148.064 497ZM148.064 495.5C152.564 495.5 156.13 494.35 158.764 492.05C161.43 489.75 162.764 486.567 162.764 482.5C162.764 478.433 161.43 475.25 158.764 472.95C156.13 470.65 152.564 469.5 148.064 469.5H145.764V495.5H148.064ZM191.3 494.05C189.467 496.35 186.467 497.5 182.3 497.5C178.134 497.5 175.15 496.317 173.35 493.95C171.55 491.583 170.65 487.767 170.65 482.5C170.65 477.233 171.55 473.417 173.35 471.05C175.15 468.683 178.134 467.5 182.3 467.5C187.134 467.5 190.417 469.083 192.15 472.25L179.9 482.5H177.55L190.2 471.95C188.734 469.983 186.1 469 182.3 469C180.634 469 179.234 469.183 178.1 469.55C176.967 469.883 175.917 470.533 174.95 471.5C174.017 472.433 173.317 473.817 172.85 475.65C172.384 477.45 172.15 479.733 172.15 482.5C172.15 485.267 172.384 487.567 172.85 489.4C173.317 491.2 174.017 492.583 174.95 493.55C175.917 494.483 176.967 495.133 178.1 495.5C179.234 495.833 180.634 496 182.3 496C186.1 496 188.734 495.017 190.2 493.05L191.3 494.05ZM230.739 495.5V497H214.039V468H215.539V495.5H230.739ZM251.1 469.55C249.967 469.183 248.567 469 246.9 469C245.233 469 243.833 469.183 242.7 469.55C241.567 469.883 240.517 470.533 239.55 471.5C238.617 472.433 237.917 473.817 237.45 475.65C236.983 477.45 236.75 479.733 236.75 482.5C236.75 485.267 236.983 487.567 237.45 489.4C237.917 491.2 238.617 492.583 239.55 493.55C240.517 494.483 241.567 495.133 242.7 495.5C243.833 495.833 245.233 496 246.9 496C248.567 496 249.967 495.833 251.1 495.5C252.233 495.133 253.267 494.483 254.2 493.55C255.167 492.583 255.883 491.2 256.35 489.4C256.817 487.567 257.05 485.267 257.05 482.5C257.05 479.733 256.817 477.45 256.35 475.65C255.883 473.817 255.167 472.433 254.2 471.5C253.267 470.533 252.233 469.883 251.1 469.55ZM255.85 493.95C254.05 496.317 251.067 497.5 246.9 497.5C242.733 497.5 239.75 496.317 237.95 493.95C236.15 491.583 235.25 487.767 235.25 482.5C235.25 477.233 236.15 473.417 237.95 471.05C239.75 468.683 242.733 467.5 246.9 467.5C251.067 467.5 254.05 468.683 255.85 471.05C257.65 473.417 258.55 477.233 258.55 482.5C258.55 487.767 257.65 491.583 255.85 493.95ZM266.822 468H268.322V497H266.822V468ZM285.459 467.4C289.592 467.4 292.525 468.317 294.259 470.15L293.259 471.25C291.659 469.683 289.125 468.9 285.659 468.9C280.459 468.9 277.859 470.967 277.859 475.1C277.859 476.7 278.492 477.983 279.759 478.95C281.025 479.883 282.559 480.6 284.359 481.1C286.192 481.6 288.009 482.133 289.809 482.7C291.642 483.233 293.192 484.117 294.459 485.35C295.725 486.55 296.359 488.133 296.359 490.1C296.359 492.4 295.409 494.233 293.509 495.6C291.609 496.967 288.859 497.65 285.259 497.65C283.492 497.65 281.742 497.417 280.009 496.95C278.309 496.483 277.042 495.8 276.209 494.9L277.209 493.8C278.909 495.367 281.525 496.15 285.059 496.15C288.292 496.15 290.725 495.55 292.359 494.35C294.025 493.15 294.859 491.75 294.859 490.15C294.859 488.483 294.225 487.133 292.959 486.1C291.692 485.067 290.142 484.3 288.309 483.8C286.509 483.267 284.692 482.733 282.859 482.2C281.059 481.633 279.525 480.767 278.259 479.6C276.992 478.433 276.359 476.9 276.359 475C276.359 472.433 277.209 470.533 278.909 469.3C280.642 468.033 282.825 467.4 285.459 467.4ZM303.639 468H305.139V497H303.639V468ZM326.825 482.45L333.625 497H331.975L324.975 482C325.042 481.967 325.325 481.833 325.825 481.6C326.358 481.333 326.725 481.15 326.925 481.05C327.125 480.917 327.458 480.7 327.925 480.4C328.392 480.1 328.742 479.817 328.975 479.55C329.208 479.25 329.458 478.917 329.725 478.55C330.025 478.15 330.242 477.717 330.375 477.25C330.508 476.75 330.575 476.217 330.575 475.65C330.575 473.55 329.575 472 327.575 471C325.575 470 323.092 469.5 320.125 469.5H316.125V497H314.625V468H320.125C324.058 468 327.025 468.683 329.025 470.05C331.058 471.417 332.075 473.283 332.075 475.65C332.075 477.183 331.558 478.55 330.525 479.75C329.492 480.917 328.258 481.817 326.825 482.45ZM348.056 467.4C352.19 467.4 355.123 468.317 356.856 470.15L355.856 471.25C354.256 469.683 351.723 468.9 348.256 468.9C343.056 468.9 340.456 470.967 340.456 475.1C340.456 476.7 341.09 477.983 342.356 478.95C343.623 479.883 345.156 480.6 346.956 481.1C348.79 481.6 350.606 482.133 352.406 482.7C354.24 483.233 355.79 484.117 357.056 485.35C358.323 486.55 358.956 488.133 358.956 490.1C358.956 492.4 358.006 494.233 356.106 495.6C354.206 496.967 351.456 497.65 347.856 497.65C346.09 497.65 344.34 497.417 342.606 496.95C340.906 496.483 339.64 495.8 338.806 494.9L339.806 493.8C341.506 495.367 344.123 496.15 347.656 496.15C350.89 496.15 353.323 495.55 354.956 494.35C356.623 493.15 357.456 491.75 357.456 490.15C357.456 488.483 356.823 487.133 355.556 486.1C354.29 485.067 352.74 484.3 350.906 483.8C349.106 483.267 347.29 482.733 345.456 482.2C343.656 481.633 342.123 480.767 340.856 479.6C339.59 478.433 338.956 476.9 338.956 475C338.956 472.433 339.806 470.533 341.506 469.3C343.24 468.033 345.423 467.4 348.056 467.4Z" fill="black"/>
<rect x="521" y="189" width="500" height="130" rx="65" fill="white"/>
<path d="M639.272 245H631.272V210H637.372C641.772 210 645.089 210.817 647.322 212.45C649.556 214.05 650.672 216.317 650.672 219.25C650.672 222.583 649.272 225.033 646.472 226.6C650.539 228.133 652.572 231.017 652.572 235.25C652.572 238.25 651.472 240.633 649.272 242.4C647.072 244.133 643.739 245 639.272 245ZM639.272 243.5C640.839 243.5 642.272 243.383 643.572 243.15C644.872 242.883 646.106 242.467 647.272 241.9C648.472 241.3 649.406 240.433 650.072 239.3C650.739 238.167 651.072 236.817 651.072 235.25C651.072 231.683 649.356 229.267 645.922 228L642.922 226.9L645.722 225.3C648.022 224.033 649.172 222.017 649.172 219.25C649.172 214.083 645.239 211.5 637.372 211.5H632.772V243.5H639.272ZM681.027 210V211.5H669.277V245H667.777V211.5H656.027V210H681.027ZM685.691 218.65C685.691 215.417 686.508 213.083 688.141 211.65C689.774 210.217 692.424 209.5 696.091 209.5C698.658 209.5 700.724 210.167 702.291 211.5C703.858 212.833 704.991 214.867 705.691 217.6L701.041 221.1H698.591L703.991 217.05C703.291 214.817 702.274 213.25 700.941 212.35C699.641 211.45 698.024 211 696.091 211C694.758 211 693.624 211.083 692.691 211.25C691.791 211.417 690.874 211.75 689.941 212.25C689.041 212.717 688.358 213.483 687.891 214.55C687.424 215.617 687.191 216.983 687.191 218.65C687.191 220.117 687.858 221.417 689.191 222.55C690.558 223.683 692.208 224.65 694.141 225.45C696.074 226.25 698.008 227.067 699.941 227.9C701.908 228.733 703.558 229.8 704.891 231.1C706.258 232.4 706.941 233.9 706.941 235.6C706.941 238.933 706.108 241.417 704.441 243.05C702.808 244.683 699.991 245.5 695.991 245.5C692.724 245.5 690.158 244.85 688.291 243.55C686.424 242.217 685.141 240.167 684.441 237.4L685.841 236.8C686.508 239.5 687.641 241.383 689.241 242.45C690.874 243.483 693.124 244 695.991 244C699.191 244 701.558 243.383 703.091 242.15C704.658 240.917 705.441 238.733 705.441 235.6C705.441 234.133 704.758 232.833 703.391 231.7C702.058 230.567 700.408 229.6 698.441 228.8C696.508 228 694.574 227.183 692.641 226.35C690.708 225.517 689.058 224.45 687.691 223.15C686.358 221.85 685.691 220.35 685.691 218.65ZM740.964 225.5L747.614 219.95C746.148 217.983 743.514 217 739.714 217C738.048 217 736.648 217.183 735.514 217.55C734.381 217.883 733.331 218.533 732.364 219.5C731.431 220.433 730.731 221.817 730.264 223.65C729.798 225.45 729.564 227.733 729.564 230.5C729.564 233.267 729.798 235.567 730.264 237.4C730.731 239.2 731.431 240.583 732.364 241.55C733.331 242.483 734.381 243.133 735.514 243.5C736.648 243.833 738.048 244 739.714 244C743.481 244 746.098 243.033 747.564 241.1V232.25H749.064V245.45C749.064 251.817 746.148 255 740.314 255H734.464V253.5H740.314C742.814 253.5 744.648 252.833 745.814 251.5C746.981 250.2 747.564 247.7 747.564 244V243.25C745.764 244.75 743.148 245.5 739.714 245.5C735.548 245.5 732.564 244.317 730.764 241.95C728.964 239.583 728.064 235.767 728.064 230.5C728.064 225.233 728.964 221.417 730.764 219.05C732.564 216.683 735.548 215.5 739.714 215.5C744.548 215.5 747.831 217.083 749.564 220.25L743.314 225.5H740.964ZM777.23 242.05C775.397 244.35 772.397 245.5 768.23 245.5C764.063 245.5 761.08 244.317 759.28 241.95C757.48 239.583 756.58 235.767 756.58 230.5C756.58 225.233 757.48 221.417 759.28 219.05C761.08 216.683 764.063 215.5 768.23 215.5C773.063 215.5 776.347 217.083 778.08 220.25L765.83 230.5H763.48L776.13 219.95C774.663 217.983 772.03 217 768.23 217C766.563 217 765.163 217.183 764.03 217.55C762.897 217.883 761.847 218.533 760.88 219.5C759.947 220.433 759.247 221.817 758.78 223.65C758.313 225.45 758.08 227.733 758.08 230.5C758.08 233.267 758.313 235.567 758.78 237.4C759.247 239.2 759.947 240.583 760.88 241.55C761.847 242.483 762.897 243.133 764.03 243.5C765.163 243.833 766.563 244 768.23 244C772.03 244 774.663 243.017 776.13 241.05L777.23 242.05ZM792.873 215.4C797.006 215.4 799.939 216.317 801.673 218.15L800.673 219.25C799.073 217.683 796.539 216.9 793.073 216.9C787.873 216.9 785.273 218.967 785.273 223.1C785.273 224.7 785.906 225.983 787.173 226.95C788.439 227.883 789.973 228.6 791.773 229.1C793.606 229.6 795.423 230.133 797.223 230.7C799.056 231.233 800.606 232.117 801.873 233.35C803.139 234.55 803.773 236.133 803.773 238.1C803.773 240.4 802.823 242.233 800.923 243.6C799.023 244.967 796.273 245.65 792.673 245.65C790.906 245.65 789.156 245.417 787.423 244.95C785.723 244.483 784.456 243.8 783.623 242.9L784.623 241.8C786.323 243.367 788.939 244.15 792.473 244.15C795.706 244.15 798.139 243.55 799.773 242.35C801.439 241.15 802.273 239.75 802.273 238.15C802.273 236.483 801.639 235.133 800.373 234.1C799.106 233.067 797.556 232.3 795.723 231.8C793.923 231.267 792.106 230.733 790.273 230.2C788.473 229.633 786.939 228.767 785.673 227.6C784.406 226.433 783.773 224.9 783.773 223C783.773 220.433 784.623 218.533 786.323 217.3C788.056 216.033 790.239 215.4 792.873 215.4ZM829.803 216V217.5H819.303V245H817.803V217.5H807.303V216H829.803ZM835.564 216H837.064V245H835.564V216ZM861.151 217.55C860.017 217.183 858.617 217 856.951 217C855.284 217 853.884 217.183 852.751 217.55C851.617 217.883 850.567 218.533 849.601 219.5C848.667 220.433 847.967 221.817 847.501 223.65C847.034 225.45 846.801 227.733 846.801 230.5C846.801 233.267 847.034 235.567 847.501 237.4C847.967 239.2 848.667 240.583 849.601 241.55C850.567 242.483 851.617 243.133 852.751 243.5C853.884 243.833 855.284 244 856.951 244C858.617 244 860.017 243.833 861.151 243.5C862.284 243.133 863.317 242.483 864.251 241.55C865.217 240.583 865.934 239.2 866.401 237.4C866.867 235.567 867.101 233.267 867.101 230.5C867.101 227.733 866.867 225.45 866.401 223.65C865.934 221.817 865.217 220.433 864.251 219.5C863.317 218.533 862.284 217.883 861.151 217.55ZM865.901 241.95C864.101 244.317 861.117 245.5 856.951 245.5C852.784 245.5 849.801 244.317 848.001 241.95C846.201 239.583 845.301 235.767 845.301 230.5C845.301 225.233 846.201 221.417 848.001 219.05C849.801 216.683 852.784 215.5 856.951 215.5C861.117 215.5 864.101 216.683 865.901 219.05C867.701 221.417 868.601 225.233 868.601 230.5C868.601 235.767 867.701 239.583 865.901 241.95ZM876.873 245V216H878.373L894.673 242.25V216H896.173V245H894.673L878.373 218.7V245H876.873ZM667.343 304H663.543V275H667.343C672.276 275 676.21 276.3 679.143 278.9C682.076 281.5 683.543 285.033 683.543 289.5C683.543 293.967 682.076 297.5 679.143 300.1C676.21 302.7 672.276 304 667.343 304ZM667.343 302.5C671.843 302.5 675.41 301.35 678.043 299.05C680.71 296.75 682.043 293.567 682.043 289.5C682.043 285.433 680.71 282.25 678.043 279.95C675.41 277.65 671.843 276.5 667.343 276.5H665.043V302.5H667.343ZM710.58 301.05C708.746 303.35 705.746 304.5 701.58 304.5C697.413 304.5 694.43 303.317 692.63 300.95C690.83 298.583 689.93 294.767 689.93 289.5C689.93 284.233 690.83 280.417 692.63 278.05C694.43 275.683 697.413 274.5 701.58 274.5C706.413 274.5 709.696 276.083 711.43 279.25L699.18 289.5H696.83L709.48 278.95C708.013 276.983 705.38 276 701.58 276C699.913 276 698.513 276.183 697.38 276.55C696.246 276.883 695.196 277.533 694.23 278.5C693.296 279.433 692.596 280.817 692.13 282.65C691.663 284.45 691.43 286.733 691.43 289.5C691.43 292.267 691.663 294.567 692.13 296.4C692.596 298.2 693.296 299.583 694.23 300.55C695.196 301.483 696.246 302.133 697.38 302.5C698.513 302.833 699.913 303 701.58 303C705.38 303 708.013 302.017 709.48 300.05L710.58 301.05ZM750.018 302.5V304H733.318V275H734.818V302.5H750.018ZM758.429 302.5H774.729L764.479 278.35L753.579 304H751.979L764.479 274.5L776.979 304H758.429V302.5ZM810.03 287.2L809.28 285.9L812.08 284.3C814.38 283.033 815.53 281.017 815.53 278.25C815.53 273.083 811.596 270.5 803.73 270.5H799.13V304H797.63V269H803.73C808.13 269 811.446 269.817 813.68 271.45C815.913 273.05 817.03 275.317 817.03 278.25C817.03 281.583 815.63 284.033 812.83 285.6L810.03 287.2ZM828.248 302.5H847.948V272.55L836.698 296.65L825.448 272.5V304L823.948 303.95V268.95H825.448L836.698 293.1L847.948 269L849.448 268.95V304L828.248 303.95V302.5ZM877.298 285.7H862.448L877.748 270.5H860.848V302.5H880.248V304H859.348V269H881.398L866.098 284.2H877.298V285.7Z" fill="black"/>
<rect width="500" height="130" rx="65" fill="white"/>
<path d="M125.027 51.5H143.427L132.827 22.35L121.677 53H120.077L132.827 17.95L145.577 53H125.027V51.5ZM158.872 23.4C163.005 23.4 165.938 24.3167 167.672 26.15L166.672 27.25C165.072 25.6833 162.538 24.9 159.072 24.9C153.872 24.9 151.272 26.9667 151.272 31.1C151.272 32.7 151.905 33.9833 153.172 34.95C154.438 35.8833 155.972 36.6 157.772 37.1C159.605 37.6 161.422 38.1333 163.222 38.7C165.055 39.2333 166.605 40.1167 167.872 41.35C169.138 42.55 169.772 44.1333 169.772 46.1C169.772 48.4 168.822 50.2333 166.922 51.6C165.022 52.9667 162.272 53.65 158.672 53.65C156.905 53.65 155.155 53.4167 153.422 52.95C151.722 52.4833 150.455 51.8 149.622 50.9L150.622 49.8C152.322 51.3667 154.938 52.15 158.472 52.15C161.705 52.15 164.138 51.55 165.772 50.35C167.438 49.15 168.272 47.75 168.272 46.15C168.272 44.4833 167.638 43.1333 166.372 42.1C165.105 41.0667 163.555 40.3 161.722 39.8C159.922 39.2667 158.105 38.7333 156.272 38.2C154.472 37.6333 152.938 36.7667 151.672 35.6C150.405 34.4333 149.772 32.9 149.772 31C149.772 28.4333 150.622 26.5333 152.322 25.3C154.055 24.0333 156.238 23.4 158.872 23.4ZM184.702 23.4C188.835 23.4 191.768 24.3167 193.502 26.15L192.502 27.25C190.902 25.6833 188.368 24.9 184.902 24.9C179.702 24.9 177.102 26.9667 177.102 31.1C177.102 32.7 177.735 33.9833 179.002 34.95C180.268 35.8833 181.802 36.6 183.602 37.1C185.435 37.6 187.252 38.1333 189.052 38.7C190.885 39.2333 192.435 40.1167 193.702 41.35C194.968 42.55 195.602 44.1333 195.602 46.1C195.602 48.4 194.652 50.2333 192.752 51.6C190.852 52.9667 188.102 53.65 184.502 53.65C182.735 53.65 180.985 53.4167 179.252 52.95C177.552 52.4833 176.285 51.8 175.452 50.9L176.452 49.8C178.152 51.3667 180.768 52.15 184.302 52.15C187.535 52.15 189.968 51.55 191.602 50.35C193.268 49.15 194.102 47.75 194.102 46.15C194.102 44.4833 193.468 43.1333 192.202 42.1C190.935 41.0667 189.385 40.3 187.552 39.8C185.752 39.2667 183.935 38.7333 182.102 38.2C180.302 37.6333 178.768 36.7667 177.502 35.6C176.235 34.4333 175.602 32.9 175.602 31C175.602 28.4333 176.452 26.5333 178.152 25.3C179.885 24.0333 182.068 23.4 184.702 23.4ZM202.882 24H204.382V53H202.882V24ZM221.518 23.4C225.651 23.4 228.585 24.3167 230.318 26.15L229.318 27.25C227.718 25.6833 225.185 24.9 221.718 24.9C216.518 24.9 213.918 26.9667 213.918 31.1C213.918 32.7 214.551 33.9833 215.818 34.95C217.085 35.8833 218.618 36.6 220.418 37.1C222.251 37.6 224.068 38.1333 225.868 38.7C227.701 39.2333 229.251 40.1167 230.518 41.35C231.785 42.55 232.418 44.1333 232.418 46.1C232.418 48.4 231.468 50.2333 229.568 51.6C227.668 52.9667 224.918 53.65 221.318 53.65C219.551 53.65 217.801 53.4167 216.068 52.95C214.368 52.4833 213.101 51.8 212.268 50.9L213.268 49.8C214.968 51.3667 217.585 52.15 221.118 52.15C224.351 52.15 226.785 51.55 228.418 50.35C230.085 49.15 230.918 47.75 230.918 46.15C230.918 44.4833 230.285 43.1333 229.018 42.1C227.751 41.0667 226.201 40.3 224.368 39.8C222.568 39.2667 220.751 38.7333 218.918 38.2C217.118 37.6333 215.585 36.7667 214.318 35.6C213.051 34.4333 212.418 32.9 212.418 31C212.418 28.4333 213.268 26.5333 214.968 25.3C216.701 24.0333 218.885 23.4 221.518 23.4ZM258.448 24V25.5H247.948V53H246.448V25.5H235.948V24H258.448ZM266.86 51.5H283.16L272.91 27.35L262.01 53H260.41L272.91 23.5L285.41 53H266.86V51.5ZM291.114 53V24H292.614L308.914 50.25V24H310.414V53H308.914L292.614 26.7V53H291.114ZM338.673 24V25.5H328.173V53H326.673V25.5H316.173V24H338.673ZM363.835 50.05C362.001 52.35 359.001 53.5 354.835 53.5C350.668 53.5 347.685 52.3167 345.885 49.95C344.085 47.5833 343.185 43.7667 343.185 38.5C343.185 33.2333 344.085 29.4167 345.885 27.05C347.685 24.6833 350.668 23.5 354.835 23.5C359.668 23.5 362.951 25.0833 364.685 28.25L352.435 38.5H350.085L362.735 27.95C361.268 25.9833 358.635 25 354.835 25C353.168 25 351.768 25.1833 350.635 25.55C349.501 25.8833 348.451 26.5333 347.485 27.5C346.551 28.4333 345.851 29.8167 345.385 31.65C344.918 33.45 344.685 35.7333 344.685 38.5C344.685 41.2667 344.918 43.5667 345.385 45.4C345.851 47.2 346.551 48.5833 347.485 49.55C348.451 50.4833 349.501 51.1333 350.635 51.5C351.768 51.8333 353.168 52 354.835 52C358.635 52 361.268 51.0167 362.735 49.05L363.835 50.05ZM135.979 112H132.179V83H135.979C140.912 83 144.845 84.3 147.779 86.9C150.712 89.5 152.179 93.0333 152.179 97.5C152.179 101.967 150.712 105.5 147.779 108.1C144.845 110.7 140.912 112 135.979 112ZM135.979 110.5C140.479 110.5 144.045 109.35 146.679 107.05C149.345 104.75 150.679 101.567 150.679 97.5C150.679 93.4333 149.345 90.25 146.679 87.95C144.045 85.65 140.479 84.5 135.979 84.5H133.679V110.5H135.979ZM179.215 109.05C177.382 111.35 174.382 112.5 170.215 112.5C166.049 112.5 163.065 111.317 161.265 108.95C159.465 106.583 158.565 102.767 158.565 97.5C158.565 92.2333 159.465 88.4167 161.265 86.05C163.065 83.6833 166.049 82.5 170.215 82.5C175.049 82.5 178.332 84.0833 180.065 87.25L167.815 97.5H165.465L178.115 86.95C176.649 84.9833 174.015 84 170.215 84C168.549 84 167.149 84.1833 166.015 84.55C164.882 84.8833 163.832 85.5333 162.865 86.5C161.932 87.4333 161.232 88.8167 160.765 90.65C160.299 92.45 160.065 94.7333 160.065 97.5C160.065 100.267 160.299 102.567 160.765 104.4C161.232 106.2 161.932 107.583 162.865 108.55C163.832 109.483 164.882 110.133 166.015 110.5C167.149 110.833 168.549 111 170.215 111C174.015 111 176.649 110.017 178.115 108.05L179.215 109.05ZM213.604 92.5L220.254 86.95C218.787 84.9833 216.154 84 212.354 84C210.687 84 209.287 84.1833 208.154 84.55C207.021 84.8833 205.971 85.5333 205.004 86.5C204.071 87.4333 203.371 88.8167 202.904 90.65C202.437 92.45 202.204 94.7333 202.204 97.5C202.204 100.267 202.437 102.567 202.904 104.4C203.371 106.2 204.071 107.583 205.004 108.55C205.971 109.483 207.021 110.133 208.154 110.5C209.287 110.833 210.687 111 212.354 111C216.121 111 218.737 110.033 220.204 108.1V99.25H221.704V112.45C221.704 118.817 218.787 122 212.954 122H207.104V120.5H212.954C215.454 120.5 217.287 119.833 218.454 118.5C219.621 117.2 220.204 114.7 220.204 111V110.25C218.404 111.75 215.787 112.5 212.354 112.5C208.187 112.5 205.204 111.317 203.404 108.95C201.604 106.583 200.704 102.767 200.704 97.5C200.704 92.2333 201.604 88.4167 203.404 86.05C205.204 83.6833 208.187 82.5 212.354 82.5C217.187 82.5 220.471 84.0833 222.204 87.25L215.954 92.5H213.604ZM249.87 109.05C248.036 111.35 245.036 112.5 240.87 112.5C236.703 112.5 233.72 111.317 231.92 108.95C230.12 106.583 229.22 102.767 229.22 97.5C229.22 92.2333 230.12 88.4167 231.92 86.05C233.72 83.6833 236.703 82.5 240.87 82.5C245.703 82.5 248.986 84.0833 250.72 87.25L238.47 97.5H236.12L248.77 86.95C247.303 84.9833 244.67 84 240.87 84C239.203 84 237.803 84.1833 236.67 84.55C235.536 84.8833 234.486 85.5333 233.52 86.5C232.586 87.4333 231.886 88.8167 231.42 90.65C230.953 92.45 230.72 94.7333 230.72 97.5C230.72 100.267 230.953 102.567 231.42 104.4C231.886 106.2 232.586 107.583 233.52 108.55C234.486 109.483 235.536 110.133 236.67 110.5C237.803 110.833 239.203 111 240.87 111C244.67 111 247.303 110.017 248.77 108.05L249.87 109.05ZM265.512 82.4C269.646 82.4 272.579 83.3167 274.312 85.15L273.312 86.25C271.712 84.6833 269.179 83.9 265.712 83.9C260.512 83.9 257.912 85.9667 257.912 90.1C257.912 91.7 258.546 92.9833 259.812 93.95C261.079 94.8833 262.612 95.6 264.412 96.1C266.246 96.6 268.062 97.1333 269.862 97.7C271.696 98.2333 273.246 99.1167 274.512 100.35C275.779 101.55 276.412 103.133 276.412 105.1C276.412 107.4 275.462 109.233 273.562 110.6C271.662 111.967 268.912 112.65 265.312 112.65C263.546 112.65 261.796 112.417 260.062 111.95C258.362 111.483 257.096 110.8 256.262 109.9L257.262 108.8C258.962 110.367 261.579 111.15 265.112 111.15C268.346 111.15 270.779 110.55 272.412 109.35C274.079 108.15 274.912 106.75 274.912 105.15C274.912 103.483 274.279 102.133 273.012 101.1C271.746 100.067 270.196 99.3 268.362 98.8C266.562 98.2667 264.746 97.7333 262.912 97.2C261.112 96.6333 259.579 95.7667 258.312 94.6C257.046 93.4333 256.412 91.9 256.412 90C256.412 87.4333 257.262 85.5333 258.962 84.3C260.696 83.0333 262.879 82.4 265.512 82.4ZM302.442 83V84.5H291.942V112H290.442V84.5H279.942V83H302.442ZM308.204 83H309.704V112H308.204V83ZM333.79 84.55C332.657 84.1833 331.257 84 329.59 84C327.924 84 326.524 84.1833 325.39 84.55C324.257 84.8833 323.207 85.5333 322.24 86.5C321.307 87.4333 320.607 88.8167 320.14 90.65C319.674 92.45 319.44 94.7333 319.44 97.5C319.44 100.267 319.674 102.567 320.14 104.4C320.607 106.2 321.307 107.583 322.24 108.55C323.207 109.483 324.257 110.133 325.39 110.5C326.524 110.833 327.924 111 329.59 111C331.257 111 332.657 110.833 333.79 110.5C334.924 110.133 335.957 109.483 336.89 108.55C337.857 107.583 338.574 106.2 339.04 104.4C339.507 102.567 339.74 100.267 339.74 97.5C339.74 94.7333 339.507 92.45 339.04 90.65C338.574 88.8167 337.857 87.4333 336.89 86.5C335.957 85.5333 334.924 84.8833 333.79 84.55ZM338.54 108.95C336.74 111.317 333.757 112.5 329.59 112.5C325.424 112.5 322.44 111.317 320.64 108.95C318.84 106.583 317.94 102.767 317.94 97.5C317.94 92.2333 318.84 88.4167 320.64 86.05C322.44 83.6833 325.424 82.5 329.59 82.5C333.757 82.5 336.74 83.6833 338.54 86.05C340.34 88.4167 341.24 92.2333 341.24 97.5C341.24 102.767 340.34 106.583 338.54 108.95ZM349.513 112V83H351.013L367.313 109.25V83H368.813V112H367.313L351.013 85.7V112H349.513Z" fill="black"/>
</svg>
