<?xml version="1.0" encoding="UTF-8"?>
<svg xmlns="http://www.w3.org/2000/svg" xmlns:xlink="http://www.w3.org/1999/xlink" width="50px" height="50px" viewBox="0 0 50 50" version="1.1">
<g id="surface1">
<path style=" stroke:none;fill-rule:nonzero;fill:rgb(0%,0%,0%);fill-opacity:1;" d="M 24.328125 2.9375 C 24.140625 3.054688 18.671875 7.03125 12.179688 11.789062 C 4.5625 17.375 0.304688 20.546875 0.1875 20.742188 C -0.449219 21.777344 0.78125 23.085938 1.855469 22.53125 C 1.992188 22.460938 7.21875 18.652344 13.476562 14.0625 C 19.734375 9.484375 24.921875 5.722656 25 5.722656 C 25.078125 5.722656 30.332031 9.523438 36.660156 14.160156 C 47.441406 22.050781 48.203125 22.585938 48.625 22.625 C 49.679688 22.714844 50.371094 21.570312 49.785156 20.703125 C 49.648438 20.5 45.195312 17.179688 38.039062 11.933594 C 31.699219 7.296875 26.25 3.320312 25.9375 3.117188 C 25.265625 2.675781 24.835938 2.625 24.328125 2.9375 Z M 24.328125 2.9375 "/>
<path style=" stroke:none;fill-rule:nonzero;fill:rgb(0%,0%,0%);fill-opacity:1;" d="M 6.113281 22.949219 C 5.476562 23.359375 5.515625 22.597656 5.488281 34.570312 C 5.46875 40.554688 5.488281 45.695312 5.515625 45.984375 C 5.566406 46.386719 5.65625 46.582031 5.90625 46.867188 L 6.230469 47.21875 L 13.171875 47.246094 C 20.851562 47.273438 20.507812 47.296875 20.898438 46.648438 C 21.085938 46.347656 21.09375 46.113281 21.09375 39.726562 C 21.09375 35.203125 21.132812 32.949219 21.203125 32.597656 C 21.632812 30.566406 23.632812 29.210938 25.644531 29.578125 C 27.246094 29.875 28.46875 31.035156 28.796875 32.597656 C 28.867188 32.949219 28.90625 35.203125 28.90625 39.726562 C 28.90625 46.113281 28.914062 46.347656 29.101562 46.648438 C 29.492188 47.296875 29.148438 47.273438 36.828125 47.246094 L 43.769531 47.21875 L 44.09375 46.867188 C 44.34375 46.582031 44.433594 46.386719 44.484375 45.984375 C 44.511719 45.695312 44.53125 40.554688 44.511719 34.570312 C 44.484375 24.375 44.472656 23.664062 44.304688 23.367188 C 43.835938 22.5 42.5 22.546875 42.039062 23.4375 C 41.914062 23.679688 41.894531 25.148438 41.894531 34.226562 L 41.894531 44.726562 L 31.554688 44.726562 L 31.515625 38.59375 C 31.476562 31.757812 31.476562 31.828125 30.78125 30.476562 C 29.902344 28.789062 28.320312 27.519531 26.554688 27.101562 C 25.722656 26.90625 24.179688 26.914062 23.378906 27.109375 C 21.632812 27.546875 19.929688 28.953125 19.148438 30.59375 C 18.515625 31.945312 18.523438 31.757812 18.484375 38.554688 L 18.445312 44.726562 L 8.105469 44.726562 L 8.105469 34.226562 C 8.105469 22.773438 8.132812 23.417969 7.558594 22.960938 C 7.21875 22.6875 6.503906 22.6875 6.113281 22.949219 Z M 6.113281 22.949219 "/>
</g>
</svg>
