<svg width="1023" height="785" viewBox="0 0 1023 785" fill="none" xmlns="http://www.w3.org/2000/svg">
<path opacity="0.1" d="M174.802 115.404C169.322 122.054 167.212 131.404 164.852 140.194C145.852 211.034 99.0321 268.014 45.7121 308.714C23.1321 325.964 -4.35794 349.094 0.582064 379.984C3.24206 396.584 14.9121 408.804 23.5821 422.324C41.7721 450.634 47.6721 489.114 39.0021 523.004C29.1421 561.564 1.58207 597.544 10.1121 636.534C15.3721 660.534 33.2321 677.614 50.4021 692.294C77.1887 715.181 104.829 736.621 133.322 756.614C152.422 770.014 172.742 783.054 195.002 784.754C214.602 786.254 233.802 778.804 252.412 771.454C268.672 765.024 285.342 758.334 298.472 745.454C307.042 737.044 313.872 726.194 323.392 719.314C345.752 703.154 374.472 713.394 400.112 720.314C460.612 736.554 525.362 730.624 582.932 703.574C671.242 662.074 738.552 574.924 824.932 528.164C862.072 508.054 902.472 495.574 936.862 469.674C956.237 454.927 972.887 436.91 986.062 416.434C1012.06 376.324 1026.12 325.184 1022.06 275.124C1018 225.064 995.252 176.824 959.522 148.564C921.272 118.314 872.962 112.664 829.442 94.5039C784.502 75.7439 744.522 43.5039 700.012 23.3739C663.988 7.13828 624.786 -0.825304 585.282 0.0675901C545.778 0.960484 506.976 10.6872 471.722 28.5339C423.282 52.9839 374.182 110.154 320.232 114.454C281.802 117.484 204.812 78.9839 174.802 115.404Z" fill="#00BFA6"/>
</svg>
