<?xml version="1.0" encoding="UTF-8"?>
<svg xmlns="http://www.w3.org/2000/svg" xmlns:xlink="http://www.w3.org/1999/xlink" width="300px" height="318px" viewBox="0 0 300 318" version="1.1">
<defs>
<filter id="alpha" filterUnits="objectBoundingBox" x="0%" y="0%" width="100%" height="100%">
  <feColorMatrix type="matrix" in="SourceGraphic" values="0 0 0 0 1 0 0 0 0 1 0 0 0 0 1 0 0 0 1 0"/>
</filter>
<mask id="mask0">
  <g filter="url(#alpha)">
<rect x="0" y="0" width="300" height="318" style="fill:rgb(0%,0%,0%);fill-opacity:0.2;stroke:none;"/>
  </g>
</mask>
<clipPath id="clip1">
  <rect x="0" y="0" width="300" height="318"/>
</clipPath>
<g id="surface5" clip-path="url(#clip1)">
<path style=" stroke:none;fill-rule:nonzero;fill:rgb(0%,0%,0%);fill-opacity:1;" d="M 300.125 225.183594 C 300.050781 226.304688 299.984375 227.503906 299.925781 228.773438 C 291.625 219.835938 202.1875 259.761719 164.324219 283.75 C 163.691406 272.664062 163.285156 261.546875 163.136719 255.191406 C 163.089844 253.5 163.070312 252.140625 163.066406 251.214844 C 163.632812 247.175781 172.710938 242.59375 185.953125 238.242188 C 187.207031 237.832031 188.5 237.421875 189.828125 237.019531 C 193.40625 235.914062 197.234375 234.832031 201.230469 233.789062 C 211.40625 231.125 222.710938 228.679688 233.925781 226.664062 C 239.460938 225.671875 244.976562 224.78125 250.332031 224.027344 C 259.726562 222.695312 268.617188 221.773438 276.21875 221.394531 C 276.949219 221.359375 277.664062 221.324219 278.367188 221.304688 C 279.125 221.273438 279.863281 221.25 280.589844 221.234375 C 291.542969 220.996094 299.027344 222.136719 300.125 225.183594 Z M 300.125 225.183594 "/>
</g>
</defs>
<g id="surface1">
<path style=" stroke:none;fill-rule:nonzero;fill:rgb(24.705882%,23.921569%,33.72549%);fill-opacity:1;" d="M 1.261719 252.871094 C 5.890625 258.351562 10.898438 263.503906 16.246094 268.289062 L 218.507812 268.824219 C 223.855469 264.039062 228.863281 258.886719 233.492188 253.402344 Z M 1.261719 252.871094 "/>
<path style=" stroke:none;fill-rule:nonzero;fill:rgb(18.431373%,18.039216%,25.490196%);fill-opacity:1;" d="M 103.40625 201.300781 L 103.40625 255.933594 L 141.691406 255.933594 L 141.691406 201.300781 C 141.691406 200.496094 141.167969 199.78125 140.398438 199.542969 C 140.21875 199.484375 140.035156 199.457031 139.847656 199.460938 L 105.253906 199.460938 C 104.765625 199.457031 104.292969 199.652344 103.949219 199.996094 C 103.601562 200.34375 103.40625 200.8125 103.40625 201.300781 Z M 118.347656 220.074219 C 118.367188 217.832031 120.191406 216.027344 122.433594 216.027344 C 124.675781 216.027344 126.5 217.832031 126.519531 220.074219 L 126.519531 226.410156 C 126.507812 228.660156 124.683594 230.476562 122.433594 230.476562 C 120.183594 230.476562 118.359375 228.660156 118.347656 226.410156 Z M 118.347656 220.074219 "/>
<path style=" stroke:none;fill-rule:nonzero;fill:rgb(24.705882%,23.921569%,33.72549%);fill-opacity:1;" d="M 103.289062 254.183594 L 103.289062 259.453125 C 103.289062 260.019531 103.75 260.480469 104.316406 260.488281 L 140.78125 260.488281 C 141.347656 260.484375 141.808594 260.023438 141.808594 259.453125 L 141.808594 254.183594 Z M 103.289062 254.183594 "/>
<path style=" stroke:none;fill-rule:nonzero;fill:rgb(24.705882%,23.921569%,33.72549%);fill-opacity:1;" d="M 43.175781 118.996094 L 43.175781 218.742188 C 43.179688 221.386719 45.324219 223.535156 47.972656 223.535156 L 195.839844 223.535156 C 198.488281 223.535156 200.632812 221.386719 200.636719 218.742188 L 200.636719 118.996094 C 200.628906 116.351562 198.484375 114.210938 195.839844 114.207031 L 47.972656 114.207031 C 45.328125 114.210938 43.183594 116.351562 43.175781 118.996094 Z M 43.175781 118.996094 "/>
<path style=" stroke:none;fill-rule:nonzero;fill:rgb(0%,74.901961%,65.098039%);fill-opacity:1;" d="M 46.644531 120.234375 L 46.644531 217.511719 C 46.648438 218.925781 47.792969 220.070312 49.207031 220.074219 L 194.609375 220.074219 C 196.023438 220.070312 197.171875 218.925781 197.171875 217.511719 L 197.171875 120.234375 C 197.171875 118.820312 196.027344 117.671875 194.609375 117.667969 L 49.207031 117.667969 C 47.792969 117.671875 46.644531 118.820312 46.644531 120.234375 Z M 46.644531 120.234375 "/>
<path style=" stroke:none;fill-rule:nonzero;fill:rgb(18.431373%,18.039216%,25.490196%);fill-opacity:1;" d="M 76.292969 261.726562 C 76.59375 262.101562 77.050781 262.320312 77.53125 262.320312 L 164.035156 262.320312 C 164.511719 262.316406 164.96875 262.101562 165.269531 261.730469 C 165.570312 261.359375 165.6875 260.871094 165.589844 260.402344 L 164.246094 254.023438 C 164.132812 253.496094 163.761719 253.0625 163.257812 252.871094 C 163.078125 252.800781 162.886719 252.761719 162.691406 252.761719 L 78.867188 252.761719 C 78.675781 252.761719 78.484375 252.800781 78.300781 252.871094 C 77.796875 253.0625 77.425781 253.496094 77.3125 254.023438 L 75.96875 260.402344 C 75.871094 260.871094 75.992188 261.355469 76.292969 261.726562 Z M 76.292969 261.726562 "/>
<path style=" stroke:none;fill-rule:nonzero;fill:rgb(100%,100%,100%);fill-opacity:1;" d="M 78.867188 254.09375 C 78.839844 254.09375 78.816406 254.097656 78.789062 254.109375 C 78.703125 254.136719 78.640625 254.207031 78.617188 254.296875 L 77.273438 260.675781 C 77.257812 260.75 77.277344 260.828125 77.328125 260.886719 L 77.332031 260.894531 C 77.378906 260.953125 77.453125 260.988281 77.53125 260.988281 L 164.035156 260.988281 C 164.109375 260.988281 164.183594 260.953125 164.230469 260.894531 C 164.28125 260.835938 164.304688 260.757812 164.289062 260.683594 L 162.945312 254.300781 C 162.925781 254.214844 162.863281 254.144531 162.78125 254.113281 C 162.753906 254.101562 162.722656 254.09375 162.691406 254.09375 Z M 78.867188 254.09375 "/>
<path style=" stroke:none;fill-rule:nonzero;fill:rgb(24.705882%,23.921569%,33.72549%);fill-opacity:1;" d="M 53.882812 131.070312 L 189.933594 131.070312 C 190.230469 131.0625 190.464844 130.820312 190.464844 130.527344 C 190.464844 130.234375 190.230469 129.992188 189.933594 129.988281 L 53.882812 129.988281 C 53.589844 129.992188 53.355469 130.234375 53.355469 130.527344 C 53.355469 130.820312 53.589844 131.0625 53.882812 131.070312 Z M 53.882812 131.070312 "/>
<path style=" stroke:none;fill-rule:nonzero;fill:rgb(24.705882%,23.921569%,33.72549%);fill-opacity:1;" d="M 183.84375 123.984375 C 183.84375 122.195312 182.425781 120.746094 180.671875 120.746094 C 178.921875 120.746094 177.503906 122.195312 177.503906 123.984375 C 177.503906 125.773438 178.921875 127.226562 180.671875 127.226562 C 182.425781 127.226562 183.84375 125.773438 183.84375 123.984375 Z M 183.84375 123.984375 "/>
<path style=" stroke:none;fill-rule:nonzero;fill:rgb(24.705882%,23.921569%,33.72549%);fill-opacity:1;" d="M 172.890625 123.984375 C 172.890625 122.195312 171.472656 120.746094 169.71875 120.746094 C 167.96875 120.746094 166.550781 122.195312 166.550781 123.984375 C 166.550781 125.773438 167.96875 127.226562 169.71875 127.226562 C 171.472656 127.226562 172.890625 125.773438 172.890625 123.984375 Z M 172.890625 123.984375 "/>
<path style=" stroke:none;fill-rule:nonzero;fill:rgb(24.705882%,23.921569%,33.72549%);fill-opacity:1;" d="M 161.9375 123.984375 C 161.9375 122.195312 160.519531 120.746094 158.765625 120.746094 C 157.015625 120.746094 155.597656 122.195312 155.597656 123.984375 C 155.597656 125.773438 157.015625 127.226562 158.765625 127.226562 C 160.519531 127.226562 161.9375 125.773438 161.9375 123.984375 Z M 161.9375 123.984375 "/>
<path style=" stroke:none;fill-rule:nonzero;fill:rgb(24.705882%,23.921569%,33.72549%);fill-opacity:1;" d="M 59.898438 122.136719 C 59.898438 122.460938 60.15625 122.722656 60.480469 122.722656 L 68.257812 122.722656 C 68.578125 122.714844 68.835938 122.453125 68.835938 122.136719 C 68.835938 121.816406 68.578125 121.554688 68.257812 121.546875 L 60.480469 121.546875 C 60.15625 121.550781 59.894531 121.816406 59.898438 122.136719 Z M 59.898438 122.136719 "/>
<path style=" stroke:none;fill-rule:nonzero;fill:rgb(24.705882%,23.921569%,33.72549%);fill-opacity:1;" d="M 59.898438 124.347656 C 59.898438 124.671875 60.15625 124.933594 60.480469 124.933594 L 68.257812 124.933594 C 68.578125 124.925781 68.835938 124.664062 68.835938 124.347656 C 68.835938 124.027344 68.578125 123.765625 68.257812 123.757812 L 60.480469 123.757812 C 60.15625 123.761719 59.894531 124.023438 59.898438 124.347656 Z M 59.898438 124.347656 "/>
<path style=" stroke:none;fill-rule:nonzero;fill:rgb(24.705882%,23.921569%,33.72549%);fill-opacity:1;" d="M 59.898438 126.554688 C 59.894531 126.875 60.15625 127.140625 60.480469 127.144531 L 68.257812 127.144531 C 68.578125 127.136719 68.835938 126.875 68.835938 126.554688 C 68.835938 126.238281 68.578125 125.976562 68.257812 125.96875 L 60.480469 125.96875 C 60.15625 125.96875 59.898438 126.230469 59.898438 126.554688 Z M 59.898438 126.554688 "/>
<path style=" stroke:none;fill-rule:nonzero;fill:rgb(24.705882%,23.921569%,33.72549%);fill-opacity:1;" d="M 169.664062 147.578125 L 74.15625 147.578125 C 71.542969 147.582031 69.425781 149.699219 69.421875 152.308594 L 69.421875 198.777344 C 69.425781 201.386719 71.542969 203.503906 74.15625 203.507812 L 169.664062 203.507812 C 172.277344 203.503906 174.394531 201.386719 174.394531 198.777344 L 174.394531 152.308594 C 174.394531 149.699219 172.277344 147.582031 169.664062 147.578125 Z M 173.328125 152.308594 L 173.328125 165.867188 L 139.761719 165.867188 L 139.761719 148.644531 L 169.664062 148.644531 C 171.6875 148.644531 173.328125 150.285156 173.328125 152.308594 Z M 105.125 184.15625 L 105.125 166.929688 L 138.695312 166.929688 L 138.695312 184.15625 Z M 138.695312 185.21875 L 138.695312 202.441406 L 105.125 202.441406 L 105.125 185.21875 Z M 104.058594 184.15625 L 70.488281 184.15625 L 70.488281 166.929688 L 104.058594 166.929688 Z M 105.125 165.867188 L 105.125 148.644531 L 138.695312 148.644531 L 138.695312 165.867188 Z M 139.761719 166.929688 L 173.328125 166.929688 L 173.328125 184.15625 L 139.761719 184.15625 Z M 74.15625 148.644531 L 104.058594 148.644531 L 104.058594 165.867188 L 70.488281 165.867188 L 70.488281 152.308594 C 70.492188 150.285156 72.128906 148.644531 74.15625 148.644531 Z M 70.488281 198.777344 L 70.488281 185.21875 L 104.058594 185.21875 L 104.058594 202.441406 L 74.15625 202.441406 C 72.128906 202.441406 70.492188 200.800781 70.488281 198.777344 Z M 169.664062 202.441406 L 139.761719 202.441406 L 139.761719 185.21875 L 173.328125 185.21875 L 173.328125 198.777344 C 173.328125 200.800781 171.6875 202.441406 169.664062 202.441406 Z M 169.664062 202.441406 "/>
<path style=" stroke:none;fill-rule:nonzero;fill:rgb(100%,100%,100%);fill-opacity:1;" d="M 117.054688 159.375 C 116.207031 157.972656 115.203125 156.476562 113.628906 156.019531 C 111.808594 155.492188 109.9375 156.542969 108.351562 157.582031 C 103.605469 160.6875 99.035156 164.054688 94.660156 167.667969 L 94.664062 167.722656 L 104.878906 167.015625 C 107.339844 166.847656 109.886719 166.652344 112.0625 165.492188 C 112.886719 165.050781 113.691406 164.460938 114.625 164.417969 C 115.785156 164.367188 116.800781 165.179688 117.597656 166.023438 C 122.304688 171.039062 123.667969 178.703125 128.949219 183.105469 C 125.617188 174.894531 121.640625 166.960938 117.054688 159.375 Z M 117.054688 159.375 "/>
<path style=" stroke:none;fill-rule:nonzero;fill:rgb(100%,100%,100%);fill-opacity:1;" d="M 146 201.886719 C 145.476562 201.230469 145.265625 201.078125 144.75 200.414062 C 140.570312 195.007812 136.636719 189.417969 132.957031 183.644531 C 130.460938 179.726562 128.082031 175.730469 125.832031 171.660156 C 124.761719 169.722656 123.71875 167.773438 122.703125 165.808594 C 121.917969 164.28125 121.148438 162.75 120.398438 161.207031 C 120.183594 160.765625 119.976562 160.324219 119.769531 159.878906 C 119.277344 158.835938 118.796875 157.789062 118.28125 156.761719 C 117.75 155.523438 116.933594 154.433594 115.902344 153.570312 C 115.410156 153.195312 114.824219 152.972656 114.207031 152.917969 C 113.34375 152.925781 112.496094 153.167969 111.757812 153.621094 C 106.179688 156.554688 100.96875 160.144531 96.246094 164.3125 C 91.511719 168.46875 87.28125 173.160156 83.640625 178.300781 C 83.53125 178.457031 83.265625 178.304688 83.378906 178.144531 C 83.824219 177.519531 84.273438 176.902344 84.734375 176.289062 C 90.457031 168.679688 97.476562 162.136719 105.464844 156.957031 C 106.8125 156.085938 108.179688 155.257812 109.574219 154.46875 C 110.277344 154.070312 110.984375 153.675781 111.703125 153.308594 C 112.390625 152.90625 113.164062 152.664062 113.957031 152.609375 C 116.695312 152.566406 118.113281 155.664062 119.085938 157.75 C 119.394531 158.40625 119.703125 159.0625 120.015625 159.714844 C 121.199219 162.191406 122.429688 164.644531 123.707031 167.074219 C 124.492188 168.574219 125.296875 170.066406 126.121094 171.550781 C 128.675781 176.167969 131.394531 180.695312 134.273438 185.125 C 138.085938 190.996094 141.867188 196.183594 146.214844 201.671875 C 146.332031 201.824219 146.117188 202.042969 146 201.886719 Z M 146 201.886719 "/>
<path style=" stroke:none;fill-rule:nonzero;fill:rgb(100%,100%,100%);fill-opacity:1;" d="M 95.972656 162.785156 C 95.816406 162.605469 95.65625 162.429688 95.496094 162.253906 C 94.234375 160.855469 92.878906 159.476562 91.148438 158.675781 C 90.320312 158.285156 89.417969 158.074219 88.503906 158.066406 C 87.558594 158.089844 86.625 158.292969 85.757812 158.664062 C 85.34375 158.828125 84.941406 159.015625 84.542969 159.214844 C 84.085938 159.445312 83.640625 159.6875 83.195312 159.933594 C 82.359375 160.394531 81.535156 160.878906 80.722656 161.378906 C 79.105469 162.378906 77.539062 163.457031 76.019531 164.609375 C 75.234375 165.207031 74.464844 165.824219 73.710938 166.460938 C 73.011719 167.050781 72.324219 167.65625 71.652344 168.28125 C 71.507812 168.414062 71.292969 168.199219 71.4375 168.066406 C 71.613281 167.902344 71.792969 167.738281 71.972656 167.574219 C 72.480469 167.117188 72.992188 166.667969 73.515625 166.226562 C 74.46875 165.425781 75.449219 164.652344 76.449219 163.910156 C 78.007812 162.753906 79.621094 161.679688 81.289062 160.679688 C 82.121094 160.183594 82.964844 159.703125 83.820312 159.25 C 84.078125 159.109375 84.339844 158.976562 84.605469 158.847656 C 85.207031 158.546875 85.828125 158.292969 86.46875 158.089844 C 87.378906 157.796875 88.335938 157.703125 89.285156 157.8125 C 90.199219 157.945312 91.082031 158.25 91.882812 158.710938 C 93.585938 159.664062 94.90625 161.132812 96.1875 162.566406 C 96.320312 162.714844 96.105469 162.929688 95.972656 162.785156 Z M 95.972656 162.785156 "/>
<path style=" stroke:none;fill-rule:nonzero;fill:rgb(100%,100%,100%);fill-opacity:1;" d="M 130.847656 177.246094 L 134.925781 175.753906 L 136.949219 175.015625 C 137.605469 174.75 138.273438 174.519531 138.949219 174.324219 C 139.542969 174.15625 140.171875 174.164062 140.757812 174.347656 C 141.285156 174.542969 141.765625 174.839844 142.171875 175.222656 C 142.585938 175.605469 142.972656 176.019531 143.328125 176.460938 C 143.769531 176.988281 144.203125 177.523438 144.640625 178.058594 C 146.441406 180.257812 148.230469 182.46875 150.007812 184.691406 C 151.785156 186.910156 153.550781 189.140625 155.300781 191.378906 C 157.058594 193.625 158.804688 195.878906 160.539062 198.140625 C 160.75 198.417969 160.964844 198.695312 161.175781 198.976562 C 161.292969 199.128906 161.558594 198.976562 161.4375 198.820312 C 159.691406 196.535156 157.933594 194.257812 156.164062 191.992188 C 154.386719 189.71875 152.601562 187.453125 150.800781 185.199219 C 149 182.945312 147.191406 180.703125 145.367188 178.46875 C 144.910156 177.910156 144.457031 177.355469 144 176.800781 C 143.617188 176.332031 143.238281 175.859375 142.816406 175.421875 C 142.089844 174.546875 141.046875 174 139.914062 173.894531 C 139.238281 173.917969 138.570312 174.066406 137.945312 174.328125 C 137.261719 174.574219 136.582031 174.828125 135.902344 175.074219 L 131.792969 176.578125 L 130.765625 176.953125 C 130.585938 177.019531 130.664062 177.3125 130.847656 177.246094 Z M 130.847656 177.246094 "/>
<path style=" stroke:none;fill-rule:nonzero;fill:rgb(100%,100%,100%);fill-opacity:1;" d="M 90.609375 160.433594 C 88.476562 159.382812 85.941406 159.5625 83.980469 160.90625 C 87.613281 161.535156 91.203125 162.371094 94.738281 163.417969 C 93.273438 162.558594 92.125 161.210938 90.609375 160.433594 Z M 90.609375 160.433594 "/>
<path style=" stroke:none;fill-rule:nonzero;fill:rgb(100%,100%,100%);fill-opacity:1;" d="M 83.957031 160.902344 L 83.558594 161.226562 C 83.695312 161.113281 83.835938 161.007812 83.980469 160.90625 Z M 83.957031 160.902344 "/>
<path style=" stroke:none;fill-rule:nonzero;fill:rgb(100%,100%,100%);fill-opacity:1;" d="M 142.015625 177.261719 C 141.660156 176.734375 141.164062 176.320312 140.582031 176.0625 L 140.019531 176.085938 C 144.289062 183.621094 150.050781 190.210938 156.957031 195.441406 Z M 142.015625 177.261719 "/>
<path style=" stroke:none;fill-rule:nonzero;fill:rgb(100%,100%,100%);fill-opacity:1;" d="M 142.625 165.777344 C 142.625 167.5625 141.175781 169.007812 139.394531 169.007812 C 137.613281 169.007812 136.164062 167.5625 136.164062 165.777344 C 136.164062 163.996094 137.613281 162.550781 139.394531 162.550781 C 141.175781 162.550781 142.625 163.996094 142.625 165.777344 Z M 142.625 165.777344 "/>
<path style=" stroke:none;fill-rule:nonzero;fill:rgb(24.705882%,23.921569%,33.72549%);fill-opacity:1;" d="M 186.246094 201.644531 C 187.570312 201.640625 188.640625 200.570312 188.644531 199.246094 L 188.644531 149.707031 C 188.644531 148.386719 187.570312 147.3125 186.246094 147.3125 C 184.921875 147.3125 183.847656 148.386719 183.847656 149.707031 L 183.847656 199.246094 C 183.851562 200.570312 184.921875 201.640625 186.246094 201.644531 Z M 186.246094 201.644531 "/>
<path style=" stroke:none;fill-rule:nonzero;fill:rgb(18.431373%,18.039216%,25.490196%);fill-opacity:1;" d="M 186.246094 201.644531 C 187.570312 201.640625 188.640625 200.570312 188.644531 199.246094 L 188.644531 188.742188 C 188.082031 187.980469 187.191406 187.527344 186.246094 187.527344 C 185.300781 187.527344 184.410156 187.980469 183.847656 188.742188 L 183.847656 199.246094 C 183.851562 200.570312 184.921875 201.640625 186.246094 201.644531 Z M 186.246094 201.644531 "/>
<path style=" stroke:none;fill-rule:nonzero;fill:rgb(0%,74.901961%,65.098039%);fill-opacity:1;" d="M 186.246094 191.523438 C 187.667969 191.519531 188.824219 190.367188 188.824219 188.945312 L 188.824219 177.648438 C 188.222656 176.828125 187.265625 176.34375 186.246094 176.34375 C 185.226562 176.34375 184.269531 176.828125 183.667969 177.648438 L 183.667969 188.945312 C 183.667969 190.367188 184.824219 191.519531 186.246094 191.523438 Z M 186.246094 191.523438 "/>
<path style=" stroke:none;fill-rule:nonzero;fill:rgb(24.705882%,23.921569%,33.72549%);fill-opacity:1;" d="M 186.246094 189.46875 C 187.285156 189.46875 188.125 188.625 188.128906 187.589844 L 188.128906 179.347656 C 187.6875 178.75 186.988281 178.394531 186.246094 178.394531 C 185.503906 178.394531 184.804688 178.75 184.363281 179.347656 L 184.363281 187.589844 C 184.367188 188.625 185.207031 189.46875 186.246094 189.46875 Z M 186.246094 189.46875 "/>
<path style=" stroke:none;fill-rule:nonzero;fill:rgb(0%,74.901961%,65.098039%);fill-opacity:1;" d="M 112.273438 257.296875 C 111.394531 256.511719 111.320312 255.164062 112.105469 254.285156 L 133.054688 230.855469 C 133.839844 229.976562 135.1875 229.902344 136.0625 230.683594 C 136.941406 231.46875 137.015625 232.816406 136.230469 233.695312 L 115.28125 257.125 C 114.496094 258.003906 113.152344 258.078125 112.273438 257.296875 Z M 112.273438 257.296875 "/>
<path style=" stroke:none;fill-rule:nonzero;fill:rgb(90.196078%,90.196078%,90.196078%);fill-opacity:1;" d="M 286.066406 295.875 C 286.066406 299.757812 285.148438 302.730469 285.261719 305.109375 C 278.976562 307.851562 272.515625 310.167969 265.917969 312.042969 C 265.171875 312.257812 264.425781 312.457031 263.675781 312.660156 C 259.609375 300.21875 255.539062 288.824219 253.933594 287.613281 C 250.261719 284.859375 248.425781 296.253906 248.425781 293.5 C 248.425781 290.746094 250.261719 290.746094 245.675781 287.078125 C 241.082031 283.40625 243.835938 266.890625 243.835938 266.890625 L 237.410156 250.371094 L 244.597656 224.027344 L 253.933594 189.800781 L 263.117188 189.800781 C 263.117188 189.800781 263.386719 190 263.839844 190.367188 C 266.136719 192.242188 273.0625 198.503906 272.296875 205.402344 C 272.066406 207.460938 272.578125 213.4375 273.46875 221.394531 C 276.175781 245.421875 282.394531 271.542969 282.394531 278.4375 C 282.394531 287.613281 286.066406 290.367188 286.066406 295.875 Z M 286.066406 295.875 "/>
<path style=" stroke:none;fill-rule:nonzero;fill:rgb(24.705882%,23.921569%,33.72549%);fill-opacity:1;" d="M 278.367188 221.304688 C 278.355469 221.277344 278.351562 221.257812 278.339844 221.234375 C 278.132812 220.679688 277.894531 220.140625 277.621094 219.617188 C 276.070312 216.703125 277.710938 212.226562 275.964844 207.285156 C 273.140625 199.273438 269.699219 194.546875 264.652344 190.3125 C 264.5 190.1875 264.351562 190.0625 264.199219 189.9375 L 264.191406 189.929688 C 260.824219 187.164062 256.765625 184.582031 251.722656 181.363281 C 250.675781 180.695312 249.578125 179.996094 248.4375 179.261719 C 246.964844 178.316406 247.046875 175.175781 247.128906 171.851562 C 247.226562 168.160156 247.328125 164.335938 245.515625 161.949219 L 245.398438 161.796875 L 245.210938 161.746094 C 239 160.519531 232.664062 160.03125 226.339844 160.292969 L 226.332031 160.292969 C 223.648438 160.394531 220.980469 160.785156 218.378906 161.460938 C 218.1875 161.511719 217.992188 161.566406 217.808594 161.628906 C 217.664062 161.667969 217.519531 161.714844 217.375 161.761719 L 217.257812 161.804688 L 217.167969 161.890625 C 215.414062 163.644531 215.011719 166.785156 214.816406 170.0625 L 214.816406 170.066406 C 214.78125 170.664062 214.75 171.261719 214.722656 171.855469 C 214.574219 175.042969 214.433594 178.050781 213.261719 179.355469 C 210.648438 182.316406 207.488281 184.75 203.953125 186.515625 C 198.449219 189.234375 194.09375 189.148438 194.03125 189.148438 L 193.523438 189.132812 L 193.476562 189.632812 C 189.820312 196.59375 189.960938 214.554688 189.847656 233.789062 C 189.84375 234.859375 189.835938 235.9375 189.828125 237.019531 C 189.761719 245.976562 189.59375 255.089844 188.921875 263.394531 C 188.628906 266.964844 188.25 270.378906 187.742188 273.570312 C 185.28125 289.105469 174.128906 276.207031 168.796875 286.542969 C 168.96875 287.5625 169.265625 288.554688 169.675781 289.5 C 170.285156 289.863281 170.914062 290.214844 171.539062 290.566406 C 174.304688 292.105469 177.121094 293.542969 179.992188 294.875 C 180.148438 294.949219 180.308594 295.023438 180.46875 295.09375 C 185.730469 297.527344 191.15625 299.597656 196.699219 301.285156 C 197.78125 301.613281 198.863281 301.929688 199.957031 302.226562 C 209.621094 304.894531 219.570312 306.382812 229.589844 306.664062 C 229.628906 306.660156 229.671875 306.65625 229.710938 306.65625 C 241.5625 306.332031 253.335938 304.632812 264.792969 301.601562 C 264.953125 301.5625 265.113281 301.519531 265.273438 301.476562 C 266.027344 301.273438 266.773438 301.070312 267.519531 300.859375 C 274.113281 298.980469 280.574219 296.664062 286.859375 293.921875 C 286.867188 294.15625 286.890625 294.390625 286.929688 294.621094 C 286.933594 294.695312 286.945312 294.769531 286.960938 294.84375 C 286.972656 294.757812 286.984375 294.671875 286.988281 294.589844 C 287.019531 294.335938 287.046875 294.082031 287.074219 293.828125 C 290.335938 262.035156 283.5625 235.046875 278.367188 221.304688 Z M 278.367188 221.304688 "/>
<path style=" stroke:none;fill-rule:nonzero;fill:rgb(100%,71.372549%,71.372549%);fill-opacity:1;" d="M 205.132812 143.394531 C 211.832031 155.636719 226.132812 161.601562 239.550781 157.742188 C 252.96875 153.886719 261.917969 141.242188 261.085938 127.308594 C 260.253906 113.378906 249.867188 101.886719 236.085938 99.648438 C 222.304688 97.414062 208.8125 105.035156 203.617188 117.988281 C 203.480469 118.328125 203.359375 118.671875 203.234375 119.027344 C 200.351562 127.046875 201.042969 135.917969 205.132812 143.394531 Z M 205.132812 143.394531 "/>
<path style=" stroke:none;fill-rule:nonzero;fill:rgb(82.745098%,67.45098%,41.960784%);fill-opacity:1;" d="M 200.847656 119.027344 C 202.128906 115.4375 201.570312 117.304688 202.867188 113.730469 C 202.019531 116.894531 203.359375 118.671875 203.234375 119.027344 L 238.753906 119.027344 L 238.753906 98.386719 C 228.347656 94.261719 218.175781 90.753906 212.03125 98.386719 C 200.625 98.386719 191.382812 107.625 191.382812 119.027344 Z M 200.847656 119.027344 "/>
<path style=" stroke:none;fill-rule:nonzero;fill:rgb(82.745098%,67.45098%,41.960784%);fill-opacity:1;" d="M 213.4375 176.402344 C 213.464844 176.019531 213.503906 175.621094 213.558594 175.242188 C 213.941406 172.429688 214.898438 169.726562 215.867188 167.050781 C 216.890625 164.167969 217.929688 161.277344 218.96875 158.394531 C 217.632812 163.625 218.039062 169.144531 220.128906 174.121094 C 226.125 169.453125 222.339844 158.777344 230.179688 158.777344 C 249.023438 158.777344 268.414062 143.503906 268.414062 124.648438 C 268.414062 105.8125 260.332031 91.722656 241.484375 91.722656 C 222.628906 91.722656 207.332031 100.351562 206.964844 119.191406 C 230.179688 124.648438 209.054688 174.488281 213.4375 176.402344 Z M 213.4375 176.402344 "/>
<path style=" stroke:none;fill-rule:nonzero;fill:rgb(82.745098%,67.45098%,41.960784%);fill-opacity:1;" d="M 287.910156 99.921875 C 287.910156 111.984375 278.128906 121.761719 266.0625 121.761719 C 253.992188 121.761719 244.210938 111.984375 244.210938 99.921875 C 244.210938 87.859375 253.992188 78.078125 266.0625 78.078125 C 278.128906 78.078125 287.910156 87.859375 287.910156 99.921875 Z M 287.910156 99.921875 "/>
<path style=" stroke:none;fill-rule:nonzero;fill:rgb(18.431373%,18.039216%,25.490196%);fill-opacity:1;" d="M 300.125 225.183594 C 300.050781 226.304688 299.984375 227.503906 299.925781 228.773438 C 298.796875 252.683594 299.773438 284.871094 292.15625 302.339844 C 290.453125 303.269531 288.730469 304.160156 286.988281 305.011719 C 286.917969 305.042969 286.855469 305.078125 286.796875 305.109375 C 286.328125 305.335938 285.859375 305.5625 285.390625 305.773438 C 285.371094 305.789062 285.351562 305.800781 285.332031 305.804688 C 280.183594 308.238281 274.875 310.320312 269.445312 312.042969 C 268.78125 312.257812 268.109375 312.457031 267.4375 312.660156 C 267.292969 312.703125 267.148438 312.746094 267.007812 312.789062 C 256.777344 315.8125 246.207031 317.511719 235.546875 317.84375 C 234.992188 317.859375 234.449219 317.871094 233.921875 317.882812 C 233.734375 317.886719 233.554688 317.890625 233.371094 317.890625 C 232.777344 317.898438 232.183594 317.902344 231.585938 317.902344 C 230.382812 317.902344 229.183594 317.886719 227.992188 317.847656 C 217.96875 317.570312 208.019531 316.078125 198.359375 313.414062 C 197.265625 313.113281 196.183594 312.800781 195.101562 312.46875 C 189.554688 310.78125 184.132812 308.714844 178.871094 306.28125 C 178.710938 306.210938 178.550781 306.136719 178.390625 306.0625 C 175.523438 304.730469 172.707031 303.292969 169.941406 301.753906 C 169.316406 301.402344 168.6875 301.050781 168.074219 300.6875 C 167.667969 299.738281 167.371094 298.746094 167.195312 297.730469 C 165.988281 291.917969 165.015625 295.839844 164.324219 283.75 C 163.691406 272.664062 163.285156 261.546875 163.136719 255.191406 C 163.089844 253.5 163.070312 252.140625 163.066406 251.214844 C 163.632812 247.175781 172.710938 242.59375 185.953125 238.242188 C 187.207031 237.832031 188.5 237.421875 189.828125 237.019531 C 193.40625 235.914062 197.234375 234.832031 201.230469 233.789062 C 211.40625 231.125 222.710938 228.679688 233.925781 226.664062 C 239.464844 225.671875 244.976562 224.78125 250.332031 224.027344 C 259.726562 222.695312 268.617188 221.773438 276.21875 221.394531 C 276.949219 221.359375 277.664062 221.324219 278.367188 221.304688 C 279.125 221.273438 279.863281 221.25 280.589844 221.234375 C 291.542969 220.996094 299.027344 222.136719 300.125 225.183594 Z M 300.125 225.183594 "/>
<use xlink:href="#surface5" mask="url(#mask0)"/>
<path style=" stroke:none;fill-rule:nonzero;fill:rgb(100%,71.372549%,71.372549%);fill-opacity:1;" d="M 118.242188 252.886719 C 119.941406 255.027344 122.5 256.304688 125.230469 256.378906 C 127.960938 256.449219 130.582031 255.308594 132.390625 253.261719 L 162.738281 265.722656 L 159.464844 248.996094 L 131.148438 239.730469 C 127.425781 236.859375 122.140625 237.222656 118.847656 240.578125 C 115.558594 243.933594 115.296875 249.222656 118.242188 252.886719 Z M 118.242188 252.886719 "/>
<path style=" stroke:none;fill-rule:nonzero;fill:rgb(24.705882%,23.921569%,33.72549%);fill-opacity:1;" d="M 219.183594 183.246094 L 219.019531 183.230469 L 201.320312 184.511719 C 196.777344 184.84375 192.59375 187.109375 189.832031 190.730469 C 189.199219 191.5625 188.648438 192.453125 188.195312 193.394531 L 188.191406 193.398438 C 186.664062 196.515625 186.203125 200.050781 186.882812 203.457031 L 195.210938 245.378906 L 175.167969 243.558594 L 167.847656 244.808594 L 159.214844 241.328125 L 141.496094 241.628906 L 141.085938 242.984375 L 137.367188 255.304688 L 137.078125 256.269531 L 164.132812 273.3125 L 171.976562 270.929688 L 175.671875 273.765625 L 175.851562 273.769531 L 183.179688 273.914062 L 214.429688 274.527344 L 222.972656 259.398438 L 224.304688 257.027344 C 234.226562 234.8125 236.675781 219.300781 235.898438 208.617188 C 235.492188 202.972656 234.1875 198.679688 232.605469 195.445312 C 227.71875 185.453125 219.527344 183.332031 219.183594 183.246094 Z M 219.183594 183.246094 "/>
<path style=" stroke:none;fill-rule:nonzero;fill:rgb(0%,74.901961%,65.098039%);fill-opacity:1;" d="M 268.824219 119.3125 C 260.402344 117.421875 253.535156 111.355469 250.613281 103.234375 C 249.332031 99.519531 248.847656 95.4375 246.699219 92.128906 C 249.976562 87.628906 252.605469 82.691406 254.507812 77.457031 C 255.242188 75.433594 256.964844 71.757812 254.042969 70.640625 C 251.714844 69.753906 249.070312 71.898438 247.6875 73.585938 C 246.640625 74.867188 245.886719 76.367188 245.488281 77.972656 C 245.011719 75.871094 244.535156 73.769531 244.058594 71.667969 C 243.933594 71.25 243.5 71.003906 243.074219 71.109375 C 239.171875 71.773438 236.34375 75.386719 235.851562 79.191406 C 235.585938 81.148438 236.03125 83.136719 237.109375 84.792969 C 238.359375 86.699219 240.195312 88.066406 241.941406 89.488281 C 243.800781 90.996094 245.375 92.605469 246.375 94.816406 C 247.410156 97.109375 247.878906 99.625 248.566406 102.035156 C 251.230469 111.464844 258.839844 118.6875 268.398438 120.851562 C 269.402344 121.074219 269.832031 119.53125 268.824219 119.3125 Z M 246.792969 81.113281 C 246.667969 79.105469 247.199219 77.109375 248.304688 75.433594 C 248.859375 74.578125 249.550781 73.828125 250.359375 73.207031 C 251.121094 72.625 252.246094 71.855469 253.257812 72.066406 C 254.566406 72.34375 254.039062 73.808594 253.761719 74.6875 C 253.394531 75.851562 252.992188 77 252.550781 78.140625 C 251.695312 80.347656 250.699219 82.503906 249.570312 84.589844 C 248.988281 85.671875 248.363281 86.734375 247.707031 87.78125 C 247.257812 85.792969 246.808594 83.808594 246.359375 81.820312 C 246.652344 81.714844 246.832031 81.421875 246.792969 81.113281 Z M 237.457031 81.429688 C 236.917969 77.6875 239.113281 74.085938 242.6875 72.847656 C 243.957031 78.449219 245.226562 84.050781 246.496094 89.648438 C 246.234375 90.035156 245.960938 90.414062 245.691406 90.796875 C 245.621094 90.714844 245.554688 90.628906 245.480469 90.550781 C 242.820312 87.65625 238.179688 85.679688 237.457031 81.429688 Z M 237.457031 81.429688 "/>
</g>
</svg>
