<svg width="1023" height="785" viewBox="0 0 1023 785" fill="none" xmlns="http://www.w3.org/2000/svg">
<path opacity="0.1" d="M174.802 115.404C169.322 122.054 167.212 131.404 164.852 140.194C145.852 211.034 99.0321 268.014 45.7121 308.714C23.1321 325.964 -4.35794 349.094 0.582064 379.984C3.24206 396.584 14.9121 408.804 23.5821 422.324C41.7721 450.634 47.6721 489.114 39.0021 523.004C29.1421 561.564 1.58207 597.544 10.1121 636.534C15.3721 660.534 33.2321 677.614 50.4021 692.294C77.1887 715.181 104.829 736.621 133.322 756.614C152.422 770.014 172.742 783.054 195.002 784.754C214.602 786.254 233.802 778.804 252.412 771.454C268.672 765.024 285.342 758.334 298.472 745.454C307.042 737.044 313.872 726.194 323.392 719.314C345.752 703.154 374.472 713.394 400.112 720.314C460.612 736.554 525.362 730.624 582.932 703.574C671.242 662.074 738.552 574.924 824.932 528.164C862.072 508.054 902.472 495.574 936.862 469.674C956.237 454.927 972.887 436.91 986.062 416.434C1012.06 376.324 1026.12 325.184 1022.06 275.124C1018 225.064 995.252 176.824 959.522 148.564C921.272 118.314 872.962 112.664 829.442 94.5039C784.502 75.7439 744.522 43.5039 700.012 23.3739C663.988 7.13828 624.786 -0.825304 585.282 0.0675901C545.778 0.960484 506.976 10.6872 471.722 28.5339C423.282 52.9839 374.182 110.154 320.232 114.454C281.802 117.484 204.812 78.9839 174.802 115.404Z" fill="#00BFA6"/>
<path d="M717.854 30.9455C722.185 29.9619 735.608 25.9483 739.388 33.502C743.167 41.0557 748.837 44.1242 751.199 44.7143C753.955 46.288 759.467 51.4418 759.467 59.4676C759.467 69.4998 760.649 71.2702 764.192 77.7616C767.736 84.253 768.917 89.5642 768.326 93.105C767.736 96.6457 765.373 101.367 768.326 110.219C771.279 119.071 772.46 117.89 771.87 124.382C771.397 129.575 769.31 133.627 768.326 135.004C768.129 138.938 768.562 147.279 771.87 149.167C776.004 151.528 776.594 160.38 775.413 162.74C774.232 165.101 772.46 173.363 775.413 178.674C778.366 183.985 778.957 186.936 775.413 193.427C772.578 198.62 766.161 198.596 768.326 200.957V207H751.199H742.931H735.844L739.388 128.513" stroke="#D3AC6B" stroke-width="20"/>
<path d="M718.048 32.5406C714.059 31.1353 701.795 25.8224 697.437 32.9374C693.078 40.0523 687.402 42.5322 685.109 42.8827C682.341 44.1695 676.596 48.7327 675.759 56.6912C674.714 66.6393 673.413 68.2775 669.389 74.3626C665.364 80.4477 663.695 85.5971 663.884 89.1668C664.073 92.7365 665.813 97.6526 662.1 106.137C658.388 114.622 657.395 113.334 657.276 119.829C657.181 125.026 658.73 129.251 659.517 130.715C659.293 134.635 658.014 142.863 654.693 144.407C650.541 146.337 649.061 155.056 649.93 157.514C650.8 159.972 651.613 168.341 648.27 173.314C644.926 178.288 644.061 181.155 646.732 187.944C648.869 193.375 654.935 193.988 652.643 196.114L657.276 203.807L668.195 203.807L676.006 204.628L682.702 205.332L687.534 127.151" stroke="#D3AC6B" stroke-width="22"/>
<path d="M702.686 20.0845C702.686 20.0845 671.366 24.7118 669.347 88.2139C667.666 141.128 664.224 170.622 680.664 181.659C686.543 185.605 693.451 185.949 699.73 183.254L766.848 154.359C766.848 154.359 767.86 59.1097 744.62 35.9581C721.38 12.8066 702.692 20.0845 702.692 20.0845H702.686Z" fill="#D3AC6B"/>
<path d="M691.504 347.7C691.504 347.7 644.694 326.12 628.674 289.15C622.055 273.6 610.57 260.617 595.944 252.15C588.969 248.185 581.645 244.868 574.064 242.24" stroke="#535461" stroke-width="2" stroke-miterlimit="10"/>
<path d="M563.814 219.01C568.374 223.01 574.384 242.82 574.384 242.82C574.384 242.82 553.934 239.52 549.384 235.53C548.176 234.621 547.169 233.472 546.424 232.155C545.68 230.839 545.215 229.383 545.059 227.879C544.903 226.375 545.058 224.855 545.516 223.414C545.973 221.973 546.723 220.641 547.718 219.503C548.713 218.364 549.932 217.443 551.299 216.797C552.667 216.151 554.152 215.793 555.664 215.747C557.175 215.701 558.68 215.967 560.084 216.528C561.488 217.09 562.761 217.935 563.824 219.01H563.814Z" fill="#00BFA6"/>
<path d="M601.024 227.44C602.684 233.27 596.954 253.18 596.954 253.18C596.954 253.18 581.584 239.29 579.954 233.46C579.431 232.039 579.206 230.524 579.295 229.012C579.384 227.5 579.784 226.022 580.47 224.672C581.157 223.321 582.115 222.127 583.285 221.164C584.454 220.201 585.81 219.491 587.267 219.076C588.724 218.662 590.251 218.553 591.753 218.756C593.254 218.96 594.697 219.471 595.991 220.258C597.286 221.045 598.403 222.091 599.275 223.33C600.146 224.57 600.752 225.976 601.054 227.46L601.024 227.44Z" fill="#00BFA6"/>
<path d="M643.694 265.79C642.234 271.66 627.234 285.95 627.234 285.95C627.234 285.95 620.974 266.2 622.484 260.33C623.359 257.682 625.206 255.464 627.654 254.126C630.101 252.789 632.965 252.43 635.666 253.124C638.367 253.818 640.704 255.512 642.204 257.863C643.704 260.215 644.254 263.048 643.744 265.79H643.694Z" fill="#00BFA6"/>
<path d="M669.444 302.07C668.954 308.07 656.584 324.73 656.584 324.73C656.584 324.73 647.074 306.32 647.584 300.28C648.01 297.532 649.46 295.048 651.643 293.326C653.826 291.604 656.581 290.773 659.352 291C662.123 291.226 664.706 292.494 666.58 294.548C668.454 296.602 669.481 299.29 669.454 302.07H669.444Z" fill="#00BFA6"/>
<path d="M582.684 271.3C588.684 270.81 605.344 258.44 605.344 258.44C605.344 258.44 586.934 248.94 580.894 249.44C579.383 249.455 577.891 249.781 576.512 250.397C575.132 251.014 573.895 251.909 572.876 253.025C571.857 254.141 571.08 255.455 570.591 256.885C570.103 258.315 569.915 259.831 570.038 261.337C570.161 262.843 570.594 264.307 571.308 265.639C572.022 266.971 573.003 268.141 574.19 269.077C575.376 270.012 576.743 270.694 578.204 271.078C579.666 271.462 581.191 271.541 582.684 271.31V271.3Z" fill="#00BFA6"/>
<path d="M613.334 313.35C618.954 311.07 631.104 294.3 631.104 294.3C631.104 294.3 610.694 290.74 605.104 293.02C602.615 294.251 600.683 296.378 599.697 298.974C598.711 301.57 598.744 304.443 599.788 307.016C600.832 309.59 602.811 311.673 605.327 312.848C607.844 314.022 610.711 314.202 613.354 313.35H613.334Z" fill="#00BFA6"/>
<path d="M648.734 350.13C654.654 348.83 669.474 334.35 669.474 334.35C669.474 334.35 649.964 327.35 644.044 328.69C641.368 329.471 639.088 331.239 637.665 333.636C636.242 336.034 635.783 338.882 636.38 341.605C636.977 344.329 638.586 346.724 640.881 348.306C643.176 349.889 645.987 350.54 648.744 350.13H648.734Z" fill="#00BFA6"/>
<path opacity="0.1" d="M563.814 219.01C568.374 223.01 574.384 242.82 574.384 242.82C574.384 242.82 553.934 239.52 549.384 235.53C548.176 234.621 547.169 233.472 546.424 232.155C545.68 230.839 545.215 229.383 545.059 227.879C544.903 226.375 545.058 224.855 545.516 223.414C545.973 221.973 546.723 220.641 547.718 219.503C548.713 218.364 549.932 217.443 551.299 216.797C552.667 216.151 554.152 215.793 555.664 215.747C557.175 215.701 558.68 215.967 560.084 216.528C561.488 217.09 562.761 217.935 563.824 219.01H563.814Z" fill="#00BFA6"/>
<path opacity="0.1" d="M601.024 227.44C602.684 233.27 596.954 253.18 596.954 253.18C596.954 253.18 581.584 239.29 579.954 233.46C579.431 232.039 579.206 230.524 579.295 229.012C579.384 227.5 579.784 226.022 580.47 224.672C581.157 223.321 582.115 222.127 583.285 221.164C584.454 220.201 585.81 219.491 587.267 219.076C588.724 218.662 590.251 218.553 591.753 218.756C593.254 218.96 594.697 219.471 595.991 220.258C597.286 221.045 598.403 222.091 599.275 223.33C600.146 224.57 600.752 225.976 601.054 227.46L601.024 227.44Z" fill="#00BFA6"/>
<path opacity="0.1" d="M643.694 265.79C642.234 271.66 627.234 285.95 627.234 285.95C627.234 285.95 620.974 266.2 622.484 260.33C623.359 257.682 625.206 255.464 627.654 254.126C630.101 252.789 632.965 252.43 635.666 253.124C638.367 253.818 640.704 255.512 642.204 257.863C643.704 260.215 644.254 263.048 643.744 265.79H643.694Z" fill="#00BFA6"/>
<path opacity="0.1" d="M669.444 302.07C668.954 308.07 656.584 324.73 656.584 324.73C656.584 324.73 647.074 306.32 647.584 300.28C648.01 297.532 649.46 295.048 651.643 293.326C653.826 291.604 656.581 290.773 659.352 291C662.123 291.226 664.706 292.494 666.58 294.548C668.454 296.602 669.481 299.29 669.454 302.07H669.444Z" fill="#00BFA6"/>
<path opacity="0.1" d="M582.684 271.3C588.684 270.81 605.344 258.44 605.344 258.44C605.344 258.44 586.934 248.94 580.894 249.44C579.383 249.455 577.891 249.781 576.512 250.397C575.132 251.014 573.895 251.909 572.876 253.025C571.857 254.141 571.08 255.455 570.591 256.885C570.103 258.315 569.915 259.831 570.038 261.337C570.161 262.843 570.594 264.307 571.308 265.639C572.022 266.971 573.003 268.141 574.19 269.077C575.376 270.012 576.743 270.694 578.204 271.078C579.666 271.462 581.191 271.541 582.684 271.31V271.3Z" fill="#00BFA6"/>
<path opacity="0.1" d="M613.334 313.35C618.954 311.07 631.104 294.3 631.104 294.3C631.104 294.3 610.694 290.74 605.104 293.02C602.615 294.251 600.683 296.378 599.697 298.974C598.711 301.57 598.744 304.443 599.788 307.016C600.832 309.59 602.811 311.673 605.327 312.848C607.844 314.022 610.711 314.202 613.354 313.35H613.334Z" fill="#00BFA6"/>
<path opacity="0.1" d="M648.734 350.13C654.654 348.83 669.474 334.35 669.474 334.35C669.474 334.35 649.964 327.35 644.044 328.69C641.368 329.471 639.088 331.239 637.665 333.636C636.242 336.034 635.783 338.882 636.38 341.605C636.977 344.329 638.586 346.724 640.881 348.306C643.176 349.889 645.987 350.54 648.744 350.13H648.734Z" fill="#00BFA6"/>
<path d="M713.864 494.53C713.134 497.09 712.394 500.03 711.704 503.02C708.978 514.813 707.99 526.941 708.774 539.02C710.224 561.37 712.014 600.26 707.624 607.95C703.384 615.37 704.904 635.26 706.314 647.27C706.984 652.95 707.624 656.85 707.624 656.85L683.174 654.25L682.394 648.59L677.454 612.59C677.454 612.59 664.454 534.04 668.614 528.32C672.774 522.6 668.614 496.59 668.614 496.59L660.284 450.85L654.724 422.6L648.314 389.99L707.094 394.15C707.094 394.15 708.234 404.53 709.624 418.65C712.324 445.97 715.924 487.33 713.864 494.53Z" fill="#EBAE9C"/>
<path d="M788.774 389.45L783.724 415.16L776.814 450.31L768.494 496.09C768.494 496.09 764.334 522.09 768.494 527.82C772.654 533.55 759.654 612.09 759.654 612.09L754.714 648.09L753.934 653.75L729.484 656.35C729.484 656.35 730.134 652.35 730.804 646.67C732.214 634.67 733.714 614.85 729.484 607.45C725.134 599.83 726.844 561.64 728.284 539.2C729.1 526.444 728.018 513.638 725.074 501.2C724.474 498.69 723.854 496.25 723.234 494.08C721.314 487.35 724.324 450.82 726.924 423.76C728.544 406.89 729.994 393.69 729.994 393.69L788.774 389.45Z" fill="#EBAE9C"/>
<path d="M793.657 388.903C787.089 391.066 774.883 356.449 774.883 356.449L751.427 274.228L752.167 245.57L753.772 183.355L683.845 185.518C683.845 185.518 670.71 224.481 666.019 235.286C665.065 237.89 664.424 240.633 664.115 243.438C661.616 260.959 662.311 294.786 662.311 294.786L657.15 352.664C657.15 352.664 656.681 381.333 648.237 375.925C639.792 370.518 638.854 347.849 638.854 347.849L642.039 254.752C642.039 254.752 642.039 253.618 641.931 251.57C641.588 240.214 640.668 200.783 643.446 171.501C643.663 169.227 643.876 167.085 644.087 165.075C647.1 136.583 650.555 134.358 678.18 129.314C693.932 126.434 700.093 116.639 702.403 108.122C703.63 103.608 704.012 98.8439 703.522 94.1466C703.522 94.1466 735.431 65.4779 731.678 100.095C731.186 104.186 731.401 108.349 732.31 112.344C736.144 128.493 751.616 135.304 760.972 137.987C766.943 139.682 772.205 143.747 775.835 149.469C779.464 155.191 781.229 162.203 780.819 169.276V169.557C780.603 173.155 780.022 176.711 779.087 180.153C779.087 180.153 779.556 200.17 778.185 212.606C777.508 218.575 777.698 232.759 778.077 245.882C778.492 260.138 779.123 273.167 779.123 273.167L789.949 355.388C789.949 355.388 800.234 386.698 793.657 388.903Z" fill="#EBAE9C"/>
<path opacity="0.1" d="M734.334 110.97C728.926 113.16 723.05 113.936 717.259 113.226C711.467 112.516 705.953 110.342 701.234 106.91C702.595 102.568 703.017 97.9872 702.474 93.4699C702.474 93.4699 737.844 65.8999 733.684 99.1899C733.122 103.121 733.343 107.124 734.334 110.97Z" fill="black"/>
<path d="M718.354 112C735.751 112 749.854 96.7777 749.854 78C749.854 59.2223 735.751 44 718.354 44C700.957 44 686.854 59.2223 686.854 78C686.854 96.7777 700.957 112 718.354 112Z" fill="#EBAE9C"/>
<path opacity="0.1" d="M707.624 656.85L683.174 654.25L682.394 648.59C687.324 644.07 694.614 642.81 694.614 642.81C696.614 642.15 701.494 644.42 704.824 646.17C705.378 646.456 705.881 646.831 706.314 647.28C706.984 652.92 707.624 656.85 707.624 656.85Z" fill="black"/>
<path d="M694.624 643.85C694.624 643.85 682.624 645.93 679.014 654.25C679.014 654.25 676.934 666.73 669.654 676.1L669.444 676.38C668.263 677.945 667.542 679.808 667.361 681.761C667.181 683.714 667.549 685.678 668.424 687.432C669.299 689.187 670.646 690.663 672.313 691.695C673.981 692.726 675.903 693.271 677.864 693.27H697.614C699.27 693.27 700.902 692.879 702.379 692.131C703.856 691.382 705.136 690.296 706.114 688.96L711.594 681.48C712.442 680.326 712.999 678.984 713.219 677.569C713.438 676.154 713.313 674.707 712.854 673.35C711.084 668.13 708.394 659.2 708.084 652.35C708.044 651.276 707.723 650.232 707.152 649.321C706.582 648.41 705.783 647.665 704.834 647.16C701.494 645.43 696.594 643.16 694.624 643.85Z" fill="#F3E6E2"/>
<path opacity="0.1" d="M754.704 648.05L753.924 653.71L729.474 656.31C729.474 656.31 730.124 652.31 730.794 646.63C731.163 646.283 731.577 645.987 732.024 645.75C735.344 643.99 740.444 641.59 742.474 642.26C742.474 642.26 749.774 643.53 754.704 648.05Z" fill="black"/>
<path d="M742.474 643.3C742.474 643.3 754.474 645.38 758.084 653.7C758.084 653.7 760.164 666.18 767.444 675.55L767.654 675.83C768.836 677.395 769.557 679.258 769.737 681.211C769.917 683.163 769.549 685.128 768.675 686.882C767.8 688.637 766.453 690.113 764.785 691.145C763.117 692.176 761.195 692.721 759.234 692.72H739.494C737.838 692.72 736.206 692.329 734.729 691.581C733.252 690.832 731.973 689.746 730.994 688.41L726.164 681.85C725.118 680.432 724.427 678.784 724.15 677.044C723.873 675.304 724.019 673.522 724.574 671.85C726.354 666.47 728.804 658.02 729.034 651.57C729.069 650.58 729.365 649.616 729.892 648.777C730.419 647.938 731.158 647.252 732.034 646.79C735.354 645.02 740.454 642.63 742.474 643.3Z" fill="#F3E6E2"/>
<path opacity="0.1" d="M707.104 394.14C707.104 394.14 708.244 404.52 709.634 418.64C698.714 417.31 687.684 418.24 685.254 417.55C682.824 416.86 667.024 422.02 654.734 422.55L648.324 389.94L707.104 394.14Z" fill="black"/>
<path opacity="0.1" d="M788.774 389.45L783.724 415.16C776.914 415.16 770.584 415.65 768.484 417.54C763.554 421.98 740.394 428.76 726.914 423.68C728.534 406.81 729.984 393.61 729.984 393.61L788.774 389.45Z" fill="black"/>
<path d="M666.372 239.14C678.318 312.277 683.38 246.38 666.372 281.581C649.364 316.782 630.854 404.993 630.854 404.993C630.854 404.993 646.484 403.547 650.619 414.635C654.754 425.722 686.923 413.707 690.148 414.635C693.373 415.562 713.588 413.188 725.074 419.455C736.56 425.722 759.082 418.973 763.685 414.635C768.288 410.296 795.854 413.707 795.854 413.707C795.854 413.707 774.163 307.678 760.46 281.581C746.756 255.484 748.041 311.5 760.46 239.14C772.879 166.78 654.427 166.003 666.372 239.14Z" fill="#39615C"/>
<path opacity="0.1" d="M664.234 132.74C665.234 132.74 692.324 132.74 697.004 131.74Z" fill="black"/>
<path opacity="0.1" d="M742.734 137.95C756.254 137.95 759.384 137.95 764.064 136.95Z" fill="black"/>
<path opacity="0.05" d="M700.494 156.85C700.494 156.85 714.174 164.02 714.804 171.27C714.804 171.27 719.894 157.77 727.154 157.14" fill="black"/>
<path opacity="0.1" d="M711.584 680.16L706.104 687.64C705.126 688.975 703.846 690.062 702.369 690.81C700.892 691.559 699.26 691.95 697.604 691.95H677.854C675.183 691.954 672.609 690.943 670.654 689.122C668.7 687.301 667.509 684.805 667.324 682.14C667.213 683.591 667.402 685.049 667.881 686.423C668.359 687.797 669.117 689.058 670.105 690.125C671.094 691.193 672.293 692.045 673.626 692.627C674.96 693.21 676.399 693.51 677.854 693.51H697.604C699.26 693.51 700.892 693.119 702.369 692.37C703.846 691.622 705.126 690.535 706.104 689.2L711.584 681.72C712.865 679.972 713.466 677.818 713.274 675.66C713.133 677.286 712.549 678.843 711.584 680.16Z" fill="black"/>
<path opacity="0.1" d="M759.234 691.42H739.494C737.839 691.42 736.206 691.029 734.729 690.281C733.253 689.532 731.973 688.446 730.994 687.11L726.164 680.52C724.927 678.836 724.195 676.835 724.054 674.75C723.858 677.37 724.607 679.974 726.164 682.09L730.994 688.68C731.973 690.016 733.253 691.102 734.729 691.851C736.206 692.599 737.839 692.99 739.494 692.99H759.234C760.689 692.99 762.129 692.69 763.462 692.107C764.796 691.525 765.994 690.673 766.983 689.605C767.972 688.538 768.729 687.277 769.208 685.903C769.686 684.529 769.876 683.071 769.764 681.62C769.577 684.283 768.386 686.776 766.431 688.596C764.476 690.415 761.904 691.424 759.234 691.42Z" fill="black"/>
<g opacity="0.05">
<path d="M764.354 269C753.354 253.15 755.529 279.5 768.214 231.5C770.616 222.412 772.354 186 758.354 180C758.354 185.5 763.143 216.677 758.354 222C753.214 254.11 749.854 256 747.854 270.85C771.264 291.66 792.404 408.7 792.404 408.7C792.404 408.7 761.194 405.06 755.994 409.7C750.794 414.34 725.304 421.7 712.294 414.9C699.284 408.1 676.404 410.74 672.764 409.7C670.324 409 664.314 412.33 651.854 412.5C649.854 424 681.694 416.97 685.244 418C688.794 419.03 711.774 412.82 724.774 419.58C737.774 426.34 763.264 419.06 768.474 414.38C773.684 409.7 804.884 413.38 804.884 413.38C804.884 413.38 772.354 276.15 764.354 269Z" fill="black"/>
<path d="M631.474 401C631.064 402.85 630.854 403.87 630.854 403.87C632.808 403.745 634.769 403.792 636.714 404.01C635.148 402.721 633.377 401.704 631.474 401Z" fill="black"/>
</g>
<path d="M739.354 50.5C736.854 53.6667 733.354 61.6 739.354 68C745.354 74.4 741.854 81 739.354 83.5C737.521 85.5 734.954 91.1 739.354 97.5C743.754 103.9 741.188 110.5 739.354 113C736.854 114.833 733.354 120.8 739.354 130C745.354 139.2 741.854 142.167 739.354 142.5" stroke="#D3AC6B"/>
<path d="M690.167 61C687.667 64.1667 684.167 72.1 690.167 78.5C696.167 84.9 692.667 91.5 690.167 94C688.334 96 685.767 101.6 690.167 108C694.567 114.4 692 121 690.167 123.5C687.667 125.333 684.167 131.3 690.167 140.5C696.167 149.7 697.854 149.667 695.354 150" stroke="#D3AC6B" stroke-width="2"/>
<path d="M690.167 61C687.667 64.1667 684.167 72.1 690.167 78.5C696.167 84.9 692.667 91.5 690.167 94C688.334 96 685.767 101.6 690.167 108C694.567 114.4 692 121 690.167 123.5" stroke="#D3AC6B" stroke-width="2"/>
<path d="M746.354 58C748.995 61.3732 752.693 69.8239 746.354 76.6413C740.015 83.4587 743.713 90.4891 746.354 93.1522C748.291 95.2826 751.003 101.248 746.354 108.065C741.706 114.883 744.417 121.913 746.354 124.576C748.995 126.529 752.693 132.885 746.354 142.685C740.015 152.485 743.713 155.645 746.354 156" stroke="#D3AC6B" stroke-width="2"/>
<path d="M666.854 131.5C668.564 140.23 664.854 202 668.354 234" stroke="#39615C" stroke-width="5"/>
<path d="M759.854 138C756.813 147 759.854 223 758.354 228.5" stroke="#39615C" stroke-width="5"/>
<rect x="667.854" y="181" width="93" height="33" fill="#39615C"/>
</svg>
