<svg width="440" height="785" viewBox="0 0 440 785" fill="none" xmlns="http://www.w3.org/2000/svg">
<path opacity="0.1" d="M75.2018 115.412C72.8443 122.062 71.9365 131.413 70.9212 140.203C62.7472 211.048 42.6047 268.032 19.6658 308.734C9.95168 325.985 -1.87483 349.117 0.250411 380.009C1.39477 396.61 6.41534 408.831 10.1453 422.352C17.9708 450.664 20.5091 489.146 16.7791 523.038C12.5372 561.601 0.680625 597.583 4.35033 636.576C6.61324 660.578 14.2968 677.659 21.6835 692.34C33.2075 715.228 45.0985 736.669 57.3567 756.664C65.5737 770.065 74.3156 783.106 83.8921 784.806C92.3242 786.306 100.584 778.855 108.591 771.505C115.586 765.074 122.757 758.384 128.406 745.503C132.093 737.093 135.031 726.242 139.127 719.361C148.746 703.2 161.102 713.441 172.133 720.361C198.161 736.603 226.017 730.672 250.784 703.62C288.776 662.118 317.733 574.962 354.895 528.199C370.873 508.087 388.254 495.607 403.049 469.705C411.384 454.957 418.547 436.939 424.215 416.461C435.401 376.349 441.449 325.205 439.703 275.142C437.956 225.079 428.169 176.836 412.797 148.574C396.342 118.322 375.558 112.671 356.835 94.5102C337.502 75.7489 320.302 43.5068 301.153 23.3755C285.655 7.13875 268.79 -0.825359 251.795 0.0675945C234.8 0.960548 218.107 10.6879 202.94 28.5358C182.101 52.9874 160.977 110.161 137.767 114.462C121.234 117.492 88.1125 78.9892 75.2018 115.412Z" fill="#00BFA6"/>
<path d="M216.854 32.9455C221.185 31.9619 234.608 27.9483 238.388 35.502C242.167 43.0557 247.837 46.1242 250.199 46.7143C252.955 48.288 258.467 53.4418 258.467 61.4676C258.467 71.4998 259.649 73.2702 263.192 79.7616C266.736 86.253 267.917 91.5642 267.326 95.105C266.736 98.6457 264.373 103.367 267.326 112.219C270.279 121.071 271.46 119.89 270.87 126.382C270.397 131.575 268.31 135.627 267.326 137.004C267.129 140.938 267.562 149.279 270.87 151.167C275.004 153.528 275.594 162.38 274.413 164.74C273.232 167.101 271.46 175.363 274.413 180.674C277.366 185.985 277.957 188.936 274.413 195.427C271.578 200.62 265.161 200.596 267.326 202.957V209H250.199H241.931H234.844L238.388 130.513" stroke="#D3AC6B" stroke-width="20"/>
<path d="M217.048 34.5406C213.059 33.1353 200.795 27.8224 196.437 34.9374C192.078 42.0523 186.402 44.5322 184.109 44.8827C181.341 46.1695 175.596 50.7327 174.759 58.6912C173.714 68.6393 172.413 70.2775 168.389 76.3626C164.364 82.4477 162.695 87.5971 162.884 91.1668C163.073 94.7365 164.813 99.6526 161.1 108.137C157.388 116.622 156.395 115.334 156.276 121.829C156.181 127.026 157.73 131.251 158.517 132.715C158.293 136.635 157.014 144.863 153.693 146.407C149.541 148.337 148.061 157.056 148.93 159.514C149.8 161.972 150.613 170.341 147.27 175.314C143.926 180.288 143.061 183.155 145.732 189.944C147.869 195.375 153.935 195.988 151.643 198.114L156.276 205.807L167.195 205.807L175.006 206.628L181.702 207.332L186.534 129.151" stroke="#D3AC6B" stroke-width="22"/>
<path d="M201.686 22.0845C201.686 22.0845 170.366 26.7118 168.347 90.2139C166.666 143.128 163.224 172.622 179.664 183.659C185.543 187.605 192.451 187.949 198.73 185.254L265.848 156.359C265.848 156.359 266.86 61.1097 243.62 37.9581C220.38 14.8066 201.692 22.0845 201.692 22.0845H201.686Z" fill="#D3AC6B"/>
<path d="M190.504 349.7C190.504 349.7 143.694 328.12 127.674 291.15C121.055 275.6 109.57 262.617 94.9442 254.15C87.9689 250.185 80.6449 246.868 73.0642 244.24" stroke="#535461" stroke-width="2" stroke-miterlimit="10"/>
<path d="M62.8142 221.01C67.3742 225.01 73.3842 244.82 73.3842 244.82C73.3842 244.82 52.9342 241.52 48.3842 237.53C47.1761 236.621 46.1685 235.472 45.4243 234.155C44.6801 232.839 44.2153 231.383 44.059 229.879C43.9026 228.375 44.058 226.855 44.5155 225.414C44.973 223.973 45.7228 222.641 46.7179 221.503C47.7131 220.364 48.9323 219.443 50.2995 218.797C51.6666 218.151 53.1523 217.793 54.6637 217.747C56.1752 217.701 57.6799 217.967 59.084 218.528C60.4881 219.09 61.7613 219.935 62.8242 221.01H62.8142Z" fill="#00BFA6"/>
<path d="M100.024 229.44C101.684 235.27 95.9543 255.18 95.9543 255.18C95.9543 255.18 80.5843 241.29 78.9543 235.46C78.4305 234.039 78.206 232.524 78.2948 231.012C78.3836 229.5 78.7838 228.022 79.4704 226.672C80.157 225.321 81.115 224.127 82.2846 223.164C83.4542 222.201 84.8101 221.491 86.2672 221.076C87.7244 220.662 89.2514 220.553 90.7526 220.756C92.2538 220.96 93.6968 221.471 94.9912 222.258C96.2856 223.045 97.4034 224.091 98.2747 225.33C99.1459 226.57 99.7518 227.976 100.054 229.46L100.024 229.44Z" fill="#00BFA6"/>
<path d="M142.694 267.79C141.234 273.66 126.234 287.95 126.234 287.95C126.234 287.95 119.974 268.2 121.484 262.33C122.359 259.682 124.206 257.464 126.654 256.126C129.101 254.789 131.965 254.43 134.666 255.124C137.367 255.818 139.704 257.512 141.204 259.863C142.704 262.215 143.254 265.048 142.744 267.79H142.694Z" fill="#00BFA6"/>
<path d="M168.444 304.07C167.954 310.07 155.584 326.73 155.584 326.73C155.584 326.73 146.074 308.32 146.584 302.28C147.01 299.532 148.46 297.048 150.643 295.326C152.826 293.604 155.581 292.773 158.352 293C161.123 293.226 163.706 294.494 165.58 296.548C167.454 298.602 168.481 301.29 168.454 304.07H168.444Z" fill="#00BFA6"/>
<path d="M81.6842 273.3C87.6842 272.81 104.344 260.44 104.344 260.44C104.344 260.44 85.9342 250.94 79.8942 251.44C78.3832 251.455 76.8914 251.781 75.5118 252.397C74.1323 253.014 72.8946 253.909 71.876 255.025C70.8574 256.141 70.0797 257.455 69.5915 258.885C69.1032 260.315 68.9149 261.831 69.0381 263.337C69.1614 264.843 69.5937 266.307 70.308 267.639C71.0223 268.971 72.0033 270.141 73.1898 271.077C74.3764 272.012 75.743 272.694 77.2044 273.078C78.6659 273.462 80.1909 273.541 81.6842 273.31V273.3Z" fill="#00BFA6"/>
<path d="M112.334 315.35C117.954 313.07 130.104 296.3 130.104 296.3C130.104 296.3 109.694 292.74 104.104 295.02C101.615 296.251 99.6835 298.378 98.6974 300.974C97.7112 303.57 97.7435 306.443 98.7877 309.016C99.832 311.59 101.811 313.673 104.327 314.848C106.844 316.022 109.711 316.202 112.354 315.35H112.334Z" fill="#00BFA6"/>
<path d="M147.734 352.13C153.654 350.83 168.474 336.35 168.474 336.35C168.474 336.35 148.964 329.35 143.044 330.69C140.368 331.471 138.088 333.239 136.665 335.636C135.242 338.034 134.783 340.882 135.38 343.605C135.977 346.329 137.586 348.724 139.881 350.306C142.176 351.889 144.987 352.54 147.744 352.13H147.734Z" fill="#00BFA6"/>
<path opacity="0.1" d="M62.8142 221.01C67.3742 225.01 73.3842 244.82 73.3842 244.82C73.3842 244.82 52.9342 241.52 48.3842 237.53C47.1761 236.621 46.1685 235.472 45.4243 234.155C44.6801 232.839 44.2153 231.383 44.059 229.879C43.9026 228.375 44.058 226.855 44.5155 225.414C44.973 223.973 45.7228 222.641 46.7179 221.503C47.7131 220.364 48.9323 219.443 50.2995 218.797C51.6666 218.151 53.1523 217.793 54.6637 217.747C56.1752 217.701 57.6799 217.967 59.084 218.528C60.4881 219.09 61.7613 219.935 62.8242 221.01H62.8142Z" fill="#00BFA6"/>
<path opacity="0.1" d="M100.024 229.44C101.684 235.27 95.9543 255.18 95.9543 255.18C95.9543 255.18 80.5843 241.29 78.9543 235.46C78.4305 234.039 78.206 232.524 78.2948 231.012C78.3836 229.5 78.7838 228.022 79.4704 226.672C80.157 225.321 81.115 224.127 82.2846 223.164C83.4542 222.201 84.8101 221.491 86.2672 221.076C87.7244 220.662 89.2514 220.553 90.7526 220.756C92.2538 220.96 93.6968 221.471 94.9912 222.258C96.2856 223.045 97.4034 224.091 98.2747 225.33C99.1459 226.57 99.7518 227.976 100.054 229.46L100.024 229.44Z" fill="#00BFA6"/>
<path opacity="0.1" d="M142.694 267.79C141.234 273.66 126.234 287.95 126.234 287.95C126.234 287.95 119.974 268.2 121.484 262.33C122.359 259.682 124.206 257.464 126.654 256.126C129.101 254.789 131.965 254.43 134.666 255.124C137.367 255.818 139.704 257.512 141.204 259.863C142.704 262.215 143.254 265.048 142.744 267.79H142.694Z" fill="#00BFA6"/>
<path opacity="0.1" d="M168.444 304.07C167.954 310.07 155.584 326.73 155.584 326.73C155.584 326.73 146.074 308.32 146.584 302.28C147.01 299.532 148.46 297.048 150.643 295.326C152.826 293.604 155.581 292.773 158.352 293C161.123 293.226 163.706 294.494 165.58 296.548C167.454 298.602 168.481 301.29 168.454 304.07H168.444Z" fill="#00BFA6"/>
<path opacity="0.1" d="M81.6842 273.3C87.6842 272.81 104.344 260.44 104.344 260.44C104.344 260.44 85.9342 250.94 79.8942 251.44C78.3832 251.455 76.8914 251.781 75.5118 252.397C74.1323 253.014 72.8946 253.909 71.876 255.025C70.8574 256.141 70.0797 257.455 69.5915 258.885C69.1032 260.315 68.9149 261.831 69.0381 263.337C69.1614 264.843 69.5937 266.307 70.308 267.639C71.0223 268.971 72.0033 270.141 73.1898 271.077C74.3764 272.012 75.743 272.694 77.2044 273.078C78.6659 273.462 80.1909 273.541 81.6842 273.31V273.3Z" fill="#00BFA6"/>
<path opacity="0.1" d="M112.334 315.35C117.954 313.07 130.104 296.3 130.104 296.3C130.104 296.3 109.694 292.74 104.104 295.02C101.615 296.251 99.6835 298.378 98.6974 300.974C97.7112 303.57 97.7435 306.443 98.7877 309.016C99.832 311.59 101.811 313.673 104.327 314.848C106.844 316.022 109.711 316.202 112.354 315.35H112.334Z" fill="#00BFA6"/>
<path opacity="0.1" d="M147.734 352.13C153.654 350.83 168.474 336.35 168.474 336.35C168.474 336.35 148.964 329.35 143.044 330.69C140.368 331.471 138.088 333.239 136.665 335.636C135.242 338.034 134.783 340.882 135.38 343.605C135.977 346.329 137.586 348.724 139.881 350.306C142.176 351.889 144.987 352.54 147.744 352.13H147.734Z" fill="#00BFA6"/>
<path d="M212.864 496.53C212.134 499.09 211.394 502.03 210.704 505.02C207.978 516.813 206.99 528.941 207.774 541.02C209.224 563.37 211.014 602.26 206.624 609.95C202.384 617.37 203.904 637.26 205.314 649.27C205.984 654.95 206.624 658.85 206.624 658.85L182.174 656.25L181.394 650.59L176.454 614.59C176.454 614.59 163.454 536.04 167.614 530.32C171.774 524.6 167.614 498.59 167.614 498.59L159.284 452.85L153.724 424.6L147.314 391.99L206.094 396.15C206.094 396.15 207.234 406.53 208.624 420.65C211.324 447.97 214.924 489.33 212.864 496.53Z" fill="#EBAE9C"/>
<path d="M287.774 391.45L282.724 417.16L275.814 452.31L267.494 498.09C267.494 498.09 263.334 524.09 267.494 529.82C271.654 535.55 258.654 614.09 258.654 614.09L253.714 650.09L252.934 655.75L228.484 658.35C228.484 658.35 229.134 654.35 229.804 648.67C231.214 636.67 232.714 616.85 228.484 609.45C224.134 601.83 225.844 563.64 227.284 541.2C228.1 528.444 227.018 515.638 224.074 503.2C223.474 500.69 222.854 498.25 222.234 496.08C220.314 489.35 223.324 452.82 225.924 425.76C227.544 408.89 228.994 395.69 228.994 395.69L287.774 391.45Z" fill="#EBAE9C"/>
<path d="M292.657 390.903C286.089 393.066 273.883 358.449 273.883 358.449L250.427 276.228L251.167 247.57L252.772 185.355L182.845 187.518C182.845 187.518 169.71 226.481 165.019 237.286C164.065 239.89 163.424 242.633 163.115 245.438C160.616 262.959 161.311 296.786 161.311 296.786L156.15 354.664C156.15 354.664 155.681 383.333 147.237 377.925C138.792 372.518 137.854 349.849 137.854 349.849L141.039 256.752C141.039 256.752 141.039 255.618 140.931 253.57C140.588 242.214 139.668 202.783 142.446 173.501C142.663 171.227 142.876 169.085 143.087 167.075C146.1 138.583 149.555 136.358 177.18 131.314C192.932 128.434 199.093 118.639 201.403 110.122C202.63 105.608 203.012 100.844 202.522 96.1466C202.522 96.1466 234.431 67.4779 230.678 102.095C230.186 106.186 230.401 110.349 231.31 114.344C235.144 130.493 250.616 137.304 259.972 139.987C265.943 141.682 271.205 145.747 274.835 151.469C278.464 157.191 280.229 164.203 279.819 171.276V171.557C279.603 175.155 279.022 178.711 278.087 182.153C278.087 182.153 278.556 202.17 277.185 214.606C276.508 220.575 276.698 234.759 277.077 247.882C277.492 262.138 278.123 275.167 278.123 275.167L288.949 357.388C288.949 357.388 299.234 388.698 292.657 390.903Z" fill="#EBAE9C"/>
<path opacity="0.1" d="M233.334 112.97C227.926 115.16 222.05 115.936 216.259 115.226C210.467 114.516 204.953 112.342 200.234 108.91C201.595 104.568 202.017 99.9872 201.474 95.4699C201.474 95.4699 236.844 67.8999 232.684 101.19C232.122 105.121 232.343 109.124 233.334 112.97Z" fill="black"/>
<path d="M217.354 114C234.751 114 248.854 98.7777 248.854 80C248.854 61.2223 234.751 46 217.354 46C199.957 46 185.854 61.2223 185.854 80C185.854 98.7777 199.957 114 217.354 114Z" fill="#EBAE9C"/>
<path opacity="0.1" d="M206.624 658.85L182.174 656.25L181.394 650.59C186.324 646.07 193.614 644.81 193.614 644.81C195.614 644.15 200.494 646.42 203.824 648.17C204.378 648.456 204.881 648.831 205.314 649.28C205.984 654.92 206.624 658.85 206.624 658.85Z" fill="black"/>
<path d="M193.624 645.85C193.624 645.85 181.624 647.93 178.014 656.25C178.014 656.25 175.934 668.73 168.654 678.1L168.444 678.38C167.263 679.945 166.542 681.808 166.361 683.761C166.181 685.714 166.549 687.678 167.424 689.432C168.299 691.187 169.646 692.663 171.313 693.695C172.981 694.726 174.903 695.271 176.864 695.27H196.614C198.27 695.27 199.902 694.879 201.379 694.131C202.856 693.382 204.136 692.296 205.114 690.96L210.594 683.48C211.442 682.326 211.999 680.984 212.219 679.569C212.438 678.154 212.313 676.707 211.854 675.35C210.084 670.13 207.394 661.2 207.084 654.35C207.044 653.276 206.723 652.232 206.152 651.321C205.582 650.41 204.783 649.665 203.834 649.16C200.494 647.43 195.594 645.16 193.624 645.85Z" fill="#F3E6E2"/>
<path opacity="0.1" d="M253.704 650.05L252.924 655.71L228.474 658.31C228.474 658.31 229.124 654.31 229.794 648.63C230.163 648.283 230.577 647.987 231.024 647.75C234.344 645.99 239.444 643.59 241.474 644.26C241.474 644.26 248.774 645.53 253.704 650.05Z" fill="black"/>
<path d="M241.474 645.3C241.474 645.3 253.474 647.38 257.084 655.7C257.084 655.7 259.164 668.18 266.444 677.55L266.654 677.83C267.836 679.395 268.557 681.258 268.737 683.211C268.917 685.163 268.549 687.128 267.675 688.882C266.8 690.637 265.453 692.113 263.785 693.145C262.117 694.176 260.195 694.721 258.234 694.72H238.494C236.838 694.72 235.206 694.329 233.729 693.581C232.252 692.832 230.973 691.746 229.994 690.41L225.164 683.85C224.118 682.432 223.427 680.784 223.15 679.044C222.873 677.304 223.019 675.522 223.574 673.85C225.354 668.47 227.804 660.02 228.034 653.57C228.069 652.58 228.365 651.616 228.892 650.777C229.419 649.938 230.158 649.252 231.034 648.79C234.354 647.02 239.454 644.63 241.474 645.3Z" fill="#F3E6E2"/>
<path opacity="0.1" d="M206.104 396.14C206.104 396.14 207.244 406.52 208.634 420.64C197.714 419.31 186.684 420.24 184.254 419.55C181.824 418.86 166.024 424.02 153.734 424.55L147.324 391.94L206.104 396.14Z" fill="black"/>
<path opacity="0.1" d="M287.774 391.45L282.724 417.16C275.914 417.16 269.584 417.65 267.484 419.54C262.554 423.98 239.394 430.76 225.914 425.68C227.534 408.81 228.984 395.61 228.984 395.61L287.774 391.45Z" fill="black"/>
<path d="M165.372 241.14C177.318 314.277 182.38 248.38 165.372 283.581C148.364 318.782 129.854 406.993 129.854 406.993C129.854 406.993 145.484 405.547 149.619 416.635C153.754 427.722 185.923 415.707 189.148 416.635C192.373 417.562 212.588 415.188 224.074 421.455C235.56 427.722 258.082 420.973 262.685 416.635C267.288 412.296 294.854 415.707 294.854 415.707C294.854 415.707 273.163 309.678 259.46 283.581C245.756 257.484 247.041 313.5 259.46 241.14C271.879 168.78 153.427 168.003 165.372 241.14Z" fill="#39615C"/>
<path opacity="0.1" d="M163.234 134.74C164.234 134.74 191.324 134.74 196.004 133.74Z" fill="black"/>
<path opacity="0.1" d="M241.734 139.95C255.254 139.95 258.384 139.95 263.064 138.95Z" fill="black"/>
<path opacity="0.05" d="M199.494 158.85C199.494 158.85 213.174 166.02 213.804 173.27C213.804 173.27 218.894 159.77 226.154 159.14" fill="black"/>
<path opacity="0.1" d="M210.584 682.16L205.104 689.64C204.126 690.975 202.846 692.062 201.369 692.81C199.892 693.559 198.26 693.95 196.604 693.95H176.854C174.183 693.954 171.609 692.943 169.654 691.122C167.7 689.301 166.509 686.805 166.324 684.14C166.213 685.591 166.402 687.049 166.881 688.423C167.359 689.797 168.117 691.058 169.105 692.125C170.094 693.193 171.293 694.045 172.626 694.627C173.96 695.21 175.399 695.51 176.854 695.51H196.604C198.26 695.51 199.892 695.119 201.369 694.37C202.846 693.622 204.126 692.535 205.104 691.2L210.584 683.72C211.865 681.972 212.466 679.818 212.274 677.66C212.133 679.286 211.549 680.843 210.584 682.16Z" fill="black"/>
<path opacity="0.1" d="M258.234 693.42H238.494C236.839 693.42 235.206 693.029 233.729 692.281C232.253 691.532 230.973 690.446 229.994 689.11L225.164 682.52C223.927 680.836 223.195 678.835 223.054 676.75C222.858 679.37 223.607 681.974 225.164 684.09L229.994 690.68C230.973 692.016 232.253 693.102 233.729 693.851C235.206 694.599 236.839 694.99 238.494 694.99H258.234C259.689 694.99 261.129 694.69 262.462 694.107C263.796 693.525 264.994 692.673 265.983 691.605C266.972 690.538 267.729 689.277 268.208 687.903C268.686 686.529 268.876 685.071 268.764 683.62C268.577 686.283 267.386 688.776 265.431 690.596C263.476 692.415 260.904 693.424 258.234 693.42Z" fill="black"/>
<g opacity="0.05">
<path d="M263.354 271C252.354 255.15 254.529 281.5 267.214 233.5C269.616 224.412 271.354 188 257.354 182C257.354 187.5 262.143 218.677 257.354 224C252.214 256.11 248.854 258 246.854 272.85C270.264 293.66 291.404 410.7 291.404 410.7C291.404 410.7 260.194 407.06 254.994 411.7C249.794 416.34 224.304 423.7 211.294 416.9C198.284 410.1 175.404 412.74 171.764 411.7C169.324 411 163.314 414.33 150.854 414.5C148.854 426 180.694 418.97 184.244 420C187.794 421.03 210.774 414.82 223.774 421.58C236.774 428.34 262.264 421.06 267.474 416.38C272.684 411.7 303.884 415.38 303.884 415.38C303.884 415.38 271.354 278.15 263.354 271Z" fill="black"/>
<path d="M130.474 403C130.064 404.85 129.854 405.87 129.854 405.87C131.808 405.745 133.769 405.792 135.714 406.01C134.148 404.721 132.377 403.704 130.474 403Z" fill="black"/>
</g>
<path d="M238.354 52.5C235.854 55.6667 232.354 63.6 238.354 70C244.354 76.4 240.854 83 238.354 85.5C236.521 87.5 233.954 93.1 238.354 99.5C242.754 105.9 240.188 112.5 238.354 115C235.854 116.833 232.354 122.8 238.354 132C244.354 141.2 240.854 144.167 238.354 144.5" stroke="#D3AC6B"/>
<path d="M189.167 63C186.667 66.1667 183.167 74.1 189.167 80.5C195.167 86.9 191.667 93.5 189.167 96C187.334 98 184.767 103.6 189.167 110C193.567 116.4 191 123 189.167 125.5C186.667 127.333 183.167 133.3 189.167 142.5C195.167 151.7 196.854 151.667 194.354 152" stroke="#D3AC6B" stroke-width="2"/>
<path d="M189.167 63C186.667 66.1667 183.167 74.1 189.167 80.5C195.167 86.9 191.667 93.5 189.167 96C187.334 98 184.767 103.6 189.167 110C193.567 116.4 191 123 189.167 125.5" stroke="#D3AC6B" stroke-width="2"/>
<path d="M245.354 60C247.995 63.3732 251.693 71.8239 245.354 78.6413C239.015 85.4587 242.713 92.4891 245.354 95.1522C247.291 97.2826 250.003 103.248 245.354 110.065C240.706 116.883 243.417 123.913 245.354 126.576C247.995 128.529 251.693 134.885 245.354 144.685C239.015 154.485 242.713 157.645 245.354 158" stroke="#D3AC6B" stroke-width="2"/>
<path d="M165.854 133.5C167.564 142.23 163.854 204 167.354 236" stroke="#39615C" stroke-width="5"/>
<path d="M258.854 140C255.813 149 258.854 225 257.354 230.5" stroke="#39615C" stroke-width="5"/>
<rect x="166.854" y="183" width="93" height="33" fill="#39615C"/>
</svg>
