<svg width="941" height="779" viewBox="0 0 941 779" fill="none" xmlns="http://www.w3.org/2000/svg">
<path d="M0.967682 574.192C15.524 591.426 31.2718 607.629 48.0884 622.676L684.131 624.359C700.948 609.312 716.696 593.109 731.252 575.863L0.967682 574.192Z" fill="#2F2E41"/>
<path d="M322.177 412.021V583.822H442.57V412.021C442.57 409.491 440.924 407.243 438.505 406.493C437.939 406.309 437.362 406.223 436.773 406.236H327.987C326.452 406.223 324.965 406.837 323.884 407.918C322.791 409.012 322.177 410.486 322.177 412.021ZM369.162 471.057C369.224 464.006 374.96 458.331 382.011 458.331C389.062 458.331 394.799 464.006 394.86 471.057V490.981C394.823 498.057 389.087 503.769 382.011 503.769C374.936 503.769 369.199 498.057 369.162 490.981V471.057Z" fill="#323145"/>
<path d="M321.808 578.319V594.89C321.808 596.671 323.258 598.121 325.039 598.145H439.708C441.489 598.133 442.939 596.684 442.939 594.89V578.319H321.808Z" fill="black"/>
<path d="M132.773 153.202V466.869C132.785 475.185 139.529 481.941 147.857 481.941H612.849C621.177 481.941 627.921 475.185 627.933 466.869V153.202C627.909 144.885 621.165 138.154 612.849 138.142H147.857C139.541 138.154 132.797 144.885 132.773 153.202Z" fill="#323145"/>
<path d="M143.681 157.096V462.999C143.693 467.446 147.292 471.045 151.739 471.057H608.979C613.426 471.045 617.037 467.446 617.037 462.999V157.096C617.037 152.649 613.438 149.037 608.979 149.025H151.739C147.292 149.037 143.681 152.649 143.681 157.096Z" fill="#00BFA6"/>
<path d="M236.915 602.039C237.861 603.219 239.298 603.907 240.809 603.907H512.834C514.332 603.894 515.77 603.219 516.716 602.052C517.661 600.885 518.03 599.349 517.723 597.875L513.497 577.816C513.141 576.157 511.974 574.794 510.389 574.192C509.824 573.971 509.222 573.848 508.608 573.848H245.01C244.408 573.848 243.806 573.971 243.229 574.192C241.644 574.794 240.477 576.157 240.121 577.816L235.895 597.875C235.588 599.349 235.969 600.873 236.915 602.039Z" fill="#2F2E41"/>
<path d="M245.01 578.037C244.924 578.037 244.85 578.049 244.764 578.086C244.494 578.172 244.298 578.393 244.224 578.676L239.998 598.735C239.949 598.968 240.011 599.214 240.17 599.398L240.183 599.423C240.33 599.607 240.563 599.718 240.809 599.718H512.834C513.067 599.718 513.301 599.607 513.448 599.423C513.608 599.239 513.681 598.993 513.632 598.76L509.407 578.688C509.345 578.418 509.149 578.197 508.891 578.098C508.805 578.061 508.706 578.037 508.608 578.037H245.01Z" fill="white"/>
<path d="M166.443 191.171H594.275C595.209 191.146 595.946 190.385 595.946 189.463C595.946 188.542 595.209 187.781 594.275 187.768H166.443C165.522 187.781 164.785 188.542 164.785 189.463C164.785 190.385 165.522 191.146 166.443 191.171Z" fill="black"/>
<path d="M575.125 168.888C575.125 163.262 570.666 158.705 565.151 158.705C559.647 158.705 555.188 163.262 555.188 168.888C555.188 174.514 559.647 179.084 565.151 179.084C570.666 179.084 575.125 174.514 575.125 168.888Z" fill="black"/>
<path d="M540.681 168.888C540.681 163.262 536.222 158.705 530.707 158.705C525.204 158.705 520.745 163.262 520.745 168.888C520.745 174.514 525.204 179.084 530.707 179.084C536.222 179.084 540.681 174.514 540.681 168.888Z" fill="black"/>
<path d="M506.237 168.888C506.237 163.262 501.778 158.705 496.263 158.705C490.76 158.705 486.301 163.262 486.301 168.888C486.301 174.514 490.76 179.084 496.263 179.084C501.778 179.084 506.237 174.514 506.237 168.888Z" fill="black"/>
<path d="M185.36 163.078C185.36 164.097 186.171 164.92 187.19 164.92H211.647C212.655 164.896 213.465 164.073 213.465 163.078C213.465 162.07 212.655 161.247 211.647 161.223H187.19C186.171 161.235 185.348 162.07 185.36 163.078Z" fill="black"/>
<path d="M185.36 170.03C185.36 171.05 186.171 171.873 187.19 171.873H211.647C212.655 171.848 213.465 171.025 213.465 170.03C213.465 169.023 212.655 168.2 211.647 168.176H187.19C186.171 168.188 185.348 169.011 185.36 170.03Z" fill="black"/>
<path d="M185.36 176.971C185.348 177.978 186.171 178.813 187.19 178.826H211.647C212.655 178.801 213.465 177.978 213.465 176.971C213.465 175.976 212.655 175.153 211.647 175.128H187.19C186.171 175.128 185.36 175.951 185.36 176.971Z" fill="black"/>
<path d="M530.535 243.082H230.196C221.978 243.095 215.32 249.752 215.308 257.958V404.086C215.32 412.292 221.978 418.95 230.196 418.962H530.535C538.753 418.95 545.41 412.292 545.41 404.086V257.958C545.41 249.752 538.753 243.095 530.535 243.082ZM542.057 257.958V300.595H436.502V246.436H530.535C536.898 246.436 542.057 251.595 542.057 257.958ZM327.582 358.108V303.936H433.149V358.108H327.582ZM433.149 361.449V415.608H327.582V361.449H433.149ZM324.228 358.108H218.661V303.936H324.228V358.108ZM327.582 300.595V246.436H433.149V300.595H327.582ZM436.502 303.936H542.057V358.108H436.502V303.936ZM230.196 246.436H324.228V300.595H218.661V257.958C218.674 251.595 223.82 246.436 230.196 246.436ZM218.661 404.086V361.449H324.228V415.608H230.196C223.82 415.608 218.674 410.449 218.661 404.086ZM530.535 415.608H436.502V361.449H542.057V404.086C542.057 410.449 536.898 415.608 530.535 415.608Z" fill="black"/>
<path d="M365.097 280.179C362.431 275.769 359.274 271.065 354.324 269.628C348.599 267.969 342.715 271.274 337.728 274.541C322.803 284.307 308.431 294.895 294.673 306.258L294.686 306.43L326.808 304.206C334.547 303.678 342.556 303.064 349.398 299.416C351.99 298.028 354.52 296.173 357.456 296.038C361.104 295.878 364.298 298.433 366.804 301.086C381.606 316.859 385.893 340.96 402.501 354.803C392.023 328.983 379.518 304.034 365.097 280.179Z" fill="white"/>
<path d="M456.119 413.864C454.473 411.8 453.81 411.321 452.189 409.233C439.045 392.232 426.675 374.654 415.104 356.499C407.255 344.178 399.774 331.612 392.698 318.812C389.332 312.719 386.053 306.589 382.859 300.411C380.39 295.608 377.97 290.792 375.611 285.94C374.936 284.552 374.285 283.164 373.634 281.764C372.086 278.484 370.575 275.192 368.954 271.961C367.283 268.067 364.716 264.64 361.473 261.926C359.925 260.746 358.082 260.046 356.142 259.874C353.427 259.899 350.761 260.66 348.44 262.085C330.898 271.31 314.512 282.599 299.661 295.706C284.773 308.776 271.469 323.529 260.021 339.694C259.677 340.186 258.842 339.707 259.198 339.203C260.598 337.238 262.011 335.297 263.46 333.368C281.456 309.439 303.53 288.864 328.65 272.576C332.888 269.836 337.188 267.232 341.573 264.751C343.784 263.498 346.007 262.257 348.268 261.103C350.43 259.837 352.862 259.076 355.355 258.904C363.966 258.769 368.425 268.51 371.484 275.069C372.454 277.133 373.425 279.197 374.408 281.248C378.13 289.036 381.999 296.75 386.016 304.391C388.485 309.108 391.015 313.8 393.607 318.468C401.641 332.987 410.19 347.224 419.244 361.154C431.232 379.617 443.123 395.93 456.795 413.188C457.164 413.667 456.488 414.355 456.119 413.864Z" fill="white"/>
<path d="M298.801 290.903C298.309 290.338 297.806 289.785 297.302 289.232C293.335 284.835 289.072 280.499 283.63 277.98C281.026 276.752 278.189 276.089 275.314 276.064C272.342 276.138 269.406 276.777 266.679 277.943C265.377 278.459 264.111 279.049 262.858 279.675C261.421 280.4 260.021 281.162 258.62 281.936C255.992 283.385 253.4 284.908 250.845 286.481C245.759 289.625 240.834 293.016 236.055 296.639C233.586 298.519 231.166 300.46 228.795 302.462C226.597 304.317 224.435 306.221 222.322 308.186C221.867 308.604 221.192 307.928 221.646 307.511C222.199 306.995 222.764 306.479 223.329 305.963C224.926 304.526 226.535 303.113 228.181 301.725C231.178 299.207 234.262 296.775 237.406 294.441C242.308 290.805 247.381 287.427 252.626 284.282C255.242 282.722 257.896 281.211 260.586 279.786C261.397 279.344 262.22 278.926 263.055 278.521C264.947 277.575 266.9 276.777 268.914 276.138C271.776 275.216 274.786 274.922 277.771 275.266C280.645 275.683 283.421 276.641 285.94 278.091C291.295 281.088 295.447 285.707 299.476 290.215C299.894 290.682 299.218 291.357 298.801 290.903Z" fill="white"/>
<path d="M408.471 336.378L421.295 331.685L427.658 329.364C429.722 328.528 431.822 327.804 433.947 327.189C435.814 326.661 437.792 326.686 439.635 327.263C441.293 327.877 442.804 328.811 444.081 330.015C445.383 331.218 446.6 332.521 447.717 333.909C449.105 335.567 450.469 337.25 451.845 338.933C457.508 345.848 463.134 352.801 468.723 359.791C474.312 366.768 479.864 373.782 485.367 380.82C490.895 387.884 496.386 394.971 501.84 402.084C502.503 402.956 503.179 403.828 503.842 404.712C504.211 405.192 505.046 404.712 504.665 404.221C499.174 397.035 493.647 389.874 488.082 382.749C482.493 375.6 476.879 368.475 471.216 361.387C465.553 354.3 459.866 347.249 454.13 340.222C452.692 338.466 451.267 336.722 449.83 334.977C448.626 333.503 447.435 332.017 446.108 330.641C443.823 327.89 440.544 326.17 436.981 325.838C434.856 325.912 432.756 326.379 430.79 327.202C428.641 327.976 426.503 328.774 424.366 329.548L411.443 334.277L408.213 335.456C407.648 335.665 407.893 336.586 408.471 336.378Z" fill="white"/>
<path d="M281.935 283.508C275.228 280.204 267.256 280.769 261.09 284.994C272.513 286.972 283.802 289.601 294.919 292.893C290.313 290.191 286.701 285.953 281.935 283.508Z" fill="white"/>
<path d="M261.016 284.982L259.763 286.002C260.193 285.646 260.635 285.314 261.09 284.994L261.016 284.982Z" fill="white"/>
<path d="M443.59 336.427C442.472 334.769 440.912 333.466 439.082 332.656L437.313 332.729C450.739 356.425 468.858 377.148 490.576 393.596L443.59 336.427Z" fill="white"/>
<path d="M445.506 300.312C445.506 305.926 440.949 310.471 435.348 310.471C429.746 310.471 425.189 305.926 425.189 300.312C425.189 294.711 429.746 290.166 435.348 290.166C440.949 290.166 445.506 294.711 445.506 300.312Z" fill="white"/>
<path d="M582.68 413.102C586.844 413.09 590.21 409.724 590.222 405.56V249.777C590.222 245.625 586.844 242.247 582.68 242.247C578.515 242.247 575.137 245.625 575.137 249.777V405.56C575.15 409.724 578.515 413.09 582.68 413.102Z" fill="black"/>
<path d="M582.68 413.102C586.844 413.09 590.21 409.724 590.222 405.56V372.529C588.453 370.133 585.652 368.708 582.68 368.708C579.707 368.708 576.906 370.133 575.137 372.529V405.56C575.15 409.724 578.515 413.09 582.68 413.102Z" fill="#2F2E41"/>
<path d="M582.68 381.275C587.151 381.263 590.787 377.639 590.787 373.168V337.643C588.895 335.063 585.886 333.54 582.68 333.54C579.474 333.54 576.464 335.063 574.572 337.643V373.168C574.572 377.639 578.208 381.263 582.68 381.275Z" fill="#00BFA6"/>
<path d="M582.68 374.814C585.947 374.814 588.588 372.16 588.6 368.905V342.986C587.212 341.107 585.013 339.989 582.68 339.989C580.346 339.989 578.147 341.107 576.759 342.986V368.905C576.771 372.16 579.412 374.814 582.68 374.814Z" fill="black"/>
<path d="M350.061 588.11C347.297 585.641 347.064 581.403 349.533 578.639L415.411 504.961C417.88 502.197 422.118 501.963 424.87 504.42C427.633 506.889 427.867 511.127 425.398 513.891L359.52 587.569C357.051 590.333 352.825 590.566 350.061 588.11Z" fill="#00BFA6"/>
<path d="M896.58 709.425C896.58 721.635 893.693 730.983 894.049 738.464C874.285 747.087 853.967 754.371 833.22 760.267C830.874 760.943 828.528 761.569 826.169 762.208C813.382 723.084 800.582 687.252 795.533 683.444C783.987 674.784 778.213 710.616 778.213 701.956C778.213 693.296 783.987 693.296 769.565 681.762C755.12 670.215 763.78 618.279 763.78 618.279L743.573 566.331L766.175 483.489L795.533 375.858H824.413C824.413 375.858 825.26 376.484 826.685 377.639C833.908 383.535 855.687 403.226 853.28 424.919C852.555 431.393 854.164 450.187 856.965 475.209C865.477 550.767 885.033 632.909 885.033 654.59C885.033 683.444 896.58 692.104 896.58 709.425Z" fill="#E6E6E6"/>
<path d="M872.369 474.927C872.332 474.841 872.319 474.779 872.283 474.706C871.632 472.961 870.882 471.266 870.022 469.62C865.146 460.456 870.305 446.379 864.814 430.84C855.933 405.646 845.111 390.783 829.24 377.467C828.761 377.074 828.294 376.681 827.815 376.288L827.791 376.263C817.202 367.566 804.439 359.447 788.581 349.325C785.289 347.224 781.837 345.025 778.25 342.716C773.619 339.743 773.877 329.867 774.135 319.414C774.442 307.806 774.761 295.78 769.062 288.274L768.693 287.795L768.104 287.636C748.572 283.778 728.648 282.243 708.761 283.066H708.736C700.297 283.385 691.907 284.614 683.726 286.739C683.124 286.898 682.51 287.07 681.933 287.267C681.478 287.39 681.024 287.537 680.569 287.685L680.201 287.82L679.918 288.09C674.403 293.605 673.138 303.482 672.523 313.788V313.8C672.413 315.679 672.315 317.559 672.229 319.426C671.762 329.45 671.32 338.908 667.634 343.011C659.417 352.322 649.479 359.975 638.362 365.527C621.054 374.077 607.358 373.806 607.161 373.806L605.564 373.757L605.417 375.33C593.919 397.219 594.361 453.7 594.005 514.186C593.993 517.551 593.968 520.942 593.944 524.344C593.735 552.511 593.207 581.169 591.094 607.285C590.173 618.512 588.981 629.248 587.384 639.284C579.645 688.137 544.575 647.576 527.808 680.079C528.348 683.285 529.282 686.405 530.572 689.377C532.488 690.52 534.466 691.625 536.431 692.731C545.128 697.571 553.985 702.091 563.013 706.28C563.505 706.513 564.008 706.747 564.512 706.968C581.058 714.621 598.12 721.131 615.551 726.438C618.954 727.469 622.356 728.464 625.796 729.398C656.186 737.788 687.473 742.468 718.981 743.352C719.104 743.34 719.239 743.328 719.361 743.328C756.631 742.308 793.654 736.965 829.682 727.433C830.186 727.31 830.69 727.175 831.193 727.039C833.564 726.401 835.91 725.762 838.256 725.099C858.991 719.19 879.309 711.906 899.074 703.283C899.098 704.02 899.172 704.757 899.295 705.481C899.307 705.715 899.344 705.948 899.393 706.182C899.43 705.911 899.467 705.641 899.479 705.383C899.577 704.585 899.663 703.786 899.749 702.988C910.006 603.01 888.706 518.141 872.369 474.927Z" fill="#DDDEDF"/>
<path d="M642.072 229.926C663.139 268.424 708.11 287.181 750.304 275.045C792.499 262.92 820.641 223.158 818.025 179.341C815.409 135.537 782.746 99.3985 739.409 92.3599C696.071 85.3335 653.643 109.299 637.306 150.032C636.876 151.101 636.495 152.182 636.102 153.3C627.036 178.518 629.211 206.415 642.072 229.926Z" fill="#EBAE9C"/>
<path d="M628.596 153.3C632.626 142.011 630.869 147.883 634.947 136.643C632.282 146.593 636.495 152.182 636.102 153.3H747.798V88.3923C715.074 75.4206 683.087 64.3898 663.765 88.3923C627.896 88.3923 598.833 117.444 598.833 153.3H628.596Z" fill="#D3AC6B"/>
<path d="M668.187 333.724C668.273 332.521 668.396 331.268 668.568 330.076C669.772 321.232 672.781 312.731 675.828 304.317C679.046 295.251 682.313 286.161 685.581 277.096C681.38 293.544 682.657 310.901 689.229 326.551C708.085 311.871 696.182 278.3 720.836 278.3C780.093 278.3 841.069 230.27 841.069 170.976C841.069 111.744 815.654 67.436 756.385 67.436C697.091 67.436 648.988 94.571 647.833 153.816C720.836 170.976 654.405 327.705 668.187 333.724Z" fill="#D3AC6B"/>
<path d="M902.378 93.2199C902.378 131.152 871.619 161.899 833.675 161.899C795.718 161.899 764.959 131.152 764.959 93.2199C764.959 55.2875 795.718 24.5288 833.675 24.5288C871.619 24.5288 902.378 55.2875 902.378 93.2199Z" fill="#D3AC6B"/>
<path d="M940.789 487.124C940.556 490.65 940.347 494.421 940.163 498.413C936.613 573.602 939.684 674.821 915.73 729.754C910.375 732.678 904.957 735.478 899.479 738.156C899.258 738.254 899.061 738.365 898.877 738.463C897.403 739.176 895.929 739.888 894.455 740.552C894.393 740.601 894.332 740.638 894.271 740.65C878.081 748.303 861.387 754.85 844.312 760.267C842.224 760.943 840.111 761.569 837.998 762.208C837.544 762.343 837.089 762.478 836.647 762.613C804.476 772.121 771.236 777.464 737.713 778.508C735.969 778.558 734.262 778.594 732.603 778.631C732.014 778.644 731.449 778.656 730.871 778.656C729.004 778.68 727.137 778.693 725.258 778.693C721.474 778.693 717.703 778.644 713.957 778.521C682.436 777.649 651.15 772.956 620.772 764.579C617.332 763.633 613.93 762.65 610.527 761.606C593.084 756.299 576.034 749.801 559.488 742.148C558.984 741.927 558.48 741.694 557.977 741.461C548.961 737.272 540.104 732.751 531.407 727.912C529.442 726.806 527.464 725.7 525.535 724.558C524.258 721.573 523.324 718.453 522.771 715.259C518.976 696.981 515.917 709.314 513.743 671.295C511.753 636.434 510.475 601.474 510.009 581.489C509.861 576.17 509.8 571.895 509.787 568.984C511.569 556.282 540.116 541.873 581.758 528.189C585.701 526.899 589.767 525.61 593.944 524.344C605.196 520.868 617.234 517.465 629.8 514.186C661.8 505.808 697.349 498.118 732.616 491.78C750.034 488.66 767.367 485.859 784.208 483.488C813.75 479.3 841.708 476.401 865.612 475.209C867.91 475.099 870.157 474.988 872.369 474.927C874.752 474.828 877.073 474.755 879.358 474.705C913.802 473.956 937.338 477.543 940.789 487.124Z" fill="#2F2E41"/>
<path d="M940.789 487.124C940.556 490.65 940.347 494.421 940.163 498.413C914.06 470.308 632.81 595.861 513.743 671.295C511.753 636.434 510.475 601.474 510.009 581.489C509.861 576.17 509.8 571.895 509.787 568.984C511.569 556.282 540.116 541.873 581.758 528.189C585.701 526.899 589.767 525.61 593.944 524.344C605.196 520.868 617.234 517.465 629.8 514.186C661.8 505.808 697.349 498.118 732.616 491.78C750.022 488.66 767.367 485.859 784.208 483.488C813.75 479.3 841.708 476.401 865.612 475.209C867.91 475.099 870.157 474.988 872.369 474.927C874.752 474.828 877.073 474.755 879.358 474.705C913.802 473.956 937.338 477.543 940.789 487.124Z" fill="black"/>
<path d="M368.831 574.241C374.174 580.973 382.22 584.99 390.807 585.223C399.393 585.444 407.635 581.857 413.323 575.421L508.756 614.606L498.462 562.007L409.416 532.869C397.71 523.841 381.09 524.983 370.735 535.535C360.392 546.087 359.569 562.719 368.831 574.241Z" fill="#EBAE9C"/>
<path d="M686.257 355.246L685.741 355.197L630.083 359.226C615.797 360.27 602.641 367.394 593.956 378.781C591.966 381.398 590.234 384.199 588.809 387.159L588.797 387.171C583.994 396.974 582.544 408.091 584.682 418.802L610.871 550.632L547.843 544.908L524.823 548.838L497.676 537.894L441.956 538.839L440.666 543.102L428.972 581.845L428.063 584.879L513.141 638.473L537.807 630.98L549.427 639.898L549.992 639.911L573.037 640.365L671.307 642.294L698.172 594.718L702.361 587.262C733.562 517.404 741.263 468.625 738.819 435.029C737.541 417.279 733.439 403.779 728.464 393.608C713.097 362.186 687.338 355.516 686.257 355.246Z" fill="#DDDEDF"/>
<path d="M842.359 154.197C815.875 148.251 794.28 129.174 785.092 103.636C781.063 91.9545 779.54 79.1179 772.784 68.7136C783.09 54.5626 791.357 39.0359 797.339 22.5756C799.648 16.2126 805.066 4.65351 795.877 1.14035C788.556 -1.64808 780.24 5.09573 775.892 10.4023C772.6 14.4314 770.229 19.1484 768.976 24.1971C767.477 17.5884 765.979 10.9797 764.48 4.37099C764.087 3.05662 762.723 2.28274 761.384 2.6144C749.113 4.70265 740.219 16.0652 738.672 28.0296C737.836 34.1838 739.237 40.4362 742.627 45.6446C746.558 51.6391 752.331 55.9384 757.822 60.4097C763.669 65.1513 768.62 70.2122 771.764 77.1648C775.019 84.3754 776.493 92.2862 778.655 99.8653C787.033 129.518 810.962 152.231 841.02 159.036C844.177 159.737 845.528 154.884 842.359 154.197ZM773.079 34.0732C772.685 27.7594 774.356 21.4823 777.832 16.2126C779.577 13.5224 781.751 11.1639 784.294 9.21081C786.689 7.38052 790.227 4.96061 793.408 5.62394C797.523 6.49609 795.865 11.1025 794.993 13.8664C793.838 17.5269 792.573 21.1384 791.185 24.7253C788.495 31.6656 785.362 38.4463 781.812 45.0058C779.982 48.4084 778.017 51.7496 775.953 55.0417C774.54 48.7892 773.128 42.5491 771.715 36.2966C772.636 35.9649 773.201 35.0437 773.079 34.0732ZM743.72 35.0682C742.025 23.3003 748.929 11.9747 760.168 8.0807C764.161 25.6957 768.153 43.3107 772.145 60.9133C771.322 62.1294 770.462 63.321 769.615 64.5248C769.393 64.2668 769.185 63.9966 768.951 63.7509C760.586 54.6486 745.993 48.433 743.72 35.0682Z" fill="#00BFA6"/>
</svg>
