<svg width="260" height="676" viewBox="0 0 260 676" fill="none" xmlns="http://www.w3.org/2000/svg">
<path d="M172.854 12.9455C177.185 11.9619 190.608 7.94833 194.388 15.502C198.167 23.0557 203.837 26.1242 206.199 26.7143C208.955 28.288 214.467 33.4418 214.467 41.4676C214.467 51.4998 215.649 53.2702 219.192 59.7616C222.736 66.253 223.917 71.5642 223.326 75.105C222.736 78.6457 220.373 83.3668 223.326 92.2187C226.279 101.071 227.46 99.8904 226.87 106.382C226.397 111.575 224.31 115.627 223.326 117.004C223.129 120.938 223.562 129.279 226.87 131.167C231.004 133.528 231.594 142.38 230.413 144.74C229.232 147.101 227.46 155.363 230.413 160.674C233.366 165.985 233.957 168.936 230.413 175.427C227.578 180.62 221.161 180.596 223.326 182.957V189H206.199H197.931H190.844L194.388 110.513" stroke="#D3AC6B" stroke-width="20"/>
<path d="M173.048 14.5406C169.059 13.1353 156.795 7.82238 152.437 14.9374C148.078 22.0523 142.402 24.5322 140.109 24.8827C137.341 26.1695 131.596 30.7327 130.759 38.6912C129.714 48.6393 128.413 50.2775 124.389 56.3626C120.364 62.4477 118.695 67.5971 118.884 71.1668C119.073 74.7365 120.813 79.6526 117.1 88.137C113.388 96.6215 112.395 95.3339 112.276 101.829C112.181 107.026 113.73 111.251 114.517 112.715C114.293 116.635 113.014 124.863 109.693 126.407C105.541 128.337 104.061 137.056 104.93 139.514C105.8 141.972 106.613 150.341 103.27 155.314C99.9264 160.288 99.0609 163.155 101.732 169.944C103.869 175.375 109.935 175.988 107.643 178.114L112.276 185.807L123.195 185.807L131.006 186.628L137.702 187.332L142.534 109.151" stroke="#D3AC6B" stroke-width="22"/>
<path d="M157.686 2.0845C157.686 2.0845 126.366 6.71181 124.347 70.2139C122.666 123.128 119.224 152.622 135.664 163.659C141.543 167.605 148.451 167.949 154.73 165.254L221.848 136.359C221.848 136.359 222.86 41.1097 199.62 17.9581C176.38 -5.19342 157.692 2.0845 157.692 2.0845H157.686Z" fill="#D3AC6B"/>
<path d="M146.504 329.7C146.504 329.7 99.6942 308.12 83.6742 271.15C77.0548 255.6 65.5701 242.617 50.9442 234.15C43.9689 230.185 36.6449 226.868 29.0642 224.24" stroke="#535461" stroke-width="2" stroke-miterlimit="10"/>
<path d="M18.8142 201.01C23.3742 205.01 29.3842 224.82 29.3842 224.82C29.3842 224.82 8.9342 221.52 4.3842 217.53C3.1761 216.621 2.16852 215.472 1.42433 214.155C0.680136 212.839 0.215338 211.383 0.0589707 209.879C-0.0973967 208.375 0.0580188 206.855 0.515514 205.414C0.973009 203.973 1.72276 202.641 2.71794 201.503C3.71311 200.364 4.93234 199.443 6.29948 198.797C7.66662 198.151 9.15229 197.793 10.6637 197.747C12.1752 197.701 13.6799 197.967 15.084 198.528C16.4881 199.09 17.7613 199.935 18.8242 201.01H18.8142Z" fill="#00BFA6"/>
<path d="M56.0243 209.44C57.6843 215.27 51.9543 235.18 51.9543 235.18C51.9543 235.18 36.5843 221.29 34.9543 215.46C34.4305 214.039 34.206 212.524 34.2948 211.012C34.3836 209.5 34.7838 208.022 35.4704 206.672C36.157 205.321 37.115 204.127 38.2846 203.164C39.4542 202.201 40.8101 201.491 42.2672 201.076C43.7244 200.662 45.2514 200.553 46.7526 200.756C48.2538 200.96 49.6968 201.471 50.9912 202.258C52.2856 203.045 53.4034 204.091 54.2747 205.33C55.1459 206.57 55.7518 207.976 56.0543 209.46L56.0243 209.44Z" fill="#00BFA6"/>
<path d="M98.6943 247.79C97.2343 253.66 82.2343 267.95 82.2343 267.95C82.2343 267.95 75.9743 248.2 77.4843 242.33C78.3586 239.682 80.2063 237.464 82.6535 236.126C85.1007 234.789 87.9647 234.43 90.666 235.124C93.3673 235.818 95.7043 237.512 97.204 239.863C98.7038 242.215 99.2543 245.048 98.7443 247.79H98.6943Z" fill="#00BFA6"/>
<path d="M124.444 284.07C123.954 290.07 111.584 306.73 111.584 306.73C111.584 306.73 102.074 288.32 102.584 282.28C103.01 279.532 104.46 277.048 106.643 275.326C108.826 273.604 111.581 272.773 114.352 273C117.123 273.226 119.706 274.494 121.58 276.548C123.454 278.602 124.481 281.29 124.454 284.07H124.444Z" fill="#00BFA6"/>
<path d="M37.6842 253.3C43.6842 252.81 60.3442 240.44 60.3442 240.44C60.3442 240.44 41.9342 230.94 35.8942 231.44C34.3832 231.455 32.8914 231.781 31.5118 232.397C30.1323 233.014 28.8946 233.909 27.876 235.025C26.8574 236.141 26.0797 237.455 25.5915 238.885C25.1032 240.315 24.9149 241.831 25.0381 243.337C25.1614 244.843 25.5937 246.307 26.308 247.639C27.0223 248.971 28.0033 250.141 29.1898 251.077C30.3764 252.012 31.743 252.694 33.2044 253.078C34.6659 253.462 36.1909 253.541 37.6842 253.31V253.3Z" fill="#00BFA6"/>
<path d="M68.3343 295.35C73.9543 293.07 86.1043 276.3 86.1043 276.3C86.1043 276.3 65.6943 272.74 60.1043 275.02C57.615 276.251 55.6835 278.378 54.6974 280.974C53.7112 283.57 53.7435 286.443 54.7877 289.016C55.832 291.59 57.8109 293.673 60.3272 294.848C62.8435 296.022 65.7111 296.202 68.3543 295.35H68.3343Z" fill="#00BFA6"/>
<path d="M103.734 332.13C109.654 330.83 124.474 316.35 124.474 316.35C124.474 316.35 104.964 309.35 99.0443 310.69C96.3679 311.471 94.0878 313.239 92.665 315.636C91.2422 318.034 90.7828 320.882 91.3798 323.605C91.9768 326.329 93.5856 328.724 95.8809 330.306C98.1762 331.889 100.987 332.54 103.744 332.13H103.734Z" fill="#00BFA6"/>
<path opacity="0.1" d="M18.8142 201.01C23.3742 205.01 29.3842 224.82 29.3842 224.82C29.3842 224.82 8.9342 221.52 4.3842 217.53C3.1761 216.621 2.16852 215.472 1.42433 214.155C0.680136 212.839 0.215338 211.383 0.0589707 209.879C-0.0973967 208.375 0.0580188 206.855 0.515514 205.414C0.973009 203.973 1.72276 202.641 2.71794 201.503C3.71311 200.364 4.93234 199.443 6.29948 198.797C7.66662 198.151 9.15229 197.793 10.6637 197.747C12.1752 197.701 13.6799 197.967 15.084 198.528C16.4881 199.09 17.7613 199.935 18.8242 201.01H18.8142Z" fill="#00BFA6"/>
<path opacity="0.1" d="M56.0243 209.44C57.6843 215.27 51.9543 235.18 51.9543 235.18C51.9543 235.18 36.5843 221.29 34.9543 215.46C34.4305 214.039 34.206 212.524 34.2948 211.012C34.3836 209.5 34.7838 208.022 35.4704 206.672C36.157 205.321 37.115 204.127 38.2846 203.164C39.4542 202.201 40.8101 201.491 42.2672 201.076C43.7244 200.662 45.2514 200.553 46.7526 200.756C48.2538 200.96 49.6968 201.471 50.9912 202.258C52.2856 203.045 53.4034 204.091 54.2747 205.33C55.1459 206.57 55.7518 207.976 56.0543 209.46L56.0243 209.44Z" fill="#00BFA6"/>
<path opacity="0.1" d="M98.6943 247.79C97.2343 253.66 82.2343 267.95 82.2343 267.95C82.2343 267.95 75.9743 248.2 77.4843 242.33C78.3586 239.682 80.2063 237.464 82.6535 236.126C85.1007 234.789 87.9647 234.43 90.666 235.124C93.3673 235.818 95.7043 237.512 97.204 239.863C98.7038 242.215 99.2543 245.048 98.7443 247.79H98.6943Z" fill="#00BFA6"/>
<path opacity="0.1" d="M124.444 284.07C123.954 290.07 111.584 306.73 111.584 306.73C111.584 306.73 102.074 288.32 102.584 282.28C103.01 279.532 104.46 277.048 106.643 275.326C108.826 273.604 111.581 272.773 114.352 273C117.123 273.226 119.706 274.494 121.58 276.548C123.454 278.602 124.481 281.29 124.454 284.07H124.444Z" fill="#00BFA6"/>
<path opacity="0.1" d="M37.6842 253.3C43.6842 252.81 60.3442 240.44 60.3442 240.44C60.3442 240.44 41.9342 230.94 35.8942 231.44C34.3832 231.455 32.8914 231.781 31.5118 232.397C30.1323 233.014 28.8946 233.909 27.876 235.025C26.8574 236.141 26.0797 237.455 25.5915 238.885C25.1032 240.315 24.9149 241.831 25.0381 243.337C25.1614 244.843 25.5937 246.307 26.308 247.639C27.0223 248.971 28.0033 250.141 29.1898 251.077C30.3764 252.012 31.743 252.694 33.2044 253.078C34.6659 253.462 36.1909 253.541 37.6842 253.31V253.3Z" fill="#00BFA6"/>
<path opacity="0.1" d="M68.3343 295.35C73.9543 293.07 86.1043 276.3 86.1043 276.3C86.1043 276.3 65.6943 272.74 60.1043 275.02C57.615 276.251 55.6835 278.378 54.6974 280.974C53.7112 283.57 53.7435 286.443 54.7877 289.016C55.832 291.59 57.8109 293.673 60.3272 294.848C62.8435 296.022 65.7111 296.202 68.3543 295.35H68.3343Z" fill="#00BFA6"/>
<path opacity="0.1" d="M103.734 332.13C109.654 330.83 124.474 316.35 124.474 316.35C124.474 316.35 104.964 309.35 99.0443 310.69C96.3679 311.471 94.0878 313.239 92.665 315.636C91.2422 318.034 90.7828 320.882 91.3798 323.605C91.9768 326.329 93.5856 328.724 95.8809 330.306C98.1762 331.889 100.987 332.54 103.744 332.13H103.734Z" fill="#00BFA6"/>
<path d="M168.864 476.53C168.134 479.09 167.394 482.03 166.704 485.02C163.978 496.813 162.99 508.941 163.774 521.02C165.224 543.37 167.014 582.26 162.624 589.95C158.384 597.37 159.904 617.26 161.314 629.27C161.984 634.95 162.624 638.85 162.624 638.85L138.174 636.25L137.394 630.59L132.454 594.59C132.454 594.59 119.454 516.04 123.614 510.32C127.774 504.6 123.614 478.59 123.614 478.59L115.284 432.85L109.724 404.6L103.314 371.99L162.094 376.15C162.094 376.15 163.234 386.53 164.624 400.65C167.324 427.97 170.924 469.33 168.864 476.53Z" fill="#EBAE9C"/>
<path d="M243.774 371.45L238.724 397.16L231.814 432.31L223.494 478.09C223.494 478.09 219.334 504.09 223.494 509.82C227.654 515.55 214.654 594.09 214.654 594.09L209.714 630.09L208.934 635.75L184.484 638.35C184.484 638.35 185.134 634.35 185.804 628.67C187.214 616.67 188.714 596.85 184.484 589.45C180.134 581.83 181.844 543.64 183.284 521.2C184.1 508.444 183.018 495.638 180.074 483.2C179.474 480.69 178.854 478.25 178.234 476.08C176.314 469.35 179.324 432.82 181.924 405.76C183.544 388.89 184.994 375.69 184.994 375.69L243.774 371.45Z" fill="#EBAE9C"/>
<path d="M248.657 370.903C242.089 373.066 229.883 338.449 229.883 338.449L206.427 256.228L207.167 227.57L208.772 165.355L138.845 167.518C138.845 167.518 125.71 206.481 121.019 217.286C120.065 219.89 119.424 222.633 119.115 225.438C116.616 242.959 117.311 276.786 117.311 276.786L112.15 334.664C112.15 334.664 111.681 363.333 103.237 357.925C94.7925 352.518 93.8542 329.849 93.8542 329.849L97.0389 236.752C97.0389 236.752 97.0389 235.618 96.9306 233.57C96.5878 222.214 95.6676 182.783 98.4463 153.501C98.6628 151.227 98.8763 149.085 99.0868 147.075C102.1 118.583 105.555 116.358 133.18 111.314C148.932 108.434 155.093 98.6386 157.403 90.1222C158.63 85.6076 159.012 80.8439 158.522 76.1466C158.522 76.1466 190.431 47.4779 186.678 82.0945C186.186 86.1857 186.401 90.3488 187.31 94.344C191.144 110.493 206.616 117.304 215.972 119.987C221.943 121.682 227.205 125.747 230.835 131.469C234.464 137.191 236.229 144.203 235.819 151.276V151.557C235.603 155.155 235.022 158.711 234.087 162.153C234.087 162.153 234.556 182.17 233.185 194.606C232.508 200.575 232.698 214.759 233.077 227.882C233.492 242.138 234.123 255.167 234.123 255.167L244.949 337.388C244.949 337.388 255.234 368.698 248.657 370.903Z" fill="#EBAE9C"/>
<path opacity="0.1" d="M189.334 92.9699C183.926 95.16 178.05 95.9365 172.259 95.2261C166.467 94.5158 160.953 92.3421 156.234 88.9099C157.595 84.5683 158.017 79.9872 157.474 75.4699C157.474 75.4699 192.844 47.8999 188.684 81.1899C188.122 85.121 188.343 89.1245 189.334 92.9699Z" fill="black"/>
<path d="M173.354 94C190.751 94 204.854 78.7777 204.854 60C204.854 41.2223 190.751 26 173.354 26C155.957 26 141.854 41.2223 141.854 60C141.854 78.7777 155.957 94 173.354 94Z" fill="#EBAE9C"/>
<path opacity="0.1" d="M162.624 638.85L138.174 636.25L137.394 630.59C142.324 626.07 149.614 624.81 149.614 624.81C151.614 624.15 156.494 626.42 159.824 628.17C160.378 628.456 160.881 628.831 161.314 629.28C161.984 634.92 162.624 638.85 162.624 638.85Z" fill="black"/>
<path d="M149.624 625.85C149.624 625.85 137.624 627.93 134.014 636.25C134.014 636.25 131.934 648.73 124.654 658.1L124.444 658.38C123.263 659.945 122.542 661.808 122.361 663.761C122.181 665.714 122.549 667.678 123.424 669.432C124.299 671.187 125.646 672.663 127.313 673.695C128.981 674.726 130.903 675.271 132.864 675.27H152.614C154.27 675.27 155.902 674.879 157.379 674.131C158.856 673.382 160.136 672.296 161.114 670.96L166.594 663.48C167.442 662.326 167.999 660.984 168.219 659.569C168.438 658.154 168.313 656.707 167.854 655.35C166.084 650.13 163.394 641.2 163.084 634.35C163.044 633.276 162.723 632.232 162.152 631.321C161.582 630.41 160.783 629.665 159.834 629.16C156.494 627.43 151.594 625.16 149.624 625.85Z" fill="#F3E6E2"/>
<path opacity="0.1" d="M209.704 630.05L208.924 635.71L184.474 638.31C184.474 638.31 185.124 634.31 185.794 628.63C186.163 628.283 186.577 627.987 187.024 627.75C190.344 625.99 195.444 623.59 197.474 624.26C197.474 624.26 204.774 625.53 209.704 630.05Z" fill="black"/>
<path d="M197.474 625.3C197.474 625.3 209.474 627.38 213.084 635.7C213.084 635.7 215.164 648.18 222.444 657.55L222.654 657.83C223.836 659.395 224.557 661.258 224.737 663.211C224.917 665.163 224.549 667.128 223.675 668.882C222.8 670.637 221.453 672.113 219.785 673.145C218.117 674.176 216.195 674.721 214.234 674.72H194.494C192.838 674.72 191.206 674.329 189.729 673.581C188.252 672.832 186.973 671.746 185.994 670.41L181.164 663.85C180.118 662.432 179.427 660.784 179.15 659.044C178.873 657.304 179.019 655.522 179.574 653.85C181.354 648.47 183.804 640.02 184.034 633.57C184.069 632.58 184.365 631.616 184.892 630.777C185.419 629.938 186.158 629.252 187.034 628.79C190.354 627.02 195.454 624.63 197.474 625.3Z" fill="#F3E6E2"/>
<path opacity="0.1" d="M162.104 376.14C162.104 376.14 163.244 386.52 164.634 400.64C153.714 399.31 142.684 400.24 140.254 399.55C137.824 398.86 122.024 404.02 109.734 404.55L103.324 371.94L162.104 376.14Z" fill="black"/>
<path opacity="0.1" d="M243.774 371.45L238.724 397.16C231.914 397.16 225.584 397.65 223.484 399.54C218.554 403.98 195.394 410.76 181.914 405.68C183.534 388.81 184.984 375.61 184.984 375.61L243.774 371.45Z" fill="black"/>
<path d="M121.372 221.14C133.318 294.277 138.38 228.38 121.372 263.581C104.364 298.782 85.8542 386.993 85.8542 386.993C85.8542 386.993 101.484 385.547 105.619 396.635C109.754 407.722 141.923 395.707 145.148 396.635C148.373 397.562 168.588 395.188 180.074 401.455C191.56 407.722 214.082 400.973 218.685 396.635C223.288 392.296 250.854 395.707 250.854 395.707C250.854 395.707 229.163 289.678 215.46 263.581C201.756 237.484 203.041 293.5 215.46 221.14C227.879 148.78 109.427 148.003 121.372 221.14Z" fill="#39615C"/>
<path opacity="0.1" d="M119.234 114.74C120.234 114.74 147.324 114.74 152.004 113.74Z" fill="black"/>
<path opacity="0.1" d="M197.734 119.95C211.254 119.95 214.384 119.95 219.064 118.95Z" fill="black"/>
<path opacity="0.05" d="M155.494 138.85C155.494 138.85 169.174 146.02 169.804 153.27C169.804 153.27 174.894 139.77 182.154 139.14" fill="black"/>
<path opacity="0.1" d="M166.584 662.16L161.104 669.64C160.126 670.975 158.846 672.062 157.369 672.81C155.892 673.559 154.26 673.95 152.604 673.95H132.854C130.183 673.954 127.609 672.943 125.654 671.122C123.7 669.301 122.509 666.805 122.324 664.14C122.213 665.591 122.402 667.049 122.881 668.423C123.359 669.797 124.117 671.058 125.105 672.125C126.094 673.193 127.293 674.045 128.626 674.627C129.96 675.21 131.399 675.51 132.854 675.51H152.604C154.26 675.51 155.892 675.119 157.369 674.37C158.846 673.622 160.126 672.535 161.104 671.2L166.584 663.72C167.865 661.972 168.466 659.818 168.274 657.66C168.133 659.286 167.549 660.843 166.584 662.16Z" fill="black"/>
<path opacity="0.1" d="M214.234 673.42H194.494C192.839 673.42 191.206 673.029 189.729 672.281C188.253 671.532 186.973 670.446 185.994 669.11L181.164 662.52C179.927 660.836 179.195 658.835 179.054 656.75C178.858 659.37 179.607 661.974 181.164 664.09L185.994 670.68C186.973 672.016 188.253 673.102 189.729 673.851C191.206 674.599 192.839 674.99 194.494 674.99H214.234C215.689 674.99 217.129 674.69 218.462 674.107C219.796 673.525 220.994 672.673 221.983 671.605C222.972 670.538 223.729 669.277 224.208 667.903C224.686 666.529 224.876 665.071 224.764 663.62C224.577 666.283 223.386 668.776 221.431 670.596C219.476 672.415 216.904 673.424 214.234 673.42Z" fill="black"/>
<g opacity="0.05">
<path d="M219.354 251C208.354 235.15 210.529 261.5 223.214 213.5C225.616 204.412 227.354 168 213.354 162C213.354 167.5 218.143 198.677 213.354 204C208.214 236.11 204.854 238 202.854 252.85C226.264 273.66 247.404 390.7 247.404 390.7C247.404 390.7 216.194 387.06 210.994 391.7C205.794 396.34 180.304 403.7 167.294 396.9C154.284 390.1 131.404 392.74 127.764 391.7C125.324 391 119.314 394.33 106.854 394.5C104.854 406 136.694 398.97 140.244 400C143.794 401.03 166.774 394.82 179.774 401.58C192.774 408.34 218.264 401.06 223.474 396.38C228.684 391.7 259.884 395.38 259.884 395.38C259.884 395.38 227.354 258.15 219.354 251Z" fill="black"/>
<path d="M86.4742 383C86.0642 384.85 85.8542 385.87 85.8542 385.87C87.8079 385.745 89.7688 385.792 91.7142 386.01C90.1478 384.721 88.3767 383.704 86.4742 383Z" fill="black"/>
</g>
<path d="M194.354 32.5C191.854 35.6667 188.354 43.6 194.354 50C200.354 56.4 196.854 63 194.354 65.5C192.521 67.5 189.954 73.1 194.354 79.5C198.754 85.9 196.188 92.5 194.354 95C191.854 96.8333 188.354 102.8 194.354 112C200.354 121.2 196.854 124.167 194.354 124.5" stroke="#D3AC6B"/>
<path d="M145.167 43C142.667 46.1667 139.167 54.1 145.167 60.5C151.167 66.9 147.667 73.5 145.167 76C143.334 78 140.767 83.6 145.167 90C149.567 96.4 147 103 145.167 105.5C142.667 107.333 139.167 113.3 145.167 122.5C151.167 131.7 152.854 131.667 150.354 132" stroke="#D3AC6B" stroke-width="2"/>
<path d="M145.167 43C142.667 46.1667 139.167 54.1 145.167 60.5C151.167 66.9 147.667 73.5 145.167 76C143.334 78 140.767 83.6 145.167 90C149.567 96.4 147 103 145.167 105.5" stroke="#D3AC6B" stroke-width="2"/>
<path d="M201.354 40C203.995 43.3732 207.693 51.8239 201.354 58.6413C195.015 65.4587 198.713 72.4891 201.354 75.1522C203.291 77.2826 206.003 83.2478 201.354 90.0652C196.706 96.8826 199.417 103.913 201.354 106.576C203.995 108.529 207.693 114.885 201.354 124.685C195.015 134.485 198.713 137.645 201.354 138" stroke="#D3AC6B" stroke-width="2"/>
<path d="M121.854 113.5C123.564 122.23 119.854 184 123.354 216" stroke="#39615C" stroke-width="5"/>
<path d="M214.854 120C211.813 129 214.854 205 213.354 210.5" stroke="#39615C" stroke-width="5"/>
<rect x="122.854" y="163" width="93" height="33" fill="#39615C"/>
</svg>
