<svg width="927" height="800" viewBox="0 0 927 800" fill="none" xmlns="http://www.w3.org/2000/svg">
<g clip-path="url(#clip0_5_19)">
<path d="M20.3443 732.541L18.3381 732.089C40.7078 632.608 96.9249 542.271 176.633 477.717C236.896 428.988 308.568 396.398 384.903 383.015C461.237 369.633 539.722 375.898 612.967 401.22C686.211 426.543 751.806 470.09 803.576 527.762C855.345 585.433 891.584 655.332 908.882 730.875L906.878 731.331C859.525 523.416 677.304 378.206 463.748 378.206C252.991 378.206 66.5126 527.225 20.3443 732.541Z" fill="#3F3D56"/>
<path d="M463.037 800C718.766 800 926.075 774.343 926.075 742.693C926.075 711.044 718.766 685.387 463.037 685.387C207.309 685.387 0 711.044 0 742.693C0 774.343 207.309 800 463.037 800Z" fill="#3F3D56"/>
<path d="M571.92 689.738C571.92 690.725 571.849 691.711 571.707 692.688C571.402 694.833 570.753 696.915 569.786 698.854C568.747 700.942 567.359 702.839 565.682 704.461C565.492 704.647 565.295 704.829 565.094 705.008C561.82 707.956 557.678 709.761 553.291 710.152C552.676 710.209 552.049 710.239 551.419 710.239C546.453 710.242 541.656 708.442 537.918 705.173C534.18 701.904 531.756 697.39 531.096 692.468C530.977 691.563 530.918 690.651 530.918 689.738C530.918 688.583 531.014 687.43 531.207 686.291C531.572 684.135 532.283 682.051 533.314 680.122C533.783 679.228 534.323 678.372 534.927 677.563C536.831 674.979 539.315 672.88 542.18 671.433C545.045 669.987 548.21 669.235 551.419 669.238C552.118 669.237 552.816 669.272 553.511 669.344C555.64 669.557 557.723 670.107 559.68 670.973C561.491 671.771 563.176 672.827 564.684 674.108C565.082 674.446 565.466 674.799 565.838 675.168C567.364 676.673 568.643 678.411 569.627 680.316C570.639 682.255 571.327 684.346 571.665 686.508C571.835 687.576 571.92 688.656 571.92 689.738Z" fill="#F2F2F2"/>
<path d="M559.63 680.262L559.597 686.441L565.776 686.475L565.81 680.295L559.63 680.262Z" fill="#CCCCCC"/>
<path d="M571.92 689.738C571.92 690.725 571.849 691.711 571.707 692.688L565.743 692.654L565.777 686.473L571.665 686.508C571.835 687.576 571.92 688.656 571.92 689.738Z" fill="#CCCCCC"/>
<path d="M569.786 698.854C568.747 700.942 567.359 702.839 565.682 704.461L565.709 698.835L569.786 698.854Z" fill="#CCCCCC"/>
<path d="M541.138 671.998L541.127 673.983L538.321 673.968C539.203 673.233 540.146 672.574 541.138 671.998Z" fill="#CCCCCC"/>
<path d="M553.511 669.344L553.484 674.051L547.304 674.017L547.326 669.648C548.673 669.374 550.044 669.237 551.419 669.238C552.118 669.237 552.816 669.272 553.511 669.344Z" fill="#CCCCCC"/>
<path d="M564.684 674.109L559.665 674.082L559.68 670.973C561.491 671.771 563.176 672.827 564.684 674.109Z" fill="#CCCCCC"/>
<path d="M534.927 677.563L534.912 680.13L533.314 680.122C533.783 679.228 534.323 678.372 534.927 677.563Z" fill="#CCCCCC"/>
<path d="M541.126 673.983L541.093 680.163L547.272 680.196L547.305 674.017L541.126 673.983Z" fill="#CCCCCC"/>
<path d="M553.484 674.05L553.451 680.229L559.63 680.262L559.664 674.083L553.484 674.05Z" fill="#CCCCCC"/>
<path d="M569.627 680.316L565.811 680.297L565.838 675.168C567.364 676.673 568.643 678.411 569.627 680.316Z" fill="#CCCCCC"/>
<path d="M534.913 680.129L534.88 686.309L541.059 686.342L541.093 680.163L534.913 680.129Z" fill="#CCCCCC"/>
<path d="M547.277 680.195L547.244 686.374L553.423 686.407L553.457 680.228L547.277 680.195Z" fill="#CCCCCC"/>
<path d="M541.059 686.342L541.026 692.521L547.205 692.554L547.239 686.375L541.059 686.342Z" fill="#CCCCCC"/>
<path d="M553.423 686.407L553.39 692.587L559.569 692.62L559.603 686.441L553.423 686.407Z" fill="#CCCCCC"/>
<path d="M534.882 686.31L534.847 692.487L531.097 692.468C530.977 691.563 530.918 690.651 530.918 689.738C530.918 688.583 531.014 687.43 531.207 686.291L534.882 686.31Z" fill="#CCCCCC"/>
<path d="M534.847 692.488L534.814 698.667L540.993 698.7L541.026 692.521L534.847 692.488Z" fill="#CCCCCC"/>
<path d="M547.205 692.554L547.172 698.733L553.351 698.767L553.385 692.587L547.205 692.554Z" fill="#CCCCCC"/>
<path d="M559.564 692.621L559.531 698.8L565.71 698.833L565.743 692.654L559.564 692.621Z" fill="#CCCCCC"/>
<path d="M534.813 698.668L534.798 701.739C534.093 700.768 533.475 699.737 532.953 698.656L534.813 698.668Z" fill="#CCCCCC"/>
<path d="M540.993 698.7L540.96 704.879L547.139 704.913L547.172 698.733L540.993 698.7Z" fill="#CCCCCC"/>
<path d="M553.357 698.766L553.324 704.945L559.503 704.978L559.536 698.799L553.357 698.766Z" fill="#CCCCCC"/>
<path d="M540.96 704.879L540.945 707.365C539.741 706.647 538.614 705.807 537.581 704.86L540.96 704.879Z" fill="#CCCCCC"/>
<path d="M553.317 704.947L553.291 710.152C552.676 710.209 552.049 710.239 551.419 710.239C549.972 710.241 548.529 710.088 547.114 709.784L547.14 704.913L553.317 704.947Z" fill="#CCCCCC"/>
<path d="M565.094 705.008C563.43 706.502 561.534 707.714 559.479 708.595L559.498 704.977L565.094 705.008Z" fill="#CCCCCC"/>
<path d="M756.777 417.629L781.481 513.7C781.481 513.7 782.396 581.408 787.886 607.942C793.376 634.476 811.675 698.523 811.675 698.523L833.634 702.183L829.059 612.516C829.059 612.516 829.059 558.533 824.484 546.639C819.91 534.744 810.76 413.054 810.76 413.054L756.777 417.629Z" fill="#EBAE9C"/>
<g opacity="0.1" filter="url(#filter0_d_5_19)">
<path d="M757 413.747L781.704 513.43C781.704 513.43 782.619 583.684 788.109 611.215C793.599 638.747 811.898 705.202 811.898 705.202L833.857 709L829.282 615.962C829.282 615.962 829.282 559.949 824.707 547.608C820.133 535.266 810.983 409 810.983 409L757 413.747Z" fill="#875555"/>
<path d="M782.204 513.424L782.203 513.366L782.189 513.31L757.626 414.194L810.521 409.543C810.538 409.773 810.56 410.079 810.588 410.458C810.656 411.386 810.757 412.748 810.886 414.487C811.146 417.964 811.521 422.945 811.986 428.96C812.915 440.992 814.202 457.162 815.631 473.719C817.061 490.275 818.634 507.219 820.136 520.798C820.887 527.587 821.62 533.539 822.31 538.182C822.996 542.804 823.645 546.181 824.239 547.781C825.356 550.795 826.21 556.545 826.854 563.54C827.496 570.514 827.925 578.662 828.211 586.431C828.496 594.199 828.639 601.582 828.711 607.024C828.747 609.744 828.764 611.979 828.773 613.534C828.778 614.311 828.78 614.919 828.781 615.331C828.782 615.538 828.782 615.695 828.782 615.802L828.782 615.922L828.782 615.952V615.96V615.961C828.782 615.962 828.782 615.962 829.282 615.962H828.782V615.974L828.783 615.987L833.327 708.401L812.296 704.764L812.173 704.317C812.038 703.824 811.839 703.097 811.583 702.161C811.072 700.291 810.336 697.588 809.436 694.258C807.634 687.599 805.176 678.432 802.546 668.406C797.284 648.349 791.341 624.866 788.599 611.117C785.863 597.396 784.263 572.988 783.347 551.977C782.89 541.478 782.604 531.84 782.433 524.825C782.347 521.318 782.29 518.468 782.254 516.494C782.236 515.507 782.224 514.739 782.216 514.218C782.212 513.958 782.209 513.759 782.207 513.626L782.205 513.475L782.204 513.437L782.204 513.427L782.204 513.425C782.204 513.424 782.204 513.424 781.704 513.43L782.204 513.424Z" stroke="#EBAE9C"/>
</g>
<path d="M825.268 20.9564C794.77 20.9564 770.046 48.3945 770.046 82.2411V125.244H783.272L790.928 109.311L789.014 125.244H874.023L880.984 110.759L879.244 125.244H888.815V91.4789C888.815 52.5305 860.364 20.9564 825.268 20.9564Z" fill="#D3AC6B"/>
<path d="M739.445 408.532C739.445 408.532 728.466 455.195 743.105 459.77C757.745 464.345 754.085 408.532 754.085 408.532H739.445Z" fill="#EBAE9C"/>
<path d="M762.027 184.439L754.424 192.414L750.729 350.67L731.652 425.077L768.1 430.012L791.656 279.772L788.853 202.77L762.027 184.439Z" fill="#3F3D56"/>
<path opacity="0.9" d="M761.503 184.766L753.9 192.741L750.205 350.997L731.128 425.404L767.576 430.339L791.132 280.099L788.329 203.098L761.503 184.766Z" fill="#DDDEDF"/>
<path d="M820.383 119.235C842.094 119.235 859.695 101.634 859.695 79.9219C859.695 58.2101 842.094 40.6091 820.383 40.6091C798.671 40.6091 781.07 58.2101 781.07 79.9219C781.07 101.634 798.671 119.235 820.383 119.235Z" fill="#EBAE9C"/>
<path d="M797.843 103.51C797.843 103.51 809.375 163.265 804.133 169.555C798.891 175.845 859.695 158.023 859.695 158.023C859.695 158.023 839.777 117.138 850.26 94.0745L797.843 103.51Z" fill="#EBAE9C"/>
<path d="M897.224 365.529C897.224 365.529 908.204 412.192 893.564 416.767C878.925 421.341 882.585 365.529 882.585 365.529H897.224Z" fill="#EBAE9C"/>
<path d="M812.59 412.649C812.59 412.649 797.035 505.976 797.95 519.7C798.865 533.425 797.95 535.255 797.95 535.255C797.95 535.255 782.396 575.513 777.821 598.387C773.246 621.261 763.182 650.54 763.182 650.54C763.182 650.54 751.287 677.074 761.352 677.074C771.416 677.074 785.141 673.414 785.141 673.414C785.105 662.846 788.653 652.577 795.205 644.285C806.185 630.411 839.124 565.448 839.124 557.214C839.124 548.979 844.614 525.19 844.614 525.19L865.658 423.629L812.59 412.649Z" fill="#EBAE9C"/>
<path d="M765.927 666.095C769.954 664.342 774.379 663.709 778.736 664.265C782.905 664.883 787.154 663.902 790.631 661.52C790.631 661.52 783.311 688.054 784.226 698.118C785.141 708.183 781.481 751.186 762.267 746.612C743.053 742.037 737.563 728.312 744.882 704.523C752.202 680.734 750.372 653.285 750.372 653.285C750.372 653.285 763.726 639.492 766.199 641.356C768.672 643.221 765.927 666.095 765.927 666.095Z" fill="#DDDEDF"/>
<path d="M827.229 699.948C827.229 699.948 818.08 679.819 807.1 698.118C796.12 716.418 795.206 720.993 795.206 720.993C795.206 720.993 764.097 749.356 786.056 752.101C808.015 754.846 825.399 751.186 825.399 746.612C825.399 742.037 836.379 742.952 837.294 739.292C838.209 735.632 835.464 701.778 835.464 701.778L827.229 699.948Z" fill="#DDDEDF"/>
<path d="M847.9 137.515C847.9 137.515 811.957 148.315 807.678 146.965C806.714 146.696 805.739 146.533 804.761 146.477C796.393 145.877 788.094 149.123 780.873 155.821C768.956 166.741 751.196 186.174 751.196 205.011C751.196 233.359 774.302 281.956 774.302 281.956C774.302 281.956 752.908 398.048 754.619 408.847C756.331 419.647 741.782 456.094 751.196 468.243C760.61 480.393 850.467 468.243 866.727 480.393C882.987 492.542 875.285 318.403 875.285 318.403C875.285 318.403 918.93 160.464 896.68 145.615C889.48 140.81 883.266 137.136 878.153 134.364C873.231 131.691 868.02 130.593 862.825 131.134C857.631 131.675 852.557 133.845 847.9 137.515Z" fill="#DDDEDF"/>
<path d="M883.034 145.447L899.823 148.917C899.823 148.917 907.18 158.257 907.18 162.831C907.18 167.406 905.717 365.039 903.521 371.443C901.326 377.848 877.18 375.103 877.18 375.103L881.57 262.563L883.034 145.447Z" fill="#DDDEDF"/>
<path d="M840.967 37.8383C835.423 30.699 827.245 26.177 818.116 26.177H817.031C796.128 26.177 779.182 45.0925 779.182 68.4259L786.186 68.426L787.317 59.8159L788.976 68.426H830.518L833.998 61.1417L833.128 68.426H841.301C845.114 87.3652 839.635 106.304 824.862 125.244H838.784L845.745 110.675L844.005 125.244H870.543L875.763 91.7357C875.763 66.6414 861.183 45.3619 840.967 37.8383Z" fill="#D3AC6B"/>
<path d="M848.597 41.3667C860.02 41.3667 869.281 32.1064 869.281 20.6833C869.281 9.26025 860.02 0 848.597 0C837.174 0 827.914 9.26025 827.914 20.6833C827.914 32.1064 837.174 41.3667 848.597 41.3667Z" fill="#D3AC6B"/>
<path opacity="0.2" d="M318.625 742.694C348.375 742.694 372.493 734.996 372.493 725.502C372.493 716.007 348.375 708.31 318.625 708.31C288.874 708.31 264.756 716.007 264.756 725.502C264.756 734.996 288.874 742.694 318.625 742.694Z" fill="black"/>
<path d="M328.229 316.501H310.184V727.672H328.229V316.501Z" fill="#3F3D56"/>
<path d="M584.684 165.084L584.685 164.945L569.523 164.863L554.362 164.782L539.201 164.7L524.04 164.619L508.879 164.537L493.717 164.456L478.556 164.374L463.395 164.293L448.234 164.211L433.072 164.129L417.911 164.048L402.748 164.418C397.647 164.792 392.583 165.561 387.601 166.72C387.592 166.723 387.583 166.723 387.574 166.726C387.528 166.735 387.486 166.747 387.44 166.759C386.462 166.987 385.491 167.23 384.525 167.489C384.461 167.504 384.394 167.522 384.331 167.543C381.062 168.421 377.842 169.469 374.683 170.684C373.914 170.98 373.148 171.285 372.386 171.599C367.835 173.478 363.432 175.696 359.214 178.236C358.858 178.449 358.505 178.666 358.152 178.888L357.182 179.496C351.73 182.954 346.631 186.939 341.956 191.391C341.075 192.227 340.211 193.079 339.365 193.949C334.847 198.575 330.793 203.631 327.26 209.046L326.618 224.204L341.779 224.285L341.861 209.124L357.022 209.206L356.94 224.367L372.102 224.448L372.183 209.287L387.344 209.369L387.263 224.53L402.424 224.611L402.505 209.45L417.667 209.532L417.585 224.693L432.746 224.774L432.828 209.613L447.989 209.695L447.908 224.856L463.069 224.937L463.15 209.776L478.311 209.858L478.23 225.019L493.391 225.1L493.473 209.939L508.634 210.021L508.552 225.182L523.714 225.263L523.795 210.102L538.956 210.184L538.875 225.345L554.036 225.427L554.118 210.265L569.279 210.347L569.197 225.508L584.358 225.589L584.44 210.428L592.324 210.471L592.405 195.309L592.487 180.148L592.568 165.127L584.684 165.084Z" fill="#3F3D56"/>
<path d="M319.171 224.164C317.074 229.062 315.381 234.124 314.107 239.298L326.536 239.365L326.618 224.204L319.171 224.164Z" fill="#3F3D56"/>
<path d="M341.779 224.285L341.698 239.446L356.859 239.528L356.94 224.367L341.779 224.285Z" fill="#3F3D56"/>
<path d="M372.102 224.448L372.02 239.609L387.181 239.691L387.263 224.53L372.102 224.448Z" fill="#3F3D56"/>
<path d="M402.424 224.611L402.342 239.772L417.504 239.854L417.585 224.693L402.424 224.611Z" fill="#3F3D56"/>
<path d="M432.746 224.774L432.665 239.936L447.826 240.017L447.908 224.856L432.746 224.774Z" fill="#3F3D56"/>
<path d="M463.069 224.937L462.987 240.099L478.148 240.18L478.23 225.019L463.069 224.937Z" fill="#3F3D56"/>
<path d="M493.391 225.1L493.31 240.262L508.471 240.343L508.552 225.182L493.391 225.1Z" fill="#3F3D56"/>
<path d="M523.714 225.263L523.632 240.425L538.793 240.506L538.875 225.345L523.714 225.263Z" fill="#3F3D56"/>
<path d="M554.036 225.426L553.955 240.588L569.116 240.669L569.197 225.508L554.036 225.426Z" fill="#3F3D56"/>
<path d="M591.785 240.791C592.049 237.93 592.19 235.034 592.207 232.103L592.242 225.632L584.358 225.59L584.277 240.751L591.785 240.791Z" fill="#3F3D56"/>
<path d="M326.536 239.365L326.455 254.526L341.616 254.608L341.698 239.446L326.536 239.365Z" fill="#3F3D56"/>
<path d="M356.859 239.528L356.777 254.689L371.939 254.771L372.02 239.61L356.859 239.528Z" fill="#3F3D56"/>
<path d="M387.181 239.691L387.1 254.852L402.261 254.934L402.342 239.773L387.181 239.691Z" fill="#3F3D56"/>
<path d="M417.504 239.854L417.422 255.015L432.583 255.097L432.665 239.936L417.504 239.854Z" fill="#3F3D56"/>
<path d="M447.826 240.017L447.745 255.178L462.906 255.26L462.987 240.099L447.826 240.017Z" fill="#3F3D56"/>
<path d="M478.149 240.18L478.067 255.341L493.228 255.423L493.31 240.262L478.149 240.18Z" fill="#3F3D56"/>
<path d="M508.471 240.343L508.389 255.504L523.551 255.586L523.632 240.425L508.471 240.343Z" fill="#3F3D56"/>
<path d="M538.793 240.506L538.712 255.667L553.873 255.749L553.955 240.588L538.793 240.506Z" fill="#3F3D56"/>
<path d="M569.116 240.669L569.034 255.83L584.195 255.912L584.277 240.751L569.116 240.669Z" fill="#3F3D56"/>
<path d="M311.294 254.444L311.212 269.606L326.373 269.687L326.455 254.526L311.294 254.444Z" fill="#3F3D56"/>
<path d="M341.616 254.608L341.535 269.769L356.696 269.85L356.777 254.689L341.616 254.608Z" fill="#3F3D56"/>
<path d="M371.939 254.771L371.857 269.932L387.018 270.013L387.1 254.852L371.939 254.771Z" fill="#3F3D56"/>
<path d="M402.261 254.934L402.179 270.095L417.341 270.176L417.422 255.015L402.261 254.934Z" fill="#3F3D56"/>
<path d="M432.583 255.097L432.502 270.258L447.663 270.339L447.745 255.178L432.583 255.097Z" fill="#3F3D56"/>
<path d="M462.906 255.26L462.824 270.421L477.985 270.503L478.067 255.341L462.906 255.26Z" fill="#3F3D56"/>
<path d="M493.228 255.423L493.147 270.584L508.308 270.666L508.389 255.504L493.228 255.423Z" fill="#3F3D56"/>
<path d="M523.551 255.586L523.469 270.747L538.63 270.829L538.712 255.667L523.551 255.586Z" fill="#3F3D56"/>
<path d="M553.873 255.749L553.792 270.91L568.953 270.992L569.034 255.83L553.873 255.749Z" fill="#3F3D56"/>
<path d="M589.183 255.939L584.195 255.912L584.115 270.809C586.2 265.996 587.894 261.023 589.183 255.939Z" fill="#3F3D56"/>
<path d="M326.373 269.687L326.292 284.849L341.453 284.93L341.535 269.769L326.373 269.687Z" fill="#3F3D56"/>
<path d="M356.696 269.85L356.614 285.012L371.775 285.093L371.857 269.932L356.696 269.85Z" fill="#3F3D56"/>
<path d="M387.018 270.013L386.937 285.175L402.098 285.256L402.179 270.095L387.018 270.013Z" fill="#3F3D56"/>
<path d="M417.341 270.176L417.259 285.338L432.42 285.419L432.502 270.258L417.341 270.176Z" fill="#3F3D56"/>
<path d="M447.663 270.34L447.582 285.501L462.743 285.582L462.824 270.421L447.663 270.34Z" fill="#3F3D56"/>
<path d="M477.985 270.503L477.904 285.664L493.065 285.745L493.147 270.584L477.985 270.503Z" fill="#3F3D56"/>
<path d="M508.308 270.666L508.226 285.827L523.388 285.908L523.469 270.747L508.308 270.666Z" fill="#3F3D56"/>
<path d="M538.63 270.829L538.549 285.99L553.71 286.071L553.792 270.91L538.63 270.829Z" fill="#3F3D56"/>
<path d="M575.763 286.19C578.945 281.401 581.7 276.343 583.999 271.073L568.953 270.992L568.871 286.153L575.763 286.19Z" fill="#3F3D56"/>
<path d="M311.131 284.767L311.049 299.928L326.21 300.01L326.292 284.849L311.131 284.767Z" fill="#3F3D56"/>
<path d="M341.453 284.93L341.372 300.091L356.533 300.173L356.614 285.012L341.453 284.93Z" fill="#3F3D56"/>
<path d="M371.775 285.093L371.694 300.254L386.855 300.336L386.937 285.175L371.775 285.093Z" fill="#3F3D56"/>
<path d="M402.098 285.256L402.016 300.417L417.178 300.499L417.259 285.338L402.098 285.256Z" fill="#3F3D56"/>
<path d="M432.42 285.419L432.339 300.58L447.5 300.662L447.582 285.501L432.42 285.419Z" fill="#3F3D56"/>
<path d="M462.743 285.582L462.661 300.743L477.822 300.825L477.904 285.664L462.743 285.582Z" fill="#3F3D56"/>
<path d="M493.069 285.743L492.987 300.905L508.148 300.986L508.23 285.825L493.069 285.743Z" fill="#3F3D56"/>
<path d="M523.388 285.908L523.306 301.069L538.467 301.151L538.549 285.99L523.388 285.908Z" fill="#3F3D56"/>
<path d="M553.628 301.233L563.438 301.285L568.821 295.422L568.871 286.153L553.71 286.071L553.628 301.233Z" fill="#3F3D56"/>
<path d="M326.21 300.01L326.134 314.261L310.972 314.18L310.968 315.089L310.891 329.341L310.89 329.444L326.052 329.526V329.422L326.129 315.171L341.29 315.252L341.372 300.091L326.21 300.01Z" fill="#3F3D56"/>
<path d="M356.533 300.173L356.451 315.334L371.612 315.416L371.694 300.254L356.533 300.173Z" fill="#3F3D56"/>
<path d="M386.855 300.336L386.774 315.497L401.935 315.579L402.016 300.417L386.855 300.336Z" fill="#3F3D56"/>
<path d="M417.178 300.499L417.096 315.66L432.257 315.742L432.339 300.58L417.178 300.499Z" fill="#3F3D56"/>
<path d="M447.5 300.662L447.418 315.823L462.58 315.905L462.661 300.743L447.5 300.662Z" fill="#3F3D56"/>
<path d="M477.822 300.825L477.741 315.986L492.902 316.068L492.984 300.907L477.822 300.825Z" fill="#3F3D56"/>
<path d="M508.148 300.986L508.067 316.147L523.228 316.229L523.31 301.068L508.148 300.986Z" fill="#3F3D56"/>
<path d="M538.386 316.312L544.226 316.344C547.464 314.398 550.588 312.267 553.581 309.962L553.628 301.233L538.467 301.151L538.386 316.312Z" fill="#3F3D56"/>
<path d="M341.29 315.252L341.213 329.607L356.374 329.689L356.451 315.334L341.29 315.252Z" fill="#3F3D56"/>
<path d="M371.612 315.415L371.535 329.77L386.696 329.852L386.774 315.497L371.612 315.415Z" fill="#3F3D56"/>
<path d="M401.935 315.579L401.858 329.933L417.019 330.015L417.096 315.66L401.935 315.579Z" fill="#3F3D56"/>
<path d="M432.257 315.742L432.18 330.096L447.341 330.178L447.418 315.823L432.257 315.742Z" fill="#3F3D56"/>
<path d="M462.58 315.905L462.503 330.259L477.664 330.341L477.741 315.986L462.58 315.905Z" fill="#3F3D56"/>
<path d="M492.825 330.422C496.304 330.441 499.781 330.279 503.244 329.935L507.992 329.348L508.063 316.149L492.902 316.068L492.825 330.422Z" fill="#3F3D56"/>
<path d="M523.173 325.846C528.404 324.194 533.487 322.105 538.368 319.602L538.386 316.312L523.224 316.231L523.173 325.846Z" fill="#3F3D56"/>
<path d="M371.857 269.932L371.775 285.093L386.937 285.175L387.018 270.013L371.857 269.932Z" fill="#00BFA6"/>
<path d="M462.987 240.099L462.906 255.26L478.067 255.341L478.149 240.18L462.987 240.099Z" fill="#00BFA6"/>
<path d="M314.107 239.298C312.886 244.275 312.053 249.34 311.615 254.446L326.455 254.526L326.536 239.365L314.107 239.298Z" fill="#00BFA6"/>
<path d="M507.992 329.349C513.137 328.586 518.214 327.415 523.173 325.846L523.225 316.231L508.063 316.149L507.992 329.349Z" fill="#00BFA6"/>
<path d="M478.067 255.341L477.985 270.503L493.147 270.584L493.228 255.423L478.067 255.341Z" fill="#00BFA6"/>
<path d="M477.904 285.664L477.822 300.825L492.984 300.906L493.065 285.745L477.904 285.664Z" fill="#00BFA6"/>
<path d="M554.118 210.265L554.036 225.427L569.197 225.508L569.279 210.347L554.118 210.265Z" fill="#00BFA6"/>
<path d="M584.44 210.428L584.358 225.59L592.242 225.632L592.324 210.471L584.44 210.428Z" fill="#00BFA6"/>
<path d="M538.875 225.345L538.793 240.506L553.955 240.588L554.036 225.427L538.875 225.345Z" fill="#00BFA6"/>
<path d="M569.197 225.508L569.116 240.669L584.277 240.751L584.358 225.589L569.197 225.508Z" fill="#00BFA6"/>
<path d="M553.955 240.588L553.873 255.749L569.034 255.83L569.116 240.669L553.955 240.588Z" fill="#00BFA6"/>
<path d="M589.183 255.939C590.443 250.965 591.313 245.9 591.785 240.791L584.277 240.751L584.195 255.912L589.183 255.939Z" fill="#00BFA6"/>
<path d="M538.712 255.667L538.63 270.829L553.791 270.91L553.873 255.749L538.712 255.667Z" fill="#00BFA6"/>
<path d="M569.034 255.831L568.953 270.992L584.114 271.073L584.195 255.912L569.034 255.831Z" fill="#00BFA6"/>
<path d="M553.791 270.91L553.71 286.071L568.871 286.153L568.953 270.992L553.791 270.91Z" fill="#00BFA6"/>
<path d="M538.549 285.99L538.467 301.151L553.628 301.233L553.71 286.071L538.549 285.99Z" fill="#00BFA6"/>
<path d="M575.763 286.19L568.871 286.153L568.821 295.422C571.313 292.482 573.631 289.4 575.763 286.19Z" fill="#00BFA6"/>
<path d="M523.31 301.068L523.228 316.229L538.389 316.31L538.471 301.149L523.31 301.068Z" fill="#00BFA6"/>
<path d="M554.772 309.032C557.809 306.621 560.703 304.034 563.438 301.285L553.628 301.233L553.581 309.962C553.98 309.655 554.379 309.345 554.772 309.032Z" fill="#00BFA6"/>
<path d="M372.183 209.287L372.102 224.448L387.263 224.53L387.344 209.369L372.183 209.287Z" fill="#00BFA6"/>
<path d="M402.505 209.45L402.424 224.611L417.585 224.693L417.667 209.532L402.505 209.45Z" fill="#00BFA6"/>
<path d="M432.828 209.613L432.746 224.774L447.908 224.856L447.989 209.695L432.828 209.613Z" fill="#00BFA6"/>
<path d="M463.15 209.776L463.069 224.937L478.23 225.019L478.312 209.858L463.15 209.776Z" fill="#00BFA6"/>
<path d="M493.473 209.939L493.391 225.1L508.552 225.182L508.634 210.021L493.473 209.939Z" fill="#00BFA6"/>
<path d="M523.795 210.102L523.714 225.263L538.875 225.345L538.956 210.184L523.795 210.102Z" fill="#00BFA6"/>
<path d="M387.263 224.53L387.181 239.691L402.342 239.773L402.424 224.611L387.263 224.53Z" fill="#00BFA6"/>
<path d="M417.585 224.693L417.504 239.854L432.665 239.936L432.746 224.774L417.585 224.693Z" fill="#00BFA6"/>
<path d="M447.908 224.856L447.826 240.017L462.987 240.099L463.069 224.937L447.908 224.856Z" fill="#00BFA6"/>
<path d="M478.23 225.019L478.148 240.18L493.31 240.262L493.391 225.1L478.23 225.019Z" fill="#00BFA6"/>
<path d="M508.552 225.182L508.471 240.343L523.632 240.425L523.714 225.263L508.552 225.182Z" fill="#00BFA6"/>
<path d="M341.698 239.446L341.616 254.608L356.777 254.689L356.859 239.528L341.698 239.446Z" fill="#00BFA6"/>
<path d="M402.342 239.773L402.261 254.934L417.422 255.015L417.504 239.854L402.342 239.773Z" fill="#00BFA6"/>
<path d="M432.665 239.936L432.583 255.097L447.745 255.178L447.826 240.017L432.665 239.936Z" fill="#00BFA6"/>
<path d="M493.31 240.262L493.228 255.423L508.389 255.504L508.471 240.343L493.31 240.262Z" fill="#00BFA6"/>
<path d="M523.632 240.425L523.551 255.586L538.712 255.667L538.793 240.506L523.632 240.425Z" fill="#00BFA6"/>
<path d="M326.455 254.526L326.373 269.687L341.535 269.769L341.616 254.608L326.455 254.526Z" fill="#00BFA6"/>
<path d="M356.777 254.689L356.696 269.85L371.857 269.932L371.938 254.771L356.777 254.689Z" fill="#00BFA6"/>
<path d="M417.422 255.015L417.341 270.177L432.502 270.258L432.583 255.097L417.422 255.015Z" fill="#00BFA6"/>
<path d="M447.745 255.178L447.663 270.339L462.824 270.421L462.906 255.26L447.745 255.178Z" fill="#00BFA6"/>
<path d="M508.389 255.504L508.308 270.666L523.469 270.747L523.551 255.586L508.389 255.504Z" fill="#00BFA6"/>
<path d="M311.212 269.606L311.131 284.767L326.292 284.848L326.373 269.687L311.212 269.606Z" fill="#00BFA6"/>
<path d="M341.535 269.769L341.453 284.93L356.614 285.012L356.696 269.85L341.535 269.769Z" fill="#00BFA6"/>
<path d="M319.171 224.164L326.618 224.204L327.306 209.046C324.209 213.868 321.489 218.922 319.171 224.164Z" fill="#00BFA6"/>
<path d="M341.861 209.124L341.779 224.285L356.94 224.367L357.022 209.205L341.861 209.124Z" fill="#00BFA6"/>
<path d="M326.618 224.204L326.536 239.365L341.698 239.446L341.779 224.285L326.618 224.204Z" fill="#00BFA6"/>
<path d="M356.94 224.367L356.859 239.528L372.02 239.609L372.102 224.448L356.94 224.367Z" fill="#00BFA6"/>
<path d="M372.02 239.609L371.938 254.771L387.1 254.852L387.181 239.691L372.02 239.609Z" fill="#00BFA6"/>
<path d="M387.1 254.852L387.018 270.013L402.179 270.095L402.261 254.934L387.1 254.852Z" fill="#00BFA6"/>
<path d="M402.179 270.095L402.098 285.256L417.259 285.338L417.341 270.176L402.179 270.095Z" fill="#00BFA6"/>
<path d="M432.502 270.258L432.42 285.419L447.582 285.501L447.663 270.339L432.502 270.258Z" fill="#00BFA6"/>
<path d="M462.824 270.421L462.743 285.582L477.904 285.664L477.985 270.503L462.824 270.421Z" fill="#00BFA6"/>
<path d="M493.147 270.584L493.065 285.745L508.226 285.827L508.308 270.666L493.147 270.584Z" fill="#00BFA6"/>
<path d="M523.469 270.747L523.388 285.908L538.549 285.99L538.63 270.829L523.469 270.747Z" fill="#00BFA6"/>
<path d="M326.292 284.849L326.21 300.01L341.372 300.091L341.453 284.93L326.292 284.849Z" fill="#00BFA6"/>
<path d="M356.614 285.012L356.533 300.173L371.694 300.254L371.775 285.093L356.614 285.012Z" fill="#00BFA6"/>
<path d="M386.937 285.175L386.855 300.336L402.016 300.417L402.098 285.256L386.937 285.175Z" fill="#00BFA6"/>
<path d="M417.259 285.338L417.178 300.499L432.339 300.58L432.42 285.419L417.259 285.338Z" fill="#00BFA6"/>
<path d="M447.582 285.501L447.5 300.662L462.661 300.743L462.743 285.582L447.582 285.501Z" fill="#00BFA6"/>
<path d="M508.226 285.827L508.145 300.988L523.306 301.07L523.388 285.908L508.226 285.827Z" fill="#00BFA6"/>
<path d="M311.049 299.928L310.968 315.089L326.129 315.171L326.21 300.01L311.049 299.928Z" fill="#00BFA6"/>
<path d="M341.372 300.091L341.29 315.252L356.451 315.334L356.533 300.173L341.372 300.091Z" fill="#00BFA6"/>
<path d="M371.694 300.254L371.612 315.416L386.774 315.497L386.855 300.336L371.694 300.254Z" fill="#00BFA6"/>
<path d="M402.016 300.417L401.935 315.579L417.096 315.66L417.178 300.499L402.016 300.417Z" fill="#00BFA6"/>
<path d="M432.339 300.58L432.257 315.742L447.418 315.823L447.5 300.662L432.339 300.58Z" fill="#00BFA6"/>
<path d="M462.661 300.743L462.58 315.905L477.741 315.986L477.822 300.825L462.661 300.743Z" fill="#00BFA6"/>
<path d="M492.984 300.907L492.902 316.068L508.063 316.149L508.145 300.988L492.984 300.907Z" fill="#00BFA6"/>
<path d="M326.129 315.171L326.052 329.526L341.213 329.607L341.29 315.252L326.129 315.171Z" fill="#00BFA6"/>
<path d="M356.451 315.334L356.374 329.689L371.535 329.77L371.612 315.416L356.451 315.334Z" fill="#00BFA6"/>
<path d="M386.774 315.497L386.696 329.852L401.858 329.933L401.935 315.579L386.774 315.497Z" fill="#00BFA6"/>
<path d="M417.096 315.66L417.019 330.015L432.18 330.096L432.257 315.742L417.096 315.66Z" fill="#00BFA6"/>
<path d="M447.418 315.823L447.341 330.178L462.502 330.259L462.58 315.905L447.418 315.823Z" fill="#00BFA6"/>
<path d="M477.741 315.986L477.664 330.341L492.825 330.422L492.902 316.068L477.741 315.986Z" fill="#00BFA6"/>
<path d="M544.226 316.344L538.386 316.312L538.368 319.602C540.363 318.582 542.315 317.496 544.226 316.344Z" fill="#00BFA6"/>
<path d="M747.321 444.704L745.189 443.863L670.555 632.71C667.014 625.232 654.424 606.125 617.8 604.786C615.977 604.73 614.203 605.385 612.854 606.612C611.505 607.839 610.686 609.543 610.57 611.363L609.935 620.892C609.586 626.075 611.244 631.194 614.566 635.188C617.888 639.181 622.619 641.744 627.778 642.345C642.762 644.077 662.529 644.389 671.415 636.005L671.676 636.108L747.321 444.704Z" fill="#808080"/>
</g>
<defs>
<filter id="filter0_d_5_19" x="753" y="409" width="84.8571" height="308" filterUnits="userSpaceOnUse" color-interpolation-filters="sRGB">
<feFlood flood-opacity="0" result="BackgroundImageFix"/>
<feColorMatrix in="SourceAlpha" type="matrix" values="0 0 0 0 0 0 0 0 0 0 0 0 0 0 0 0 0 0 127 0" result="hardAlpha"/>
<feOffset dy="4"/>
<feGaussianBlur stdDeviation="2"/>
<feComposite in2="hardAlpha" operator="out"/>
<feColorMatrix type="matrix" values="0 0 0 0 0 0 0 0 0 0 0 0 0 0 0 0 0 0 0.25 0"/>
<feBlend mode="normal" in2="BackgroundImageFix" result="effect1_dropShadow_5_19"/>
<feBlend mode="normal" in="SourceGraphic" in2="effect1_dropShadow_5_19" result="shape"/>
</filter>
<clipPath id="clip0_5_19">
<rect width="926.075" height="800" fill="white"/>
</clipPath>
</defs>
</svg>
