<svg width="927" height="754" viewBox="0 0 927 754" fill="none" xmlns="http://www.w3.org/2000/svg">
<path d="M463.037 754C718.766 754 926.075 728.343 926.075 696.693C926.075 665.044 718.766 639.387 463.037 639.387C207.309 639.387 0 665.044 0 696.693C0 728.343 207.309 754 463.037 754Z" fill="#83A06E"/>
<path d="M571.92 643.738C571.92 644.725 571.849 645.711 571.707 646.688C571.402 648.833 570.753 650.915 569.786 652.854C568.747 654.942 567.359 656.839 565.682 658.461C565.492 658.647 565.295 658.829 565.094 659.008C561.82 661.956 557.678 663.761 553.291 664.152C552.676 664.209 552.049 664.239 551.419 664.239C546.453 664.242 541.656 662.442 537.918 659.173C534.18 655.904 531.756 651.39 531.096 646.468C530.977 645.563 530.918 644.651 530.918 643.738C530.918 642.583 531.014 641.43 531.207 640.291C531.572 638.135 532.283 636.051 533.314 634.122C533.783 633.228 534.323 632.372 534.927 631.563C536.831 628.979 539.315 626.88 542.18 625.433C545.045 623.987 548.21 623.235 551.419 623.238C552.118 623.237 552.816 623.272 553.511 623.344C555.64 623.557 557.723 624.107 559.68 624.973C561.491 625.771 563.176 626.827 564.684 628.108C565.082 628.446 565.466 628.799 565.838 629.168C567.364 630.673 568.643 632.411 569.627 634.316C570.639 636.255 571.327 638.346 571.665 640.508C571.835 641.576 571.92 642.656 571.92 643.738Z" fill="#F2F2F2"/>
<path d="M559.63 634.262L559.597 640.441L565.776 640.475L565.81 634.295L559.63 634.262Z" fill="#CCCCCC"/>
<path d="M571.92 643.738C571.92 644.725 571.849 645.711 571.707 646.688L565.743 646.654L565.777 640.473L571.665 640.508C571.835 641.576 571.92 642.656 571.92 643.738Z" fill="#CCCCCC"/>
<path d="M569.786 652.854C568.747 654.942 567.359 656.839 565.682 658.461L565.709 652.835L569.786 652.854Z" fill="#CCCCCC"/>
<path d="M541.138 625.998L541.127 627.983L538.321 627.968C539.203 627.233 540.146 626.574 541.138 625.998Z" fill="#CCCCCC"/>
<path d="M553.511 623.344L553.484 628.051L547.304 628.017L547.326 623.648C548.673 623.374 550.044 623.237 551.419 623.238C552.118 623.237 552.816 623.272 553.511 623.344Z" fill="#CCCCCC"/>
<path d="M564.684 628.109L559.665 628.082L559.68 624.973C561.491 625.771 563.176 626.827 564.684 628.109Z" fill="#CCCCCC"/>
<path d="M534.927 631.563L534.912 634.13L533.314 634.122C533.783 633.228 534.323 632.372 534.927 631.563Z" fill="#CCCCCC"/>
<path d="M541.126 627.983L541.093 634.163L547.272 634.196L547.305 628.017L541.126 627.983Z" fill="#CCCCCC"/>
<path d="M553.484 628.05L553.451 634.229L559.63 634.262L559.664 628.083L553.484 628.05Z" fill="#CCCCCC"/>
<path d="M569.627 634.316L565.811 634.297L565.838 629.168C567.364 630.673 568.643 632.411 569.627 634.316Z" fill="#CCCCCC"/>
<path d="M534.913 634.129L534.88 640.309L541.059 640.342L541.093 634.163L534.913 634.129Z" fill="#CCCCCC"/>
<path d="M547.277 634.195L547.244 640.374L553.423 640.407L553.457 634.228L547.277 634.195Z" fill="#CCCCCC"/>
<path d="M541.059 640.342L541.026 646.521L547.205 646.554L547.239 640.375L541.059 640.342Z" fill="#CCCCCC"/>
<path d="M553.423 640.407L553.39 646.587L559.569 646.62L559.603 640.441L553.423 640.407Z" fill="#CCCCCC"/>
<path d="M534.882 640.31L534.847 646.487L531.097 646.468C530.977 645.563 530.918 644.651 530.918 643.738C530.918 642.583 531.014 641.43 531.207 640.291L534.882 640.31Z" fill="#CCCCCC"/>
<path d="M534.847 646.488L534.814 652.667L540.993 652.7L541.026 646.521L534.847 646.488Z" fill="#CCCCCC"/>
<path d="M547.205 646.554L547.172 652.733L553.351 652.767L553.385 646.587L547.205 646.554Z" fill="#CCCCCC"/>
<path d="M559.564 646.621L559.531 652.8L565.71 652.833L565.743 646.654L559.564 646.621Z" fill="#CCCCCC"/>
<path d="M534.813 652.668L534.798 655.739C534.093 654.768 533.475 653.737 532.953 652.656L534.813 652.668Z" fill="#CCCCCC"/>
<path d="M540.993 652.7L540.96 658.879L547.139 658.913L547.172 652.733L540.993 652.7Z" fill="#CCCCCC"/>
<path d="M553.357 652.766L553.324 658.945L559.503 658.978L559.536 652.799L553.357 652.766Z" fill="#CCCCCC"/>
<path d="M540.96 658.879L540.945 661.365C539.741 660.647 538.614 659.807 537.581 658.86L540.96 658.879Z" fill="#CCCCCC"/>
<path d="M553.317 658.947L553.291 664.152C552.676 664.209 552.049 664.239 551.419 664.239C549.972 664.241 548.529 664.088 547.114 663.784L547.14 658.913L553.317 658.947Z" fill="#CCCCCC"/>
<path d="M565.094 659.008C563.43 660.502 561.534 661.714 559.479 662.595L559.498 658.977L565.094 659.008Z" fill="#CCCCCC"/>
<path opacity="0.2" d="M310.869 696.384C340.619 696.384 364.737 688.686 364.737 679.192C364.737 669.697 340.619 662 310.869 662C281.118 662 257 669.697 257 679.192C257 688.686 281.118 696.384 310.869 696.384Z" fill="black"/>
<path d="M316 529H310V682H316V529Z" fill="#535461"/>
<path d="M401.391 472.387L401.392 472.335L396.375 472.305L391.358 472.274L386.341 472.244L381.325 472.213L376.308 472.183L371.291 472.152L366.275 472.122L361.258 472.092L356.241 472.061L351.224 472.03L346.208 472L341.191 472.138C339.503 472.278 337.827 472.565 336.179 472.999C336.176 473 336.173 473 336.17 473.001C336.154 473.004 336.141 473.009 336.125 473.013C335.802 473.098 335.48 473.189 335.161 473.286C335.14 473.292 335.117 473.298 335.097 473.306C334.015 473.634 332.949 474.026 331.904 474.48C331.65 474.591 331.396 474.705 331.144 474.822C329.638 475.524 328.181 476.353 326.786 477.303C326.668 477.382 326.551 477.463 326.434 477.546L326.113 477.773C324.309 479.066 322.622 480.555 321.075 482.219C320.784 482.531 320.498 482.85 320.218 483.175C318.723 484.904 317.381 486.794 316.212 488.817L316 494.482L321.017 494.513L321.044 488.846L326.06 488.877L326.033 494.543L331.05 494.574L331.077 488.907L336.094 488.938L336.067 494.604L341.083 494.634L341.11 488.968L346.127 488.999L346.1 494.665L351.117 494.695L351.144 489.029L356.16 489.06L356.134 494.726L361.15 494.756L361.177 489.09L366.194 489.121L366.167 494.787L371.183 494.817L371.211 489.151L376.227 489.182L376.2 494.848L381.217 494.878L381.244 489.212L386.26 489.243L386.234 494.909L391.25 494.939L391.277 489.273L396.294 489.304L396.267 494.97L401.283 495L401.311 489.334L403.919 489.35L403.946 483.683L403.973 478.017L404 472.403L401.391 472.387Z" fill="#535461"/>
<path d="M313.024 494C312.186 495.933 311.509 497.931 311 499.974L315.967 500L316 494.016L313.024 494Z" fill="#535461"/>
<path d="M320.032 494L320 499.968L325.968 500L326 494.032L320.032 494Z" fill="#535461"/>
<path d="M331.027 494L331 499.968L335.973 500L336 494.032L331.027 494Z" fill="#535461"/>
<path d="M341.027 495L341 499.973L345.973 500L346 495.027L341.027 495Z" fill="#535461"/>
<path d="M351.027 495L351 499.973L355.973 500L356 495.027L351.027 495Z" fill="#535461"/>
<path d="M361.027 495L361 499.973L365.973 500L366 495.027L361.027 495Z" fill="#535461"/>
<path d="M371.027 495L371 499.973L375.973 500L376 495.027L371.027 495Z" fill="#535461"/>
<path d="M381.027 495L381 500.968L385.973 501L386 495.032L381.027 495Z" fill="#535461"/>
<path d="M391.027 495L391 500.968L395.973 501L396 495.032L391.027 495Z" fill="#535461"/>
<path d="M403.828 501C403.927 499.871 403.98 498.728 403.987 497.571L404 495.017L401.031 495L401 500.984L403.828 501Z" fill="#535461"/>
<path d="M316.021 500L316 505.968L319.978 506L320 500.032L316.021 500Z" fill="#535461"/>
<path d="M326.027 500L326 505.968L330.973 506L331 500.032L326.027 500Z" fill="#535461"/>
<path d="M336.027 500L336 505.968L340.973 506L341 500.032L336.027 500Z" fill="#535461"/>
<path d="M346.027 500L346 505.968L350.973 506L351 500.032L346.027 500Z" fill="#535461"/>
<path d="M356.027 500L356 505.968L360.973 506L361 500.032L356.027 500Z" fill="#535461"/>
<path d="M366.027 500L366 505.968L370.973 506L371 500.032L366.027 500Z" fill="#535461"/>
<path d="M376.027 500L376 505.968L380.973 506L381 500.032L376.027 500Z" fill="#535461"/>
<path d="M386.027 501L386 505.973L390.973 506L391 501.027L386.027 501Z" fill="#535461"/>
<path d="M396.027 501L396 505.973L400.973 506L401 501.027L396.027 501Z" fill="#535461"/>
<path d="M310.032 506L310 510.973L315.968 511L316 506.027L310.032 506Z" fill="#535461"/>
<path d="M320.032 506L320 510.973L325.968 511L326 506.027L320.032 506Z" fill="#535461"/>
<path d="M330.032 506L330 510.973L335.968 511L336 506.027L330.032 506Z" fill="#535461"/>
<path d="M341.027 506L341 510.973L345.973 511L346 506.027L341.027 506Z" fill="#535461"/>
<path d="M351.027 506L351 510.973L355.973 511L356 506.027L351.027 506Z" fill="#535461"/>
<path d="M361.027 506L361 511.968L365.973 512L366 506.032L361.027 506Z" fill="#535461"/>
<path d="M371.027 506L371 511.968L375.973 512L376 506.032L371.027 506Z" fill="#535461"/>
<path d="M381.027 506L381 511.968L385.973 512L386 506.032L381.027 506Z" fill="#535461"/>
<path d="M391.027 506L391 511.968L395.973 512L396 506.032L391.027 506Z" fill="#535461"/>
<path d="M403 506.011L401.032 506L401 512C401.823 510.061 402.491 508.059 403 506.011Z" fill="#535461"/>
<path d="M315.027 511L315 516.968L319.973 517L320 511.032L315.027 511Z" fill="#535461"/>
<path d="M326.022 511L326 516.968L329.978 517L330 511.032L326.022 511Z" fill="#535461"/>
<path d="M336.027 511L336 516.968L340.973 517L341 511.032L336.027 511Z" fill="#535461"/>
<path d="M346.027 511L346 516.968L350.973 517L351 511.032L346.027 511Z" fill="#535461"/>
<path d="M356.027 511L356 516.968L360.973 517L361 511.032L356.027 511Z" fill="#535461"/>
<path d="M366.027 512L366 516.973L370.973 517L371 512.027L366.027 512Z" fill="#535461"/>
<path d="M376.027 512L376 516.973L380.973 517L381 512.027L376.027 512Z" fill="#535461"/>
<path d="M386.027 512L386 516.973L390.973 517L391 512.027L386.027 512Z" fill="#535461"/>
<path d="M398.278 517C399.33 515.424 400.24 513.76 401 512.027L396.027 512L396 516.988L398.278 517Z" fill="#535461"/>
<path d="M310.027 517L310 522.968L314.973 523L315 517.032L310.027 517Z" fill="#535461"/>
<path d="M320.032 517L320 522.968L325.968 523L326 517.032L320.032 517Z" fill="#535461"/>
<path d="M330.032 517L330 522.968L335.968 523L336 517.032L330.032 517Z" fill="#535461"/>
<path d="M341.027 517L341 522.968L345.973 523L346 517.032L341.027 517Z" fill="#535461"/>
<path d="M351.027 517L351 522.968L355.973 523L356 517.032L351.027 517Z" fill="#535461"/>
<path d="M361.027 517L361 522.968L365.973 523L366 517.032L361.027 517Z" fill="#535461"/>
<path d="M371.027 517L371 522.968L375.973 523L376 517.032L371.027 517Z" fill="#535461"/>
<path d="M381.027 517L381 522.968L385.973 523L386 517.032L381.027 517Z" fill="#535461"/>
<path d="M391 522.979L394.218 523L395.984 520.688L396 517.032L391.027 517L391 522.979Z" fill="#535461"/>
<path d="M315.026 523L315.001 528.311L310.027 528.281L310.026 528.62L310 533.931L310 533.969L314.974 534V533.961L314.999 528.65L319.973 528.68L320 523.03L315.026 523Z" fill="#535461"/>
<path d="M326.022 523L326 527.973L329.978 528L330 523.027L326.022 523Z" fill="#535461"/>
<path d="M336.027 523L336 528.968L340.973 529L341 523.032L336.027 523Z" fill="#535461"/>
<path d="M346.027 523L346 528.968L350.973 529L351 523.032L346.027 523Z" fill="#535461"/>
<path d="M356.027 523L356 528.968L360.973 529L361 523.032L356.027 523Z" fill="#535461"/>
<path d="M366.027 523L366 528.968L370.973 529L371 523.032L366.027 523Z" fill="#535461"/>
<path d="M376.027 523L376 528.968L380.973 529L381 523.032L376.027 523Z" fill="#535461"/>
<path d="M386 528.987L387.916 529C388.978 528.231 390.003 527.39 390.985 526.48L391 523.032L386.027 523L386 528.987Z" fill="#535461"/>
<path d="M320.03 528L320 533.966L325.97 534L326 528.034L320.03 528Z" fill="#535461"/>
<path d="M330.03 528L330 533.966L335.969 534L336 528.034L330.03 528Z" fill="#535461"/>
<path d="M340.03 529L340 533.972L345.97 534L346 529.028L340.03 529Z" fill="#535461"/>
<path d="M351.025 529L351 533.972L355.975 534L356 529.028L351.025 529Z" fill="#535461"/>
<path d="M361.025 529L361 533.972L365.975 534L366 529.028L361.025 529Z" fill="#535461"/>
<path d="M371 533.999C372.142 534.006 373.282 533.95 374.419 533.83L375.977 533.625L376 529.028L371.025 529L371 533.999Z" fill="#535461"/>
<path d="M381 532C382.719 531.485 384.39 530.833 385.994 530.052L386 529.025L381.017 529L381 532Z" fill="#535461"/>
<path d="M330.032 511L330 516.968L335.968 517L336 511.032L330.032 511Z" fill="#00BFA6"/>
<path d="M361.027 500L361 505.968L365.973 506L366 500.032L361.027 500Z" fill="#00BFA6"/>
<path d="M311.002 500C310.511 501.961 310.176 503.957 310 505.968L315.967 506L316 500.026L311.002 500Z" fill="#00BFA6"/>
<path d="M376 534C377.689 533.711 379.355 533.267 380.983 532.673L381 529.031L376.023 529L376 534Z" fill="#00BFA6"/>
<path d="M366.027 506L366 511.968L370.973 512L371 506.032L366.027 506Z" fill="#00BFA6"/>
<path d="M366.027 517L366 522.968L370.973 523L371 517.032L366.027 517Z" fill="#00BFA6"/>
<path d="M391.027 489L391 494.968L395.973 495L396 489.032L391.027 489Z" fill="#00BFA6"/>
<path d="M401.031 489L401 494.983L403.969 495L404 489.017L401.031 489Z" fill="#00BFA6"/>
<path d="M386.027 495L386 500.968L390.973 501L391 495.032L386.027 495Z" fill="#00BFA6"/>
<path d="M396.027 495L396 500.968L400.973 501L401 495.032L396.027 495Z" fill="#00BFA6"/>
<path d="M391.027 501L391 505.973L395.973 506L396 501.027L391.027 501Z" fill="#00BFA6"/>
<path d="M402.972 506C403.47 504.363 403.813 502.695 404 501.013L401.032 501L401 505.991L402.972 506Z" fill="#00BFA6"/>
<path d="M386.027 506L386 511.968L390.973 512L391 506.032L386.027 506Z" fill="#00BFA6"/>
<path d="M396.027 506L396 511.968L400.973 512L401 506.032L396.027 506Z" fill="#00BFA6"/>
<path d="M391.027 512L391 516.973L395.973 517L396 512.027L391.027 512Z" fill="#00BFA6"/>
<path d="M386.027 517L386 522.968L390.973 523L391 517.032L386.027 517Z" fill="#00BFA6"/>
<path d="M398 517.016L396.014 517L396 521C396.718 519.731 397.386 518.401 398 517.016Z" fill="#00BFA6"/>
<path d="M381.027 523L381 528.968L385.973 529L386 523.032L381.027 523Z" fill="#00BFA6"/>
<path d="M391.483 525.68C392.716 524.852 393.89 523.963 395 523.018L391.019 523L391 526C391.162 525.894 391.324 525.788 391.483 525.68Z" fill="#00BFA6"/>
<path d="M331.027 489L331 494.968L335.973 495L336 489.032L331.027 489Z" fill="#00BFA6"/>
<path d="M341.027 489L341 494.968L345.973 495L346 489.032L341.027 489Z" fill="#00BFA6"/>
<path d="M351.027 489L351 494.968L355.973 495L356 489.032L351.027 489Z" fill="#00BFA6"/>
<path d="M361.027 489L361 494.968L365.973 495L366 489.032L361.027 489Z" fill="#00BFA6"/>
<path d="M371.027 489L371 494.968L375.973 495L376 489.032L371.027 489Z" fill="#00BFA6"/>
<path d="M381.027 489L381 494.968L385.973 495L386 489.032L381.027 489Z" fill="#00BFA6"/>
<path d="M336.027 495L336 499.973L340.973 500L341 495.027L336.027 495Z" fill="#00BFA6"/>
<path d="M346.027 495L346 499.973L350.973 500L351 495.027L346.027 495Z" fill="#00BFA6"/>
<path d="M356.027 495L356 499.973L360.973 500L361 495.027L356.027 495Z" fill="#00BFA6"/>
<path d="M366.027 495L366 499.973L370.973 500L371 495.027L366.027 495Z" fill="#00BFA6"/>
<path d="M376.027 495L376 499.973L380.973 500L381 495.027L376.027 495Z" fill="#00BFA6"/>
<path d="M320.032 500L320 505.968L325.968 506L326 500.032L320.032 500Z" fill="#00BFA6"/>
<path d="M341.027 500L341 505.968L345.973 506L346 500.032L341.027 500Z" fill="#00BFA6"/>
<path d="M351.027 500L351 505.968L355.973 506L356 500.032L351.027 500Z" fill="#00BFA6"/>
<path d="M371.027 500L371 505.968L375.973 506L376 500.032L371.027 500Z" fill="#00BFA6"/>
<path d="M381.027 500L381 505.968L385.973 506L386 500.032L381.027 500Z" fill="#00BFA6"/>
<path d="M316.022 506L316 510.973L319.979 511L320 506.027L316.022 506Z" fill="#00BFA6"/>
<path d="M326.021 506L326 510.973L329.979 511L330 506.027L326.021 506Z" fill="#00BFA6"/>
<path d="M346.027 506L346 510.973L350.973 511L351 506.027L346.027 506Z" fill="#00BFA6"/>
<path d="M356.027 506L356 510.973L360.973 511L361 506.027L356.027 506Z" fill="#00BFA6"/>
<path d="M376.027 506L376 511.968L380.973 512L381 506.032L376.027 506Z" fill="#00BFA6"/>
<path d="M310.032 511L310 516.968L315.968 517L316 511.032L310.032 511Z" fill="#00BFA6"/>
<path d="M320.032 511L320 516.968L325.968 517L326 511.032L320.032 511Z" fill="#00BFA6"/>
<path d="M313 493.987L315.746 494L316 489C314.858 490.591 313.855 492.258 313 493.987Z" fill="#00BFA6"/>
<path d="M320.032 489L320 493.973L325.968 494L326 489.027L320.032 489Z" fill="#00BFA6"/>
<path d="M316.022 494L316 499.968L319.979 500L320 494.032L316.022 494Z" fill="#00BFA6"/>
<path d="M326.027 494L326 499.968L330.973 500L331 494.032L326.027 494Z" fill="#00BFA6"/>
<path d="M330.032 500L330 505.968L335.968 506L336 500.032L330.032 500Z" fill="#00BFA6"/>
<path d="M336.027 506L336 510.973L340.973 511L341 506.027L336.027 506Z" fill="#00BFA6"/>
<path d="M341.027 511L341 516.968L345.973 517L346 511.032L341.027 511Z" fill="#00BFA6"/>
<path d="M351.027 511L351 516.968L355.973 517L356 511.032L351.027 511Z" fill="#00BFA6"/>
<path d="M361.027 511L361 516.968L365.973 517L366 511.032L361.027 511Z" fill="#00BFA6"/>
<path d="M371.027 512L371 516.973L375.973 517L376 512.027L371.027 512Z" fill="#00BFA6"/>
<path d="M381.027 512L381 516.973L385.973 517L386 512.027L381.027 512Z" fill="#00BFA6"/>
<path d="M315.027 517L315 522.968L319.973 523L320 517.032L315.027 517Z" fill="#00BFA6"/>
<path d="M326.021 517L326 522.968L329.979 523L330 517.032L326.021 517Z" fill="#00BFA6"/>
<path d="M336.027 517L336 522.968L340.973 523L341 517.032L336.027 517Z" fill="#00BFA6"/>
<path d="M346.027 517L346 522.968L350.973 523L351 517.032L346.027 517Z" fill="#00BFA6"/>
<path d="M356.027 517L356 522.968L360.973 523L361 517.032L356.027 517Z" fill="#00BFA6"/>
<path d="M376.027 517L376 522.968L380.973 523L381 517.032L376.027 517Z" fill="#00BFA6"/>
<path d="M310.027 523L310 527.973L314.973 528L315 523.027L310.027 523Z" fill="#00BFA6"/>
<path d="M320.032 523L320 527.973L325.968 528L326 523.027L320.032 523Z" fill="#00BFA6"/>
<path d="M330.032 523L330 527.973L335.968 528L336 523.027L330.032 523Z" fill="#00BFA6"/>
<path d="M340.032 523L340 528.968L345.968 529L346 523.032L340.032 523Z" fill="#00BFA6"/>
<path d="M351.027 523L351 528.968L355.973 529L356 523.032L351.027 523Z" fill="#00BFA6"/>
<path d="M361.027 523L361 528.968L365.973 529L366 523.032L361.027 523Z" fill="#00BFA6"/>
<path d="M371.027 523L371 528.968L375.973 529L376 523.032L371.027 523Z" fill="#00BFA6"/>
<path d="M315.025 528L315 533.966L319.975 534L320 528.034L315.025 528Z" fill="#00BFA6"/>
<path d="M326.02 528L326 533.966L329.98 534L330 528.034L326.02 528Z" fill="#00BFA6"/>
<path d="M336.02 528L336 533.966L339.98 534L340 528.034L336.02 528Z" fill="#00BFA6"/>
<path d="M346.025 529L346 533.972L350.975 534L351 529.028L346.025 529Z" fill="#00BFA6"/>
<path d="M356.025 529L356 533.972L360.974 534L361 529.028L356.025 529Z" fill="#00BFA6"/>
<path d="M366.025 529L366 533.972L370.975 534L371 529.028L366.025 529Z" fill="#00BFA6"/>
<path d="M388 529.01L386.006 529L386 530C386.681 529.69 387.348 529.36 388 529.01Z" fill="#00BFA6"/>
<path opacity="0.2" d="M722.5 620C726.527 618.247 742.103 646.379 746.46 646.935C742.983 649.317 750.629 647.553 746.46 646.935C747.375 657 743.715 700.003 724.501 695.429C705.287 690.854 699.797 677.129 707.116 653.34C721 621.5 722.5 620 722.5 620Z" fill="black"/>
<path d="M792 14.575C787.567 13.0182 773.939 7.13229 769.096 15.0146C764.252 22.8968 757.945 25.6441 755.397 26.0324C752.321 27.4579 745.937 32.5132 745.007 41.33C743.846 52.3509 742.4 54.1657 737.928 60.907C733.455 67.6483 731.601 73.353 731.811 77.3077C732.021 81.2623 733.954 86.7086 729.828 96.1079C725.703 105.507 724.6 104.081 724.468 111.276C724.362 117.034 726.083 121.715 726.958 123.336C726.709 127.679 725.288 136.794 721.597 138.505C716.984 140.643 715.339 150.302 716.305 153.025C717.271 155.748 718.175 165.02 714.46 170.529C710.744 176.04 709.783 179.216 712.751 186.737C715.126 192.754 721.866 193.433 719.319 195.788L724.468 204.311H736.601L745.281 205.22L752.722 206L758.092 119.388" stroke="#D3AC6B" stroke-width="22"/>
<path d="M779.308 10.2086C779.308 10.2086 732.743 9.72968 730.5 80.5C728.632 139.47 708.34 179.754 726.606 192.054C733.138 196.452 769.047 195.057 776.024 192.054L850.599 159.852C850.599 159.852 851.723 53.7005 825.901 27.8991C800.079 2.0977 779.315 10.2086 779.315 10.2086H779.308Z" fill="#D3AC6B"/>
<path d="M791 12.1641C795.836 11.07 810.825 6.60546 815.046 15.0079C819.266 23.4103 825.597 26.8236 828.235 27.48C831.313 29.2305 837.468 34.9634 837.468 43.8909C837.468 55.0504 838.787 57.0197 842.744 64.2404C846.701 71.4612 848.02 77.3692 847.36 81.3078C846.701 85.2464 844.063 90.4979 847.36 100.344C850.658 110.191 851.976 108.878 851.317 116.099C850.789 121.876 848.459 126.383 847.36 127.915C847.14 132.291 847.624 141.569 851.317 143.669C855.934 146.295 856.593 156.142 855.274 158.767C853.955 161.393 851.976 170.584 855.274 176.491C858.571 182.399 859.231 185.682 855.274 192.902C852.108 198.678 844.942 198.652 847.36 201.278V208H828.235H819.002H811.089L815.046 120.694" stroke="#D3AC6B" stroke-width="20"/>
<path d="M856 380C837 377.5 839.681 332.312 839.151 325V289V248.264L831.132 181.505L753.252 183.909C753.252 183.909 738.623 227.201 733.399 239.207C732.336 242.1 731.622 245.148 731.278 248.264C728.495 267.732 721.127 308.889 721.127 308.889L698.852 361.111C698.852 361.111 698.79 404.342 689.385 398.333C657.38 398.333 679.362 361.111 679.362 361.111L706.691 260.835C706.691 260.835 706.691 259.575 706.571 257.3C706.189 244.682 705.164 200.87 708.259 168.334C708.5 165.808 708.738 163.428 708.972 161.194C727.5 144 721.127 157 740.5 140.5C758.043 137.3 771.348 107.376 773.921 97.9135C775.287 92.8973 775.713 87.6043 775.167 82.3851C775.167 82.3851 810.705 50.531 806.525 88.9939C805.977 93.5397 806.217 98.1653 807.229 102.604C811.499 120.548 828.731 128.116 839.151 131.097C845.801 132.98 851.661 137.497 855.704 143.854C859.746 150.212 861.712 158.003 861.255 165.862V166.174C861.014 170.172 860.367 174.123 859.326 177.948C859.326 177.948 867.527 197.182 866 211C865.246 217.632 865.578 233.683 866 248.264C866.422 262.845 866 289 866 289L864 325C864 325 875 382.5 856 380Z" fill="#EBAE9C"/>
<path d="M853.981 149.797L862.467 153.534L871.995 238.078L831.94 246.656L825.337 202.972L825.667 161.512L853.981 149.797Z" fill="#39615C"/>
<path opacity="0.05" d="M853.981 149.797L862.467 153.534L871.995 238.078L831.94 246.656L825.337 202.972L825.667 161.512L853.981 149.797Z" fill="black"/>
<path d="M720.777 364.474L745.481 460.545C745.481 460.545 746.396 528.253 751.886 554.787C757.376 581.321 775.675 645.368 775.675 645.368L797.634 649.028L793.059 559.361C793.059 559.361 793.059 505.378 788.484 493.484C783.91 481.589 774.76 359.899 774.76 359.899L720.777 364.474Z" fill="#EBAE9C"/>
<g opacity="0.1" filter="url(#filter0_d_103_390)">
<path d="M721 360.592L745.704 460.275C745.704 460.275 746.619 530.529 752.109 558.06C757.599 585.592 775.898 652.047 775.898 652.047L797.857 655.845L793.282 562.807C793.282 562.807 793.282 506.794 788.707 494.453C784.133 482.111 774.983 355.845 774.983 355.845L721 360.592Z" fill="#875555"/>
<path d="M746.204 460.269L746.203 460.211L746.189 460.155L721.626 361.039L774.521 356.388C774.538 356.618 774.56 356.924 774.588 357.303C774.656 358.231 774.757 359.593 774.886 361.332C775.146 364.809 775.521 369.79 775.986 375.805C776.915 387.837 778.202 404.007 779.631 420.564C781.061 437.12 782.634 454.064 784.136 467.643C784.887 474.432 785.62 480.384 786.31 485.027C786.996 489.649 787.645 493.026 788.239 494.626C789.356 497.64 790.21 503.39 790.854 510.385C791.496 517.359 791.925 525.507 792.211 533.276C792.496 541.044 792.639 548.427 792.711 553.869C792.747 556.589 792.764 558.824 792.773 560.379C792.778 561.156 792.78 561.764 792.781 562.176C792.782 562.383 792.782 562.54 792.782 562.647V562.767V562.797V562.805C792.782 562.806 792.782 562.807 793.282 562.807H792.782V562.819L792.783 562.832L797.327 655.246L776.296 651.609L776.173 651.162C776.038 650.669 775.839 649.942 775.583 649.006C775.072 647.136 774.336 644.433 773.436 641.103C771.634 634.444 769.176 625.277 766.546 615.251C761.284 595.194 755.341 571.711 752.599 557.962C749.863 544.241 748.263 519.833 747.347 498.822C746.89 488.323 746.604 478.685 746.433 471.67C746.347 468.163 746.29 465.313 746.254 463.339C746.236 462.352 746.224 461.584 746.216 461.063C746.212 460.803 746.209 460.604 746.207 460.471L746.205 460.32L746.204 460.282V460.272V460.269ZM746.204 460.269C746.204 460.268 746.204 460.269 745.704 460.275L746.204 460.269Z" stroke="#EBAE9C"/>
</g>
<path d="M776.59 359.494C776.59 359.494 761.035 452.821 761.95 466.545C762.865 480.27 761.95 482.1 761.95 482.1C761.95 482.1 746.396 522.358 741.821 545.232C737.246 568.106 727.182 597.385 727.182 597.385C727.182 597.385 715.287 623.919 725.352 623.919C735.416 623.919 749.141 620.259 749.141 620.259C749.105 609.691 752.653 599.422 759.205 591.13C770.185 577.256 803.124 512.293 803.124 504.059C803.124 495.824 808.614 472.035 808.614 472.035L829.658 370.474L776.59 359.494Z" fill="#EBAE9C"/>
<path d="M729.927 612.94C733.954 611.187 738.379 610.554 742.736 611.11C746.905 611.728 751.154 610.747 754.631 608.365C754.631 608.365 747.311 634.899 748.226 644.963C749.141 655.028 745.481 698.031 726.267 693.457C707.053 688.882 701.563 675.157 708.882 651.368C716.202 627.579 714.372 600.13 714.372 600.13C714.372 600.13 727.726 586.337 730.199 588.201C732.672 590.066 729.927 612.94 729.927 612.94Z" fill="#DDDEDF"/>
<path opacity="0.2" d="M790.795 650.269C790.795 650.269 781.688 630.659 770.758 648.486C759.828 666.315 758.918 670.772 758.918 670.772C758.918 670.772 727.951 698.405 749.81 701.079C771.669 703.753 788.973 700.187 788.973 695.731C788.973 691.274 799.903 692.165 800.814 688.6C801.725 685.034 798.992 652.052 798.992 652.052L790.795 650.269Z" fill="black"/>
<path d="M687.432 375.841L685.3 375L610.666 563.847C607.125 556.369 594.535 537.262 557.911 535.923C556.088 535.867 554.314 536.522 552.965 537.749C551.616 538.976 550.797 540.68 550.681 542.5L550.046 552.029C549.697 557.212 551.355 562.331 554.677 566.325C557.999 570.318 562.73 572.881 567.889 573.482C582.873 575.214 602.64 575.526 611.526 567.142L611.787 567.245L687.432 375.841Z" fill="#808080"/>
<path opacity="0.1" d="M810 101.221C803.955 103.644 797.386 104.503 790.913 103.717C784.439 102.931 778.275 100.526 773 96.7292C774.521 91.9258 774.993 86.8574 774.386 81.8596C774.386 81.8596 813.924 51.357 809.273 88.188C808.645 92.5373 808.892 96.9666 810 101.221Z" fill="black"/>
<path d="M792 102C811.33 102 827 85.2107 827 64.5C827 43.7893 811.33 27 792 27C772.67 27 757 43.7893 757 64.5C757 85.2107 772.67 102 792 102Z" fill="#EBAE9C"/>
<path opacity="0.1" d="M738 160C738.702 160 757.715 160 761 158L738 160Z" fill="black"/>
<path opacity="0.1" d="M810 149C825.212 149 828.734 149 834 148L810 149Z" fill="black"/>
<path d="M815.5 34C812.859 37.5109 809.161 46.3065 815.5 53.4022C821.839 60.4978 818.141 67.8152 815.5 70.587C813.563 72.8043 810.852 79.013 815.5 86.1087C820.148 93.2043 817.438 100.522 815.5 103.293C812.859 105.326 809.161 111.941 815.5 122.141C821.839 132.341 818.141 135.631 815.5 136" stroke="#D3AC6B"/>
<path d="M760.79 46C757.93 49.5225 753.926 58.3472 760.79 65.4663C767.653 72.5854 763.649 79.927 760.79 82.7079C758.693 84.9326 755.756 91.1618 760.79 98.2809C765.823 105.4 762.886 112.742 760.79 115.522C757.93 117.561 753.926 124.199 760.79 134.433C767.653 144.666 769.583 144.63 766.723 145" stroke="#D3AC6B" stroke-width="2"/>
<path d="M760.5 46C757.859 49.496 754.161 58.2544 760.5 65.32C766.839 72.3856 763.141 79.672 760.5 82.432C758.563 84.64 755.852 90.8224 760.5 97.888C765.148 104.954 762.437 112.24 760.5 115" stroke="#D3AC6B" stroke-width="2"/>
<path d="M823 42C826.018 45.7518 830.245 55.1511 823 62.7337C815.755 70.3163 819.982 78.1358 823 81.0979C825.214 83.4674 828.313 90.1021 823 97.6848C817.688 105.267 820.786 113.087 823 116.049C826.018 118.221 830.245 125.29 823 136.19C815.755 147.09 819.982 150.605 823 151" stroke="#D3AC6B" stroke-width="2"/>
<path d="M716.216 161.528L708.209 164.22L695.333 236.203L731.858 246L740.06 208.908L741.761 173.303L716.216 161.528Z" fill="#39615C"/>
<path opacity="0.02" d="M695.906 235.839L708.649 164.599L716.187 162.065L741.245 173.616L739.562 208.841L731.483 245.382L695.906 235.839Z" fill="black" stroke="black"/>
<path opacity="0.02" d="M854.981 149.797L863.467 153.534L872.995 238.078L832.94 246.656L826.337 202.972L826.667 161.512L854.981 149.797Z" fill="black"/>
<path d="M804.5 138.5C804.5 138.5 785.5 144.143 771 140.266C769.962 140.036 764 134.5 764 134.5C755.5 119 761 131.584 734.901 143.143C722.076 152.503 707.5 152.854 707.5 169C707.5 193.298 729.307 256.391 729.307 256.391L710 365C710 365 704.868 406.087 715 416.5C725.132 426.914 811.279 416.065 828.779 426.479C846.279 436.893 843.5 288.5 843.5 288.5C843.5 288.5 825.5 212 862.5 153L857.5 145L852 138.5L843.5 132.5C843.5 132.5 842.5 132.584 823.5 123.5C812.5 138 795 140.562 804.5 138.5Z" fill="#39615C"/>
<path opacity="0.02" d="M770 172C770 172 785.394 179.956 786.103 188C786.103 188 791.83 173.021 800 172.322" fill="black"/>
<path d="M791.229 646.792C791.229 646.792 782.08 626.663 771.1 644.962C760.12 663.262 759.206 667.837 759.206 667.837C759.206 667.837 728.097 696.2 750.056 698.945C772.015 701.69 789.399 698.03 789.399 693.456C789.399 688.881 800.379 689.796 801.294 686.136C802.209 682.476 799.464 648.622 799.464 648.622L791.229 646.792Z" fill="#DDDEDF"/>
<defs>
<filter id="filter0_d_103_390" x="717" y="355.845" width="84.8571" height="308" filterUnits="userSpaceOnUse" color-interpolation-filters="sRGB">
<feFlood flood-opacity="0" result="BackgroundImageFix"/>
<feColorMatrix in="SourceAlpha" type="matrix" values="0 0 0 0 0 0 0 0 0 0 0 0 0 0 0 0 0 0 127 0" result="hardAlpha"/>
<feOffset dy="4"/>
<feGaussianBlur stdDeviation="2"/>
<feComposite in2="hardAlpha" operator="out"/>
<feColorMatrix type="matrix" values="0 0 0 0 0 0 0 0 0 0 0 0 0 0 0 0 0 0 0.25 0"/>
<feBlend mode="normal" in2="BackgroundImageFix" result="effect1_dropShadow_103_390"/>
<feBlend mode="normal" in="SourceGraphic" in2="effect1_dropShadow_103_390" result="shape"/>
</filter>
</defs>
</svg>
