<svg width="617" height="519" viewBox="0 0 617 519" fill="none" xmlns="http://www.w3.org/2000/svg">
<rect width="616.573" height="519" fill="white"/>
<g clip-path="url(#clip0_3_244)">
<path opacity="0.1" d="M582 306.805C582.01 315.908 580.907 324.979 578.717 333.816C577.98 336.793 577.124 339.709 576.148 342.563C574.955 346.085 573.572 349.541 572.006 352.915C571.216 354.621 570.382 356.294 569.503 357.933C569.517 367.268 567.592 376.505 563.851 385.06C557.087 400.408 545.025 412.819 529.865 420.029C520.386 424.546 510.027 426.921 499.524 426.986H138.839C122.791 427.02 107.021 422.81 93.1311 414.784L92.9175 414.663C90.9391 413.507 89.0102 412.283 87.1309 410.99C82.9024 408.073 78.9297 404.802 75.2557 401.213C70.2829 396.361 65.901 390.938 62.2009 385.06C53.5107 371.28 48.9071 355.323 48.9232 339.038C40.1225 323.617 34.9907 305.145 34.9907 285.294C34.9907 260.25 43.1459 237.404 56.5443 220.109C59.3377 216.496 62.3974 213.096 65.698 209.938C68.9547 206.813 72.455 203.952 76.166 201.381C79.135 199.322 82.238 197.463 85.4543 195.816C86.7965 195.134 88.1433 194.49 89.5133 193.891C90.7162 193.358 91.9329 192.862 93.1636 192.393C94.6405 191.834 96.1359 191.319 97.6499 190.849C99.1639 190.379 100.658 189.968 102.132 189.615C104.299 189.086 106.503 188.657 108.745 188.326C110.603 188.052 112.46 187.862 114.318 187.718C115.795 187.607 117.285 187.547 118.786 187.528H119.598C121.252 187.528 122.896 187.593 124.526 187.704C124.698 187.361 124.883 187.013 125.055 186.675C125.705 185.436 126.379 184.203 127.057 182.997C127.055 182.986 127.055 182.975 127.057 182.964C127.173 182.751 127.289 182.542 127.41 182.338C127.958 181.35 128.529 180.372 129.114 179.403C129.384 178.939 129.648 178.503 129.922 178.067C129.98 177.958 130.044 177.853 130.113 177.751C130.391 177.288 130.675 176.824 130.963 176.36C132.396 174.072 133.887 171.824 135.435 169.617L135.83 169.051C136.071 168.708 136.294 168.374 136.563 168.03C137.204 167.135 137.864 166.236 138.528 165.354C138.992 164.724 139.457 164.098 139.958 163.499C141.166 161.953 142.404 160.407 143.674 158.861C144.943 157.315 146.262 155.79 147.631 154.284C147.816 154.075 148.002 153.871 148.197 153.667L150.18 151.506C150.278 151.404 150.361 151.311 150.454 151.218C150.691 150.963 150.919 150.708 151.174 150.462C152.238 149.335 153.329 148.231 154.425 147.132C160.003 141.584 165.945 136.414 172.212 131.656C172.458 131.461 172.709 131.275 172.955 131.09C174.135 130.204 175.333 129.327 176.531 128.465C183.122 123.743 190.011 119.452 197.156 115.618C197.648 115.335 198.15 115.071 198.656 114.811C205.062 111.427 211.649 108.398 218.389 105.739C222.063 104.288 225.82 102.924 229.6 101.676C232.117 100.851 234.644 100.067 237.203 99.3296C241.203 98.1794 245.231 97.1483 249.287 96.2362C261.236 93.5587 273.392 91.9047 285.623 91.2922C289.338 91.1036 293.095 91.0062 296.894 91C315.225 90.9758 333.484 93.2823 351.231 97.8641C351.415 98.141 351.666 98.3667 351.96 98.5201C352.255 98.6734 352.585 98.7493 352.917 98.7406H354.477C355.155 98.9261 355.829 99.1116 356.507 99.3064C360.293 100.395 364.026 101.584 367.704 102.873L368.633 103.207C377.711 106.431 386.544 110.306 395.063 114.802C402.742 118.845 410.135 123.407 417.192 128.455C418.279 129.235 419.35 130.02 420.406 130.812C421.688 129.992 422.991 129.207 424.316 128.455C429.434 125.545 434.869 123.231 440.515 121.559C452.32 118.07 464.81 117.583 476.851 120.14C492.293 123.409 506.272 131.526 517.562 143.069C522.159 147.793 526.251 152.981 529.772 158.551C530.027 158.949 530.283 159.353 530.529 159.761C533.555 164.691 536.155 169.868 538.303 175.238C538.382 175.437 538.461 175.623 538.531 175.817C540.513 180.845 542.112 186.016 543.314 191.285C543.37 191.554 543.435 191.818 543.491 192.087C544.615 197.186 545.378 202.358 545.776 207.564C545.776 207.749 545.776 207.939 545.813 208.134C546.008 210.827 546.107 213.548 546.11 216.297C546.11 218.755 546.026 221.194 545.873 223.615C545.873 223.88 545.836 224.153 545.813 224.427C545.771 225.127 545.711 225.818 545.65 226.523C549.197 229.38 552.517 232.508 555.579 235.878C556.932 237.353 558.242 238.883 559.508 240.469C563.365 245.297 566.755 250.479 569.633 255.946C577.486 270.75 582 288.165 582 306.805Z" fill="#00BFA6"/>
<path opacity="0.1" d="M529.521 418.313C529.521 421.481 518.593 424.449 499.524 427H138.839C122.791 427.034 107.021 422.824 93.1311 414.798L92.9175 414.677C98.3976 412.683 108.29 410.823 121.753 409.144L122.357 409.07C128.394 408.333 135.142 407.632 142.517 406.969C142.703 406.969 142.893 406.941 143.079 406.918C148.931 406.399 155.156 405.912 161.753 405.457C161.962 405.457 162.167 405.42 162.376 405.411C164.921 405.228 167.518 405.055 170.169 404.891L171.19 404.826C190.487 403.63 212.421 402.674 236.209 402.044H236.237C239.568 401.951 242.935 401.869 246.338 401.798C250.121 401.708 253.951 401.629 257.827 401.561C260.786 401.496 263.781 401.45 266.786 401.404H266.856C280.412 401.2 294.419 401.098 308.742 401.098C344.158 401.098 377.633 401.742 407.296 402.902H407.379C411.94 403.078 416.417 403.273 420.782 403.472L424.498 403.648C429.423 403.883 434.222 404.135 438.894 404.404C493.835 407.526 529.521 412.595 529.521 418.313Z" fill="#00BFA6"/>
<g opacity="0.2">
<path d="M350.934 398.969C350.919 399.469 350.861 399.967 350.762 400.457C347.53 399.944 344.279 399.48 341.009 399.066C341.009 398.936 341.009 398.802 341.009 398.667C341.039 397.277 341.44 395.919 342.17 394.734C343.127 393.222 344.581 392.276 346.183 392.327C347.785 392.378 349.174 393.413 350.033 394.976C350.683 396.203 350.994 397.581 350.934 398.969Z" fill="#3F3D56"/>
<path d="M351.201 391.043C351.314 387.457 349.182 384.479 346.439 384.392C343.696 384.306 341.381 387.143 341.267 390.73C341.154 394.317 343.285 397.295 346.028 397.381C348.771 397.468 351.087 394.63 351.201 391.043Z" fill="#3F3D56"/>
<path d="M351.454 383.103C351.567 379.516 349.436 376.539 346.693 376.452C343.95 376.365 341.634 379.203 341.52 382.79C341.407 386.376 343.539 389.354 346.282 389.441C349.025 389.527 351.34 386.69 351.454 383.103Z" fill="#3F3D56"/>
<path d="M351.703 375.163C351.816 371.576 349.685 368.598 346.941 368.512C344.198 368.425 341.883 371.263 341.769 374.849C341.656 378.436 343.787 381.414 346.53 381.501C349.274 381.587 351.589 378.75 351.703 375.163Z" fill="#3F3D56"/>
<path d="M351.951 367.223C352.065 363.636 349.933 360.658 347.19 360.571C344.447 360.485 342.131 363.322 342.018 366.909C341.904 370.496 344.036 373.474 346.779 373.56C349.522 373.647 351.838 370.809 351.951 367.223Z" fill="#3F3D56"/>
<path d="M330.081 312.129C329.427 311.245 328.838 310.315 328.317 309.346L341.441 307.617L327.314 307.278C326.053 304.292 325.415 301.08 325.44 297.839C325.465 294.598 326.151 291.396 327.458 288.43L346.09 298.842L329.023 285.466C330.744 282.685 333.022 280.289 335.713 278.426C338.403 276.564 341.45 275.275 344.662 274.641C347.874 274.007 351.182 274.042 354.38 274.742C357.578 275.442 360.597 276.794 363.249 278.712C365.9 280.63 368.127 283.073 369.791 285.889C371.454 288.705 372.519 291.833 372.917 295.079C373.316 298.324 373.04 301.616 372.107 304.75C371.174 307.884 369.604 310.792 367.495 313.293C368.512 314.669 369.376 316.151 370.072 317.713L352.847 325.969L371.113 320.482C372.263 324.272 372.448 328.289 371.652 332.169C370.856 336.049 369.103 339.669 366.552 342.702C369.204 346.295 370.79 350.561 371.128 355.012C371.467 359.463 370.544 363.919 368.466 367.871C366.388 371.822 363.238 375.11 359.377 377.359C355.515 379.607 351.098 380.724 346.631 380.584C342.163 380.443 337.826 379.05 334.114 376.563C330.402 374.076 327.466 370.597 325.641 366.522C323.816 362.447 323.177 357.942 323.795 353.521C324.414 349.101 326.265 344.943 329.139 341.524C325.97 337.23 324.34 331.997 324.508 326.666C324.677 321.335 326.635 316.215 330.068 312.129H330.081Z" fill="#00BFA6"/>
<path opacity="0.1" d="M372.125 328.167C371.963 333.501 369.999 338.624 366.552 342.702C369.204 346.295 370.79 350.561 371.128 355.012C371.467 359.463 370.544 363.919 368.466 367.871C366.388 371.822 363.238 375.11 359.377 377.359C355.515 379.607 351.098 380.724 346.631 380.584C342.163 380.443 337.826 379.05 334.114 376.563C330.402 374.076 327.466 370.597 325.641 366.522C323.816 362.447 323.177 357.942 323.795 353.521C324.414 349.101 326.265 344.943 329.139 341.524C326.087 337.382 372.209 325.5 372.125 328.167Z" fill="black"/>
</g>
<g opacity="0.2">
<path d="M280.342 398.969C280.328 399.469 280.27 399.967 280.171 400.457C276.938 399.944 273.687 399.48 270.418 399.066C270.418 398.936 270.418 398.802 270.418 398.667C270.448 397.277 270.849 395.919 271.579 394.734C272.536 393.222 273.989 392.276 275.591 392.327C277.194 392.378 278.582 393.413 279.441 394.976C280.091 396.203 280.402 397.581 280.342 398.969Z" fill="#3F3D56"/>
<path d="M280.604 391.045C280.718 387.459 278.586 384.481 275.843 384.394C273.1 384.308 270.784 387.145 270.671 390.732C270.557 394.319 272.689 397.296 275.432 397.383C278.175 397.47 280.491 394.632 280.604 391.045Z" fill="#3F3D56"/>
<path d="M280.857 383.105C280.971 379.518 278.839 376.54 276.096 376.454C273.353 376.367 271.037 379.205 270.924 382.792C270.81 386.378 272.942 389.356 275.685 389.443C278.428 389.529 280.744 386.692 280.857 383.105Z" fill="#3F3D56"/>
<path d="M281.106 375.165C281.22 371.578 279.088 368.6 276.345 368.514C273.602 368.427 271.286 371.265 271.173 374.851C271.059 378.438 273.191 381.416 275.934 381.503C278.677 381.589 280.993 378.752 281.106 375.165Z" fill="#3F3D56"/>
<path d="M281.355 367.225C281.468 363.638 279.337 360.66 276.594 360.573C273.851 360.487 271.535 363.324 271.421 366.911C271.308 370.498 273.44 373.476 276.183 373.562C278.926 373.649 281.241 370.811 281.355 367.225Z" fill="#3F3D56"/>
<path d="M259.49 312.129C258.836 311.245 258.246 310.315 257.725 309.346L270.85 307.617L256.722 307.278C255.461 304.292 254.824 301.08 254.849 297.839C254.873 294.598 255.56 291.396 256.866 288.43L275.499 298.842L258.431 285.466C260.153 282.685 262.43 280.289 265.121 278.426C267.812 276.564 270.859 275.275 274.071 274.641C277.282 274.007 280.591 274.042 283.789 274.742C286.987 275.442 290.006 276.794 292.657 278.712C295.309 280.63 297.536 283.073 299.2 285.889C300.863 288.705 301.927 291.833 302.326 295.079C302.724 298.324 302.448 301.616 301.515 304.75C300.583 307.884 299.013 310.792 296.904 313.293C297.921 314.669 298.785 316.151 299.481 317.713L282.256 325.969L300.521 320.482C301.672 324.272 301.857 328.289 301.061 332.169C300.264 336.049 298.511 339.669 295.961 342.702C298.613 346.295 300.198 350.561 300.537 355.012C300.875 359.463 299.953 363.919 297.875 367.871C295.796 371.822 292.646 375.11 288.785 377.359C284.924 379.607 280.507 380.724 276.039 380.584C271.572 380.443 267.234 379.05 263.522 376.563C259.811 374.076 256.874 370.597 255.05 366.522C253.225 362.447 252.585 357.942 253.204 353.521C253.822 349.101 255.674 344.943 258.547 341.524C255.379 337.23 253.748 331.997 253.917 326.666C254.085 321.335 256.043 316.215 259.476 312.129H259.49Z" fill="#00BFA6"/>
<path opacity="0.1" d="M301.534 328.167C301.371 333.501 299.407 338.624 295.961 342.702C298.613 346.295 300.198 350.561 300.537 355.012C300.875 359.463 299.953 363.919 297.875 367.871C295.796 371.822 292.646 375.11 288.785 377.359C284.924 379.607 280.507 380.724 276.039 380.584C271.572 380.443 267.234 379.05 263.522 376.563C259.811 374.076 256.874 370.597 255.05 366.522C253.225 362.447 252.585 357.942 253.204 353.521C253.822 349.101 255.674 344.943 258.547 341.524C255.496 337.382 301.617 325.5 301.534 328.167Z" fill="black"/>
</g>
<g opacity="0.2">
<path d="M473.168 404.043C473.133 404.99 473.02 405.933 472.829 406.862C466.606 405.87 460.338 404.982 454.025 404.2C454.025 403.95 454.025 403.695 454.025 403.435C454.084 400.757 454.857 398.142 456.264 395.861C458.121 392.953 460.908 391.131 463.987 391.223C467.066 391.316 469.746 393.315 471.418 396.325C472.678 398.696 473.283 401.36 473.168 404.043Z" fill="#3F3D56"/>
<path d="M473.674 388.773C473.892 381.866 469.786 376.131 464.503 375.964C459.219 375.798 454.759 381.262 454.54 388.169C454.321 395.077 458.428 400.811 463.711 400.978C468.995 401.145 473.455 395.68 473.674 388.773Z" fill="#3F3D56"/>
<path d="M474.156 373.486C474.375 366.579 470.269 360.844 464.985 360.678C459.702 360.511 455.241 365.975 455.023 372.883C454.804 379.79 458.91 385.524 464.194 385.691C469.477 385.858 473.938 380.394 474.156 373.486Z" fill="#3F3D56"/>
<path d="M474.644 358.2C474.862 351.293 470.756 345.558 465.473 345.391C460.189 345.224 455.729 350.689 455.51 357.596C455.291 364.503 459.398 370.238 464.681 370.405C469.965 370.571 474.425 365.107 474.644 358.2Z" fill="#3F3D56"/>
<path d="M474.582 342.218C474.79 335.307 470.672 329.576 465.386 329.418C460.1 329.259 455.646 334.733 455.439 341.644C455.231 348.555 459.348 354.285 464.634 354.444C469.921 354.602 474.374 349.128 474.582 342.218Z" fill="#3F3D56"/>
<path d="M433.02 236.866C431.766 235.163 430.632 233.376 429.625 231.518L454.889 228.188L427.697 227.534C425.269 221.786 424.04 215.603 424.086 209.363C424.132 203.124 425.453 196.96 427.967 191.248L463.843 211.288L430.99 185.538C434.312 180.197 438.7 175.597 443.88 172.024C449.06 168.45 454.922 165.981 461.1 164.769C467.277 163.557 473.639 163.629 479.788 164.98C485.937 166.331 491.741 168.932 496.839 172.621C501.937 176.31 506.219 181.009 509.42 186.423C512.62 191.838 514.669 197.853 515.439 204.093C516.21 210.333 515.685 216.664 513.898 222.693C512.11 228.722 509.099 234.318 505.051 239.134C507.007 241.784 508.672 244.637 510.015 247.644L476.851 263.547L512.012 252.973C514.228 260.261 514.589 267.986 513.062 275.449C511.535 282.911 508.169 289.875 503.267 295.711C508.372 302.628 511.424 310.841 512.074 319.409C512.725 327.977 510.949 336.555 506.948 344.162C502.947 351.769 496.883 358.098 489.45 362.426C482.016 366.753 473.514 368.905 464.914 368.634C456.314 368.363 447.964 365.681 440.818 360.895C433.673 356.108 428.02 349.41 424.507 341.566C420.994 333.722 419.762 325.05 420.952 316.54C422.142 308.03 425.706 300.026 431.236 293.443C425.14 285.177 422.002 275.105 422.326 264.844C422.649 254.583 426.415 244.728 433.02 236.861V236.866Z" fill="#00BFA6"/>
<path opacity="0.1" d="M513.968 267.735C513.663 277.999 509.899 287.859 503.286 295.72C508.39 302.638 511.442 310.85 512.093 319.418C512.744 327.986 510.967 336.564 506.966 344.171C502.965 351.778 496.902 358.107 489.468 362.435C482.035 366.763 473.532 368.914 464.932 368.643C456.332 368.373 447.982 365.691 440.837 360.904C433.691 356.117 428.039 349.419 424.526 341.575C421.012 333.732 419.78 325.059 420.97 316.549C422.16 308.039 425.724 300.035 431.255 293.452C425.338 285.471 514.13 262.601 513.968 267.735Z" fill="black"/>
</g>
<path d="M108.294 404.859L113.166 404.845H120.035L128.719 263.956L214.725 120.631L210.986 116.624V106.477L117.973 260.635L108.294 404.859Z" fill="#F1C0C0"/>
<path opacity="0.1" d="M113.686 404.845H120.035L128.719 263.956L214.725 120.631L210.986 116.624L122.273 261.808L113.686 404.845Z" fill="black"/>
<path d="M93.9392 406.032L316.79 423.062L316.98 423.076L532.651 409.831L532.814 409.821V400.727L295.171 396.372L96.9068 396.181H95.4578L95.2999 397.202L93.9392 406.032Z" fill="#F1C0C0"/>
<path opacity="0.1" d="M93.9392 406.032L316.79 423.062L316.98 423.076L532.651 409.831L532.814 409.654V400.917H532.623L316.79 408.115L96.9068 396.181H96.8743L96.4842 396.436L95.2999 397.202L93.9392 406.032Z" fill="black"/>
<path opacity="0.1" d="M93.9392 406.032L316.79 423.062V408.115L96.4842 396.436L95.2999 397.202L93.9392 406.032Z" fill="black"/>
<path d="M210.958 116.434L309.206 221.742L306.169 406.978L314.514 407.985L314.654 408.003H322.999L323.998 229.696L507.967 291.064L511.07 400.332L517.785 401.084L520.061 401.339L514.794 283.486L322.479 216.06L217.028 106.583H210.958V116.434Z" fill="#F1C0C0"/>
<path opacity="0.1" d="M323.241 226.287L323.998 229.696L507.967 291.064L511.07 400.332L517.785 401.084L512.519 288.791L323.241 226.287Z" fill="black"/>
<path opacity="0.1" d="M210.958 116.434L309.206 221.742L306.169 406.978L314.514 407.985L316.79 215.68L210.958 106.583V116.434Z" fill="black"/>
<path d="M323.598 300.627L391.073 313.896L391.097 313.901L509.277 337.15L514.687 334.985L514.669 334.604L514.316 327.068L323.668 288.597L323.598 300.627Z" fill="#F1C0C0"/>
<path opacity="0.1" d="M391.097 313.901L509.277 337.15L514.687 334.985L514.669 334.604L391.097 313.901Z" fill="black"/>
<path d="M395.615 253.585L397.441 353.921L398.383 405.397L406.692 405.118L411.921 404.942L410.296 255.037L406.692 253.84L405.902 253.585H395.615Z" fill="#F1C0C0"/>
<path opacity="0.1" d="M395.69 253.562V253.585L397.441 353.921L398.383 405.397L406.692 405.119V253.562H395.69Z" fill="black"/>
<path d="M265.472 279.21C265.959 279.474 266.425 279.776 266.865 280.114C267.385 280.569 267.853 281.081 268.258 281.64C270.251 284.214 272.09 287.205 271.895 290.452C271.899 290.924 271.809 291.393 271.632 291.83C271.454 292.268 271.191 292.666 270.859 293.003C270.037 293.703 268.857 293.735 267.78 293.735C266.61 293.735 265.379 293.735 264.366 293.132C263.354 292.53 262.509 291.356 261.311 291.384C261.141 291.412 260.969 291.412 260.8 291.384C260.386 291.249 260.303 290.707 260.033 290.364C259.569 289.747 258.589 289.9 257.86 290.169C257.131 290.438 256.323 290.841 255.603 290.531C255.185 290.31 254.843 289.969 254.623 289.552C252.9 286.769 252.533 283.425 252.208 280.193C252.008 278.226 250.485 271.52 254.688 273.046C256.546 273.714 258.283 275.049 259.973 276.028L265.472 279.21Z" fill="#3F3D56"/>
<path d="M261.32 279.873C261.695 280.142 262.15 280.279 262.612 280.26C263.074 280.242 263.517 280.069 263.869 279.771C264.561 279.147 265.002 278.293 265.109 277.368C265.574 277.224 265.811 277.832 266.108 278.203C266.628 278.834 267.687 278.825 268.161 279.497C268.49 279.961 268.416 280.606 268.648 281.13C268.95 281.807 269.698 282.159 270.209 282.706C270.691 283.304 271.04 283.999 271.231 284.742L271.992 287.024C272.357 287.973 272.591 288.967 272.689 289.979C272.737 290.484 272.684 290.995 272.532 291.479C272.381 291.964 272.134 292.414 271.806 292.803C270.785 293.902 269.108 294.018 267.627 293.986C267.132 293.996 266.638 293.939 266.159 293.814C264.845 293.406 264.004 292.084 263.656 290.753C263.308 289.422 263.345 288.026 263.14 286.663C262.92 285.323 262.53 284.017 261.979 282.776C261.571 281.811 260.447 280.374 260.465 279.349C260.8 279.349 261.041 279.655 261.32 279.873Z" fill="#3F3D56"/>
<path d="M262.987 275.175C262.77 274.516 262.643 273.831 262.611 273.139C262.611 271.747 263.247 270.439 263.888 269.196L258.58 269.915C257.939 270.003 257.224 270.133 256.861 270.667C256.724 270.931 256.652 271.224 256.652 271.522C256.652 271.82 256.724 272.114 256.861 272.378C257.128 272.907 257.339 273.462 257.493 274.034C257.505 274.534 257.563 275.032 257.665 275.522C257.83 275.882 258.062 276.208 258.348 276.482C259.866 278.161 261.004 280.142 262.137 282.104C262.105 282.048 265.337 279.548 265.207 278.732C265.133 278.268 264.199 277.711 263.902 277.266C263.491 276.62 263.183 275.915 262.987 275.175Z" fill="#BE6F72"/>
<path d="M308.5 257.054V261.623L230.167 276.881L226.103 279.339H212.082V276.765L289.046 258.195L308.5 257.054Z" fill="#F1C0C0"/>
<path opacity="0.1" d="M308.5 261.623L230.167 276.881L226.103 279.339H212.082L289.617 262.768L308.5 261.623Z" fill="black"/>
<path d="M245.609 386.739C244.736 385.683 243.531 384.954 242.19 384.669C240.849 384.384 239.452 384.561 238.224 385.171C237.962 385.295 237.73 385.475 237.546 385.7C237.082 386.349 237.379 387.244 237.421 388.047C237.528 390.004 235.967 391.595 234.565 392.963C233.812 393.695 233.046 394.479 232.707 395.476C232.368 396.474 232.619 397.74 233.529 398.259C233.926 398.458 234.359 398.578 234.802 398.612C236.286 398.901 237.808 398.943 239.306 398.737C240.788 398.454 242.242 397.614 242.882 396.251C243.006 395.881 243.211 395.544 243.482 395.263C244.299 394.618 245.553 395.374 246.482 394.915C247.248 394.535 247.281 393.937 247.29 393.148C247.318 390.968 246.993 388.501 245.609 386.739Z" fill="#00BFA6"/>
<path d="M256.755 386.655C257.326 388.158 257.405 389.795 257.479 391.4C257.521 392.327 257.549 393.32 257.047 394.104C256.546 394.887 255.566 395.3 254.628 395.495C252.691 395.894 250.448 395.518 249.199 393.983C248.242 392.81 248.042 391.2 248.219 389.679C248.367 388.431 248.683 386.971 247.787 386.085C247.555 385.848 247.253 385.681 247.039 385.426C246.575 384.86 246.649 384.007 246.9 383.311C247.226 382.646 247.471 381.944 247.629 381.22C247.666 380.876 253.917 381.461 254.493 381.744C255.278 382.129 255.157 382.773 255.394 383.552C255.724 384.638 256.355 385.616 256.755 386.655Z" fill="#00BFA6"/>
<path d="M257.902 320.027C259.128 320.821 259.602 322.379 259.792 323.826C260.317 327.791 259.397 331.798 259.328 335.801C259.262 341.408 260.888 347.117 259.499 352.548C258.668 355.795 259.374 359.505 258.594 362.784C258.362 363.758 257.934 364.676 257.711 365.65C257.247 367.76 257.735 369.968 258.389 372.032C258.598 372.588 258.731 373.17 258.784 373.762C258.753 374.673 258.521 375.566 258.106 376.378L255.32 382.959C255.008 383.696 253.782 383.817 252.998 383.914C251.521 384.09 249.872 384.216 248.697 383.302C247.522 382.388 247.239 380.858 247.058 379.429C246.71 376.687 246.555 373.924 246.593 371.16C246.644 370.439 246.58 369.714 246.403 369.013C246.147 368.22 245.585 367.533 245.432 366.694C245.237 365.609 245.79 364.542 245.994 363.447C246.134 362.448 246.119 361.432 245.948 360.437C245.767 358.953 245.558 357.469 245.321 355.994C244.986 353.93 245.465 351.894 245.785 349.826C246.087 347.883 245.702 345.902 245.321 343.973C245.354 345.539 245.158 347.101 244.74 348.611C244.494 349.348 244.141 350.053 243.927 350.804C242.975 354.176 245.005 357.715 244.717 361.207C244.582 362.84 243.941 364.454 244.122 366.063C244.248 367.241 244.796 368.322 245.172 369.444C245.548 370.566 245.743 371.851 245.172 372.899C243.663 375.747 244.791 379.62 246.143 382.541C246.417 383.06 246.656 383.596 246.858 384.146C247.257 385.463 246.923 386.878 247.03 388.251C246.641 388.314 246.242 388.288 245.865 388.175C245.488 388.062 245.141 387.864 244.852 387.597C244.647 387.383 244.48 387.133 244.28 386.91C243.722 386.379 243.062 385.967 242.339 385.7C241.915 385.463 241.431 385.352 240.946 385.38C240.435 385.522 239.976 385.807 239.622 386.201C239.163 386.604 238.676 386.974 238.164 387.309C237.946 387.476 237.691 387.589 237.421 387.638C237.285 387.659 237.146 387.637 237.023 387.575C236.901 387.512 236.801 387.413 236.738 387.291C236.709 387.213 236.692 387.132 236.687 387.049C236.515 385.649 236.423 384.24 236.413 382.829C236.413 380.403 233.506 378.734 233.139 376.336C232.846 374.402 233.39 372.431 233.209 370.483C233.12 369.481 232.842 368.498 232.86 367.496C232.86 366.847 233.009 366.211 233.06 365.567C233.103 364.851 233.092 364.133 233.028 363.419L232.884 361.179C232.744 358.967 232.591 356.708 231.718 354.686C230.683 352.325 230.07 349.801 229.907 347.229C229.814 345.605 229.874 343.982 229.688 342.354C229.521 340.884 229.15 339.423 229.256 337.948C229.345 336.807 229.721 335.703 229.809 334.563C229.99 332.369 229.154 330.235 228.499 328.134C227.845 326.034 227.362 323.705 228.221 321.679C228.344 321.346 228.548 321.049 228.815 320.816C229.145 320.598 229.52 320.459 229.911 320.408C237.88 318.736 246.047 318.216 254.163 318.863C255.486 318.938 256.77 319.338 257.902 320.027Z" fill="#3F3D56"/>
<path d="M231.537 270.769C235.646 270.769 238.977 267.442 238.977 263.339C238.977 259.235 235.646 255.909 231.537 255.909C227.428 255.909 224.097 259.235 224.097 263.339C224.097 267.442 227.428 270.769 231.537 270.769Z" fill="#BE6F72"/>
<path d="M230.097 272.619C230.204 273.044 230.204 273.488 230.097 273.913C229.98 274.21 229.815 274.486 229.609 274.729C228.889 275.657 228.092 276.523 227.227 277.317C227.668 278.301 228.461 279.083 229.452 279.511C230.435 279.929 231.466 280.223 232.521 280.388C233.048 280.526 233.597 280.564 234.138 280.499C234.636 280.374 235.108 280.16 235.531 279.868L239.664 277.396C240.288 277.059 240.865 276.643 241.382 276.158C242.141 275.38 242.57 274.34 242.581 273.254C242.6 273.06 242.547 272.865 242.432 272.707C242.274 272.57 242.075 272.487 241.865 272.471C240.412 272.151 239.265 270.973 238.614 269.637C238.027 268.268 237.646 266.819 237.486 265.338L233.079 267.657C232.424 268.004 231.774 268.352 231.096 268.654C230.664 268.849 229.791 269.011 229.484 269.405C228.899 270.133 229.944 271.743 230.097 272.619Z" fill="#BE6F72"/>
<path d="M227.255 275.968C226.627 276.481 226.137 277.143 225.829 277.892C225.541 278.82 225.829 279.799 226.089 280.717C227.308 284.631 228.239 288.629 228.876 292.678C229.266 295.461 229.41 298.285 229.6 301.1C229.99 306.842 230.557 315.997 231.314 321.702C234.1 321.827 236.817 321.015 239.58 320.719C244.745 320.171 250.062 321.423 255.12 320.255C253.894 315.417 252.668 307.157 251.442 302.325C250.899 300.421 250.523 298.473 250.318 296.504C250.211 295.09 250.276 293.67 250.295 292.247C250.336 289.464 250.183 286.681 250.03 283.898C249.853 280.652 249.677 277.405 248.906 274.228C248.852 273.824 248.662 273.449 248.367 273.166C247.903 272.828 247.299 272.948 246.746 273.023C245.054 273.237 243.342 272.832 241.926 271.882C241.313 271.464 240.491 270.954 239.92 271.418C239.676 271.698 239.515 272.04 239.455 272.406C239.202 273.062 238.812 273.657 238.311 274.15C237.81 274.644 237.208 275.024 236.548 275.267C235.224 275.746 233.838 276.03 232.433 276.111C232.003 276.204 231.555 276.153 231.156 275.968C230.496 275.564 230.45 274.113 229.619 274.015C228.89 273.932 227.747 275.499 227.255 275.968Z" fill="#3F3D56"/>
<path d="M238.243 287.293C236.529 285.656 235.777 283.282 234.528 281.264C233.677 279.907 232.59 278.714 231.318 277.739C230.679 277.318 230.093 276.821 229.572 276.26C229.131 275.717 228.797 274.994 228.128 274.785C227.852 274.725 227.565 274.733 227.292 274.808C227.02 274.883 226.769 275.023 226.563 275.216C226.153 275.606 225.766 276.018 225.402 276.45C223.433 278.486 219.973 278.769 218.412 281.125C217.991 281.625 217.705 282.223 217.581 282.864C217.132 286.293 218.02 289.764 220.061 292.557C220.456 293.205 221.063 293.696 221.779 293.949C221.682 294.813 221.797 295.689 222.114 296.5C222.974 299.435 224.03 302.309 225.276 305.103C224.978 306.196 224.77 307.311 224.654 308.437C224.329 311.271 224.631 314.147 224.324 316.985C224.074 319.304 223.396 321.563 223.372 323.886C223.372 324.257 223.405 324.698 223.725 324.888C223.896 324.975 224.087 325.015 224.278 325.004L229.99 325.176C233.306 325.273 236.655 325.37 239.919 324.758C240.354 324.694 240.776 324.561 241.169 324.364C242.274 323.747 242.641 322.356 242.817 321.117C243.048 319.511 243.14 317.888 243.091 316.266C243.783 318.451 244.605 320.709 246.695 321.655C247.801 322.156 249.064 322.119 250.276 322.087C252.889 321.971 255.492 321.703 258.074 321.284C258.233 321.304 258.394 321.286 258.545 321.232C258.696 321.179 258.832 321.09 258.943 320.974C259.054 320.859 259.135 320.718 259.182 320.565C259.229 320.412 259.239 320.25 259.211 320.092L259.239 317.56C259.295 312.417 258.018 307.501 257.521 302.38C257.363 300.766 257.377 299.134 256.982 297.552C256.82 296.889 256.583 296.24 256.439 295.572C256.315 294.918 256.237 294.256 256.207 293.592L255.844 288.49C255.673 286.129 255.426 283.852 255.245 281.496C255.146 279.202 254.813 276.924 254.251 274.697C253.847 273.306 253.007 271.729 251.553 271.557C250.778 271.469 250.025 271.807 249.287 272.044C247.472 272.615 245.524 272.607 243.714 272.021C243.155 271.8 242.572 271.645 241.977 271.557C241.677 271.516 241.373 271.556 241.093 271.672C240.814 271.787 240.571 271.975 240.389 272.216C240.208 272.578 240.124 272.98 240.142 273.384C239.924 278.018 239.52 282.79 238.243 287.293Z" fill="#00BFA6"/>
<path d="M230.77 287.432C228.63 285.178 226.433 282.883 223.674 281.45C222.587 280.884 221.352 280.457 220.149 280.67C218.946 280.884 217.827 281.927 217.883 283.147C217.92 283.903 218.38 284.571 218.524 285.313C218.691 286.148 218.45 287.038 218.71 287.845C218.921 288.377 219.237 288.861 219.638 289.269L222.926 293.16C224.32 294.784 225.713 296.43 227.506 297.552C229.298 298.675 231.62 299.199 233.59 298.401C234.991 297.751 236.155 296.683 236.924 295.345C237.741 294.046 238.317 292.627 239.084 291.287C240.276 289.145 241.85 287.238 243.728 285.661C242.762 285.41 241.55 285.058 240.941 284.269C240.768 284.019 240.62 283.752 240.5 283.472L239.748 281.849C239.492 281.835 239.236 281.875 238.996 281.965C238.756 282.055 238.538 282.194 238.354 282.373C238.032 282.745 237.686 283.097 237.319 283.425C236.664 283.917 235.777 284.051 235.182 284.613C234.952 284.854 234.744 285.114 234.56 285.392C234.111 285.982 233.54 286.469 232.886 286.821C232.233 287.173 231.511 287.382 230.77 287.432Z" fill="#3F3D56"/>
<path d="M243.9 277.735C245.511 274.799 245.437 271.279 245.897 267.963C245.946 267.084 246.255 266.241 246.784 265.537C247.712 264.489 249.352 264.475 250.754 264.609C251.168 264.656 251.683 264.851 251.66 265.263C251.627 265.411 251.555 265.548 251.451 265.658C250.092 267.41 249.292 269.53 249.157 271.743C249.886 272.248 251.014 271.209 251.716 271.743C252.18 272.132 251.967 272.902 251.688 273.459C251.041 274.748 250.374 276.028 249.686 277.299C249.138 278.419 248.422 279.449 247.564 280.355C246.974 280.921 246.282 281.366 245.683 281.923C244.29 283.226 243.449 285.067 242.009 286.338C241.888 286.47 241.723 286.553 241.545 286.574C241.362 286.561 241.189 286.484 241.057 286.356C240.338 285.772 239.742 285.052 239.302 284.237C238.754 283.226 238.837 282.929 239.701 282.215C241.317 280.939 242.892 279.571 243.9 277.735Z" fill="#BE6F72"/>
<path d="M228.077 285.438C228.355 285.61 228.699 285.805 229.006 285.661C229.131 285.585 229.237 285.482 229.317 285.359C229.848 284.652 230.291 283.882 230.636 283.068C230.695 282.953 230.728 282.827 230.733 282.697C230.733 282.4 230.469 282.182 230.222 282.011C228.904 281.171 227.486 280.498 226.001 280.007C224.775 279.543 223.493 279.14 222.193 279.256C221.704 279.289 221.227 279.42 220.791 279.641C220.354 279.863 219.967 280.17 219.652 280.545C218.723 281.737 220.279 282.099 221.255 282.53C223.512 283.555 225.954 284.149 228.077 285.438Z" fill="#00BFA6"/>
<path opacity="0.1" d="M226.614 293.323C226.598 293.428 226.608 293.537 226.642 293.638C226.675 293.74 226.733 293.832 226.809 293.907C226.944 293.248 226.767 292.553 226.907 291.889C227.111 290.892 228.081 290.141 228.165 289.139C226.386 288.791 226.628 292.247 226.614 293.323Z" fill="black"/>
<path opacity="0.2" d="M308.5 257.054V261.623L289.617 262.768L289.046 258.195L308.5 257.054Z" fill="black"/>
<path d="M224.84 264.443C226.019 263.482 225.337 261.47 226.136 260.18C226.6 259.475 227.385 259.104 228.156 258.789C229.086 258.354 230.083 258.078 231.105 257.973C231.617 257.924 232.133 257.99 232.615 258.168C233.098 258.345 233.534 258.629 233.891 258.998C234.193 259.341 234.398 259.758 234.681 260.115C235.032 260.532 235.489 260.846 236.004 261.024C236.519 261.202 237.073 261.237 237.607 261.126C238.224 260.987 238.865 260.519 238.823 259.888C238.754 259.505 238.558 259.155 238.266 258.896L236.938 257.425C235.429 255.756 233.752 253.984 231.537 253.567C229.995 253.275 228.416 253.687 226.93 254.184C226.331 254.383 225.657 254.68 225.49 255.287C225.379 255.705 225.546 256.159 225.448 256.581C225.258 257.421 224.18 257.704 223.679 258.409C223.177 259.114 223.331 259.948 223.187 260.728C223.043 261.507 222.625 262.267 222.574 263.074C222.541 263.561 222.787 264.466 223.335 264.642C223.883 264.818 224.501 263.863 224.84 264.443Z" fill="#3F3D56"/>
<path d="M238.373 259.22C237.981 257.18 237.137 255.253 235.902 253.581C234.804 252.018 233.277 250.807 231.504 250.093C230.618 249.747 229.665 249.606 228.717 249.681C227.769 249.756 226.85 250.044 226.029 250.524C224.81 251.393 223.862 252.587 223.293 253.97C222.091 256.558 221.645 259.721 223.043 262.207C223.6 261.53 224.557 261.836 225.402 261.59C226.461 261.289 227.357 260.584 228.365 260.143C231.407 258.803 235.122 259.888 238.373 259.22Z" fill="#FED253"/>
<path opacity="0.1" d="M223.753 259.077C223.646 258.242 223.577 257.272 224.171 256.679C224.201 256.642 224.238 256.613 224.281 256.594C224.324 256.575 224.37 256.566 224.417 256.567C224.459 256.581 224.497 256.603 224.53 256.631C224.562 256.66 224.589 256.695 224.608 256.734C224.951 257.275 225.243 257.847 225.481 258.441C225.135 258.361 224.773 258.387 224.441 258.516C224.11 258.644 223.825 258.868 223.623 259.16" fill="black"/>
<path opacity="0.1" d="M234.607 256.72L234.439 255.065C234.412 254.928 234.424 254.787 234.472 254.657C234.542 254.547 234.65 254.468 234.775 254.434C234.9 254.399 235.034 254.413 235.15 254.471C235.378 254.598 235.567 254.786 235.693 255.014C236.08 255.606 236.401 256.239 236.65 256.901C235.902 256.757 235.133 256.767 234.388 256.929" fill="black"/>
<path opacity="0.1" d="M238.763 323.919V327.703L235.563 327.916H218.733V323.919H238.763Z" fill="black"/>
<path d="M238.763 323.919V327.916H218.733L165.52 261.349V258.205H176.675L238.763 323.919Z" fill="#F1C0C0"/>
<path opacity="0.1" d="M238.763 323.919V327.916H218.733L165.52 261.349V258.205H176.675L238.763 323.919Z" fill="black"/>
<path opacity="0.1" d="M238.763 323.919V327.916H218.733L165.52 261.349V258.205L219.021 323.919H238.763Z" fill="black"/>
<path d="M172.495 390.639C172.53 390.827 172.526 391.02 172.483 391.207C172.44 391.393 172.359 391.569 172.244 391.722C172.13 391.876 171.985 392.005 171.819 392.1C171.653 392.195 171.469 392.255 171.279 392.276C169.988 392.712 168.617 393.143 167.703 394.131C166.788 395.119 166.607 396.951 167.703 397.754C168.263 398.091 168.906 398.266 169.56 398.259C171.664 398.403 173.856 398.375 175.765 397.485C177.13 396.854 178.417 395.778 179.917 395.875C180.692 395.922 181.519 396.283 182.211 395.931C182.903 395.578 183.098 394.595 183.103 393.774C183.12 392.061 182.862 390.355 182.336 388.724C182.267 388.501 179.313 388.329 178.96 388.26L175.379 387.796C174.701 387.708 173.238 387.198 172.704 387.764C172.17 388.329 172.495 389.967 172.495 390.639Z" fill="#00BFA6"/>
<path d="M193.863 379.063C194.015 379.898 194.261 380.713 194.597 381.493C195.094 382.755 195.73 384.095 196.947 384.707C198.052 385.259 199.408 385.06 200.532 384.536C201.001 384.342 201.412 384.03 201.726 383.631C202.088 383 202.25 382.274 202.19 381.549C202.19 379.754 202.083 377.899 201.261 376.303C200.555 374.912 199.325 373.715 199.306 372.176L195.075 372.992C194.849 373.014 194.633 373.099 194.453 373.238C194.319 373.379 194.226 373.554 194.184 373.743C193.732 375.479 193.623 377.286 193.863 379.063Z" fill="#00BFA6"/>
<path d="M143.339 335.003C143.163 336.497 143.237 338.097 144.017 339.386C144.798 340.675 146.442 341.529 147.863 341.014C147.936 340.995 148.004 340.962 148.064 340.917C148.124 340.871 148.174 340.815 148.211 340.749C148.249 340.593 148.227 340.428 148.151 340.286C147.523 338.614 147.575 336.763 148.295 335.128C148.387 334.915 148.587 334.665 148.805 334.748C148.897 334.794 148.97 334.869 149.014 334.961C149.239 335.35 149.352 335.793 149.34 336.241C149.274 336.648 149.261 337.061 149.302 337.471C149.391 337.869 149.818 338.245 150.189 338.073C150.297 338.008 150.39 337.921 150.462 337.818C150.535 337.715 150.586 337.598 150.612 337.475C151.648 334.484 151.179 331.214 150.705 328.083C150.709 328.012 150.697 327.94 150.67 327.873C150.643 327.806 150.602 327.746 150.549 327.697C150.496 327.648 150.434 327.611 150.365 327.589C150.296 327.567 150.224 327.56 150.152 327.569C147.96 327.351 146.762 326.827 145.508 328.863C144.431 330.579 143.339 332.939 143.339 335.003Z" fill="#00BFA6"/>
<path d="M168.966 327.392C168.316 330.092 167.661 332.823 167.619 335.597C167.63 337.324 167.761 339.049 168.009 340.759L168.497 344.775C168.664 346.129 168.827 347.479 169.063 348.819C169.214 349.51 169.297 350.214 169.31 350.92C169.264 351.617 169.154 352.308 168.98 352.984C168.688 354.404 168.525 355.848 168.492 357.297C168.441 359.616 168.729 361.935 168.91 364.254C169.272 368.875 169.217 373.519 168.748 378.131C168.56 379.375 168.831 380.646 169.509 381.706C169.785 382.041 170.011 382.413 170.183 382.81C170.531 383.872 169.718 384.934 169.509 386.024C169.376 386.874 169.585 387.742 170.092 388.438C170.599 389.134 171.361 389.6 172.212 389.735C175.927 390.175 179.745 389.976 183.093 391.673C183.446 390.644 182.675 389.475 183.028 388.427C183.251 387.777 183.864 387.355 184.282 386.808C184.844 385.974 185.124 384.983 185.081 383.979C185.098 382.669 184.864 381.367 184.394 380.144C183.999 379.123 183.432 378.117 183.465 377.022C183.465 376.484 183.655 375.918 183.437 375.422C183.287 375.137 183.084 374.884 182.838 374.675C181.45 373.157 180.597 371.227 180.409 369.18C180.228 367.148 180.293 365.102 180.604 363.085C180.832 361.165 181.138 359.139 182.36 357.641C181.793 353.098 182.126 348.489 183.34 344.075C183.46 343.667 183.651 343.194 184.069 343.096C184.235 343.079 184.402 343.102 184.558 343.164C184.713 343.225 184.851 343.323 184.96 343.449C185.689 344.13 186.038 345.118 186.354 346.064C186.702 347.089 187.055 348.184 186.79 349.232C186.679 349.696 186.456 350.104 186.326 350.549C186.043 351.444 186.093 352.41 186.465 353.272C186.647 353.586 186.76 353.936 186.799 354.297C186.756 354.607 186.662 354.908 186.521 355.187C186.349 355.736 186.294 356.315 186.36 356.886C186.427 357.457 186.613 358.008 186.906 358.503C187.498 359.488 188.229 360.383 189.075 361.161C188.671 362.941 188.775 364.799 189.377 366.522C189.42 366.6 189.448 366.685 189.458 366.774C189.469 366.862 189.462 366.951 189.437 367.037C189.354 367.213 189.14 367.278 188.973 367.403C188.509 367.784 188.796 368.502 189.108 368.999C189.96 370.361 190.902 371.665 191.927 372.904C192.855 374.012 192.772 376.15 194.156 376.549C194.737 376.675 195.339 376.675 195.921 376.549C197.286 376.34 198.809 375.946 199.478 374.74C199.752 374.244 199.864 373.641 200.291 373.27C200.718 372.899 201.271 372.834 201.508 372.389C201.744 371.944 201.48 371.359 201.559 370.845C201.638 370.33 202.088 369.917 202.232 369.374C202.576 368.122 201.113 367.093 200.913 365.812C200.625 363.957 202.966 362.566 202.868 360.711C202.664 356.681 202.534 352.632 202.325 348.601C202.063 344.991 202.025 341.368 202.213 337.753C202.376 335.504 202.678 333.148 201.851 331.056C200.662 328.107 197.384 326.451 194.212 326.135C191.04 325.82 187.877 326.571 184.733 327.063C179.515 327.866 174.213 327.977 168.966 327.392Z" fill="#3F3D56"/>
<path d="M178.393 283.064C182.502 283.064 185.833 279.737 185.833 275.634C185.833 271.53 182.502 268.204 178.393 268.204C174.284 268.204 170.953 271.53 170.953 275.634C170.953 279.737 174.284 283.064 178.393 283.064Z" fill="#FBBEBE"/>
<path d="M175.365 284.45C175.113 285.038 174.688 285.536 174.146 285.877C173.605 286.219 172.973 286.39 172.333 286.366C172.063 287.479 172.709 288.601 173.447 289.478C174.981 291.26 176.962 292.601 179.188 293.363C181.413 294.125 183.802 294.281 186.107 293.814C187.005 293.654 187.856 293.299 188.601 292.775C189.606 291.937 190.281 290.771 190.506 289.482C190.719 288.203 190.78 286.903 190.687 285.61C190.713 285.354 190.64 285.099 190.482 284.896C190.297 284.752 190.067 284.677 189.832 284.682C188.262 284.543 186.623 284.483 185.244 283.713C183.864 282.943 182.884 281.204 183.549 279.775C183.442 279.998 180.73 280.105 180.372 280.151C179.253 280.309 178.133 280.485 177.019 280.689C176.483 280.718 175.954 280.818 175.444 280.986C174.771 281.334 175.022 281.162 175.18 281.793C175.417 282.758 175.765 283.449 175.365 284.45Z" fill="#FBBEBE"/>
<path d="M181.027 288.968C180.025 288.979 179.025 288.869 178.05 288.638C177.065 288.409 176.197 287.83 175.607 287.01C175.263 286.491 175.04 285.837 174.492 285.545C173.596 285.081 172.574 285.865 171.859 286.584C171.208 287.293 170.453 287.899 169.621 288.383C168.627 288.907 167.466 289.093 166.528 289.71C165.795 290.263 165.166 290.941 164.67 291.713L158.089 300.664C155.447 304.263 153.148 308.127 150.793 311.925C148.754 315.213 147.686 318.998 146.149 322.546C146.027 322.763 145.977 323.013 146.005 323.26C146.061 323.501 146.353 323.696 146.558 323.557C145.866 324.243 146.474 325.412 146.312 326.377C146.127 327.052 145.741 327.655 145.206 328.107C146.228 327.973 147.266 328.022 148.271 328.25C149.31 328.544 150.291 329.015 151.169 329.642C151.731 329.554 151.68 328.557 152.098 328.185C152.349 327.967 152.721 327.995 153.05 327.93C154.29 327.689 154.783 326.2 155.735 325.361C156.529 324.661 157.653 324.433 158.493 323.775C159.859 322.704 160.151 320.797 160.866 319.216C161.475 317.876 162.431 316.707 162.966 315.334C163.314 314.443 163.481 313.479 163.978 312.658C164.772 311.331 166.268 310.626 167.693 309.991C168.594 309.588 169.551 309.17 170.522 309.235C170.471 311.392 170.197 313.516 170.666 315.621C170.828 316.364 171.056 317.087 171.251 317.824C172.138 321.145 172.347 324.605 172.389 328.028C174.522 327.54 176.702 327.279 178.89 327.249C180.613 327.198 182.332 327.42 184.055 327.388C186.098 327.351 188.118 326.956 190.162 326.817C192.205 326.678 194.342 326.817 196.148 327.745C196.001 324.806 196.084 321.859 196.394 318.933L196.887 314.323C196.998 312.984 197.204 311.654 197.504 310.344C197.774 309.286 198.164 308.266 198.461 307.213C199.506 303.503 199.316 299.542 199.116 295.679C199.014 293.694 198.247 291.741 197.346 289.974C197.02 289.318 196.648 288.685 196.232 288.082C195.143 286.584 193.692 285.386 192.014 284.599C190.336 283.812 188.487 283.463 186.637 283.583C186.401 283.59 186.168 283.641 185.95 283.731C185.558 283.982 185.251 284.346 185.072 284.775C184.111 286.5 182.717 287.945 181.027 288.968Z" fill="#3F3D56"/>
<path d="M171.85 278.096C172.059 277.633 172.621 277.461 172.964 277.09C173.624 276.385 173.327 275.258 173.429 274.307C173.596 272.916 174.752 271.752 176.076 271.256C177.426 270.823 178.862 270.732 180.256 270.991C180.927 271.04 181.575 271.255 182.141 271.617C182.383 271.794 182.606 272.021 182.833 272.183C183.248 272.434 183.745 272.512 184.217 272.402C184.689 272.292 185.099 272.002 185.36 271.594C183.716 269.618 181.895 267.531 179.397 266.924C178.54 266.749 177.666 266.667 176.791 266.678C175.635 266.655 174.441 266.636 173.373 267.077C171.92 267.675 170.898 269.053 170.373 270.537C169.914 272.041 169.669 273.602 169.644 275.175C169.549 276.224 169.549 277.279 169.644 278.328C169.823 279.761 170.356 281.127 171.195 282.303C171.308 282.486 171.469 282.635 171.659 282.734C173.777 283.662 171.678 278.481 171.85 278.096Z" fill="#3F3D56"/>
<path d="M185.118 270.449C184.863 268.264 183.302 266.46 181.644 265.008C180.308 263.75 178.716 262.793 176.977 262.202C175.226 261.688 173.211 261.799 171.711 262.842C170.503 263.682 169.737 265.018 169.147 266.363C168.372 267.95 167.988 269.699 168.028 271.464C168.144 273.217 168.998 274.994 170.522 275.88C171.07 275.073 172.022 274.655 172.937 274.326C176.924 272.815 180.991 271.521 185.118 270.449Z" fill="#FED253"/>
<path opacity="0.1" d="M171.033 269.54C171.181 269.54 171.279 269.693 171.353 269.818C171.731 270.406 172.056 271.027 172.324 271.673C171.78 271.789 170.847 271.919 170.577 271.441C170.433 271.2 170.605 269.516 171.033 269.54Z" fill="black"/>
<path opacity="0.1" d="M181.617 268.491C181.505 268.598 181.375 268.38 181.375 268.222V266.423C181.372 266.373 181.383 266.323 181.408 266.279C181.427 266.257 181.45 266.239 181.477 266.226C181.503 266.214 181.532 266.206 181.561 266.205C181.937 266.163 182.248 266.483 182.49 266.789C182.856 267.285 183.175 267.815 183.442 268.371L181.477 268.311" fill="black"/>
<path d="M206.133 298.29C206.561 297.885 207.017 297.511 207.499 297.172C208.785 296.314 210.341 295.975 211.785 295.428C213.229 294.881 214.697 293.995 215.259 292.557C215.54 291.658 215.632 290.711 215.528 289.775C215.542 289.383 215.472 288.992 215.324 288.629C215.147 288.308 214.895 288.034 214.59 287.831C212.63 286.384 210.002 286.268 207.568 286.417C202.203 286.749 196.944 288.06 192.052 290.285C191.793 290.37 191.567 290.532 191.402 290.749C191.307 290.95 191.263 291.171 191.276 291.393C191.19 292.761 191.368 294.132 191.801 295.433C192.442 297.084 193.761 298.415 194.314 300.098C194.565 300.854 194.648 301.657 194.866 302.417C195.045 303.203 195.511 303.894 196.171 304.356C198.006 305.451 199.738 303.98 201.011 302.839L206.133 298.29Z" fill="#3F3D56"/>
<path d="M182.109 304.713L179.754 299.584C179.409 298.873 179.111 298.14 178.863 297.39C178.593 296.495 178.463 295.567 178.212 294.668C177.386 291.672 175.3 289.176 174.283 286.241C174.219 285.975 174.088 285.731 173.903 285.531C173.754 285.426 173.584 285.355 173.405 285.323C173.226 285.291 173.043 285.299 172.867 285.345C171.446 285.591 170.336 286.672 169.035 287.284C168.432 287.562 167.782 287.748 167.178 288.068C166.876 288.211 166.609 288.417 166.394 288.672C166.179 288.927 166.022 289.226 165.933 289.547C165.789 290.257 166.142 290.939 166.439 291.63C167.703 294.477 167.991 297.659 168.046 300.776C168.088 302.872 167.981 305.121 166.741 306.805C164.359 310.051 165.882 314.819 166.774 318.747C166.881 319.211 167.006 319.712 167.08 320.204C167.159 320.819 167.195 321.439 167.187 322.059C167.187 324.141 167.071 326.289 166.198 328.176C167.06 328.634 168.01 328.903 168.984 328.965C171.681 329.308 174.389 329.549 177.107 329.688C177.959 329.768 178.818 329.724 179.657 329.558C180.653 329.289 181.532 328.696 182.153 327.873C182.775 327.05 183.104 326.044 183.089 325.013C183.237 326.298 183.511 327.694 184.445 328.584C185.378 329.475 186.739 329.609 188.007 329.679C191.585 329.868 195.173 329.768 198.735 329.377C198.962 329.367 199.186 329.315 199.394 329.224C200.082 328.881 200.119 327.935 200.063 327.174C199.961 325.751 199.854 324.327 199.682 322.912C199.537 322.01 199.462 321.099 199.459 320.185C199.53 319.246 199.686 318.314 199.924 317.402C200.546 314.508 201.038 311.554 200.829 308.59C200.747 307.869 200.717 307.142 200.741 306.415C200.862 304.778 201.726 303.22 201.563 301.592C201.099 296.806 200.723 291.894 199.385 287.275C199.144 286.449 198.837 285.563 198.117 285.09C197.188 284.469 195.883 284.794 194.82 284.399C194.321 284.167 193.846 283.886 193.403 283.56C192.441 282.959 191.338 282.62 190.204 282.577C189.349 282.544 188.397 282.734 187.882 283.421C187.643 283.807 187.485 284.238 187.417 284.687C186.744 287.516 185.954 290.313 185.165 293.109L184.408 295.79L182.378 302.988C182.178 303.753 182.313 303.99 182.109 304.713Z" fill="#00BFA6"/>
<path d="M193.984 276.631L238.907 323.775V327.773H218.877L185.118 283.773" fill="#F1C0C0"/>
<path opacity="0.1" d="M193.984 276.631L238.907 323.775V327.773H218.877L185.118 283.773" fill="black"/>
<path opacity="0.1" d="M185.833 283.152L185.977 283.203L219.165 323.775H238.907V327.773H218.877L185.118 283.773L185.833 283.152Z" fill="black"/>
<path d="M191.002 284.144C189.377 284.854 187.57 285.763 187.083 287.47C186.986 287.769 186.966 288.088 187.022 288.397C187.141 288.761 187.368 289.08 187.672 289.313C187.976 289.546 188.344 289.681 188.727 289.7C189.492 289.719 190.252 289.58 190.961 289.292L200.551 286.129C200.811 286.046 201.108 285.921 201.173 285.665C201.19 285.505 201.158 285.343 201.08 285.202C200.783 284.478 200.49 282.999 199.868 282.493C199.357 282.085 198.345 282.229 197.727 282.238C195.349 282.257 193.116 283.217 191.002 284.144Z" fill="#00BFA6"/>
<path d="M199.552 286.505C201.168 286.5 202.774 286.749 204.313 287.242C205.858 287.743 207.226 288.677 208.256 289.932C208.555 290.283 208.768 290.699 208.878 291.147C208.971 291.611 210.485 291.89 210.15 292.205C211.167 292.043 210.926 292.52 211.957 292.511C212.988 292.502 214.103 292.237 214.72 291.416C215.149 290.742 215.341 289.944 215.264 289.149C215.277 288.598 215.173 288.051 214.957 287.544C214.493 286.57 213.425 286.046 212.44 285.596L204.145 281.807C203.664 281.551 203.148 281.368 202.613 281.264C202.163 281.222 201.709 281.233 201.261 281.297L197.504 281.728C198.326 282.259 198.995 282.995 199.445 283.862C199.896 284.73 200.112 285.7 200.072 286.677" fill="#3F3D56"/>
</g>
<defs>
<clipPath id="clip0_3_244">
<rect width="547" height="336" fill="white" transform="translate(35 91)"/>
</clipPath>
</defs>
</svg>
