<svg width="624" height="624" viewBox="0 0 624 624" fill="none" xmlns="http://www.w3.org/2000/svg">
<g clip-path="url(#clip0_5_2)">
<path d="M311.82 623.63C304.71 623.63 297.63 623.39 290.76 622.93C283.68 622.46 276.57 621.74 269.64 620.79C266.59 620.38 263.83 619.97 261.2 619.54C253.39 618.27 245.44 616.66 237.57 614.74C234.87 614.09 232.24 613.41 229.74 612.71C228.86 612.48 227.96 612.23 227.07 611.98C223.27 610.91 219.59 609.8 216.15 608.68C215.93 608.62 215.67 608.53 215.41 608.45C212.31 607.45 209.07 606.34 205.79 605.15C203.02 604.15 200.22 603.09 197.23 601.91C187.47 598.06 177.75 593.63 168.34 588.75C118.42 562.83 76.35 523.84 46.65 475.99C16.14 426.77 0 370 0 311.81C0 228.52 32.44 150.21 91.33 91.32C150.22 32.43 228.53 0 311.82 0C395.11 0 473.42 32.43 532.32 91.32C591.22 150.21 623.65 228.52 623.65 311.81C623.65 360.75 612.63 407.6 590.91 451.05C570.19 492.49 539.86 529.48 503.18 558.01C485.69 571.62 466.75 583.38 446.86 592.94C444.61 594.03 442.2 595.14 439.3 596.45L438.98 596.59C438.63 596.75 438.29 596.9 437.94 597.05C435.76 598.02 433.54 598.97 431.35 599.87L430.36 600.29C429.77 600.54 429.18 600.78 428.58 601.01C420.54 604.26 412.29 607.21 404.04 609.74C397.92 611.64 391.51 613.4 384.98 614.97C361.19 620.71 336.57 623.62 311.82 623.62V623.63ZM311.82 2C229.06 2 151.26 34.22 92.75 92.74C34.23 151.25 2 229.05 2 311.81C2 369.63 18.04 426.03 48.37 474.92C77.87 522.46 119.68 561.21 169.28 586.96C178.63 591.81 188.29 596.21 197.99 600.04C200.96 601.22 203.74 602.27 206.49 603.26C209.76 604.44 212.97 605.54 216.06 606.54C216.3 606.62 216.53 606.69 216.76 606.76C220.2 607.88 223.85 608.98 227.63 610.05C228.51 610.3 229.39 610.55 230.27 610.78C232.76 611.47 235.37 612.15 238.05 612.8C245.87 614.71 253.76 616.31 261.53 617.57C264.14 618 266.88 618.41 269.91 618.82C276.79 619.76 283.85 620.48 290.89 620.94C297.71 621.4 304.75 621.64 311.81 621.64C336.4 621.64 360.86 618.75 384.51 613.05C391 611.49 397.37 609.74 403.45 607.86C411.64 605.34 419.85 602.42 427.84 599.18C428.44 598.95 429.01 598.71 429.58 598.47L430.76 597.97C432.87 597.1 435.01 596.18 437.13 595.24C437.49 595.09 437.82 594.94 438.15 594.79L438.47 594.65C441.35 593.35 443.74 592.24 445.98 591.16C465.74 581.66 484.57 569.98 501.94 556.45C538.38 528.09 568.52 491.34 589.11 450.17C610.69 407 621.64 360.45 621.64 311.82C621.64 229.06 589.41 151.26 530.89 92.75C472.39 34.22 394.58 2 311.82 2Z" fill="#DDDEDF"/>
<path d="M283.5 177.84C283.5 177.84 228.73 184.02 225.2 268.83C222.26 339.5 216.24 378.89 244.99 393.63C255.27 398.9 267.35 399.36 278.33 395.76L395.7 357.17C395.7 357.17 397.47 229.96 356.83 199.04C316.19 168.12 283.51 177.84 283.51 177.84H283.5Z" fill="#D3AC6B"/>
<path d="M348.2 372.79L288.8 392.32V306.82H342.69L348.2 372.79Z" fill="#EBAE9C"/>
<path d="M428.22 600.09C420.22 603.33 412.06 606.24 403.75 608.8C397.5 610.74 391.16 612.47 384.75 614.01C361.36 619.65 336.93 622.63 311.82 622.63C304.76 622.63 297.76 622.4 290.83 621.93C283.74 621.46 276.72 620.75 269.78 619.8C266.96 619.42 264.16 619.01 261.37 618.55C253.42 617.26 245.56 615.65 237.82 613.76C235.21 613.13 232.61 612.46 230.02 611.74C229.13 611.51 228.24 611.26 227.36 611.01C223.71 609.98 220.08 608.89 216.48 607.72C216.24 607.65 215.99 607.57 215.75 607.49C212.53 606.45 209.33 605.35 206.15 604.2C203.29 603.17 200.45 602.09 197.62 600.97L259.33 397.86L261.9 389.41L271.02 359.4L271.09 359.16L271.16 358.94H378.93L379.65 362.45L397.32 448.89L410.05 511.19L422.57 572.42L427.72 597.62L428.22 600.09Z" fill="#DDDEDF"/>
<path d="M288.16 358.99L280.91 389.02L279.9 393.23L279.37 395.42L247.21 528.73L227.36 611.01C223.71 609.98 220.08 608.89 216.48 607.72C216.24 607.65 215.99 607.57 215.75 607.49C212.53 606.45 209.33 605.35 206.15 604.2C203.29 603.17 200.45 602.09 197.62 600.97C187.76 597.08 178.15 592.69 168.82 587.85C189.65 484.75 210.56 383.38 213.96 374.89C215.45 371.16 219.62 368.3 225.27 366.1C226.9 365.46 228.66 364.88 230.51 364.35C242.64 360.89 258.83 359.62 270.97 359.17C271.01 359.17 271.05 359.17 271.09 359.17C275.93 359 280.12 358.95 283.14 358.95C286.16 358.95 288.16 359 288.16 359V358.99Z" fill="#DDDEDF"/>
<path d="M296.15 330.49C328.84 330.49 355.34 303.99 355.34 271.3C355.34 238.61 328.84 212.11 296.15 212.11C263.46 212.11 236.96 238.61 236.96 271.3C236.96 303.99 263.46 330.49 296.15 330.49Z" fill="#EBAE9C"/>
<path d="M279.97 199.93C279.97 199.93 247.4 332.18 283.62 394.02L232.6 383.18C232.6 383.18 212.83 238.42 252.59 212.11L279.98 199.93H279.97Z" fill="#D3AC6B"/>
<path opacity="0.1" d="M269.78 619.8C266.96 619.42 264.16 619.01 261.37 618.55C253.42 617.26 245.56 615.65 237.82 613.76C235.21 613.13 232.61 612.46 230.02 611.74L233.35 586.2L242.24 517.97L246.24 532.75L249.92 546.36L269.78 619.8Z" fill="#272223"/>
<path opacity="0.1" d="M437.55 596.14C435.37 597.11 433.18 598.05 430.97 598.96C430.64 599.1 430.31 599.24 429.98 599.38C429.4 599.62 428.82 599.86 428.23 600.09C420.23 603.33 412.07 606.24 403.76 608.8C384.02 594.83 368.81 575.37 360.03 552.83L355.35 540.82L325.37 453.98L391.79 523.67L403.93 542.89L422.58 572.41L437.56 596.13L437.55 596.14Z" fill="#272223"/>
<path d="M502.57 557.23C485.23 570.73 466.43 582.43 446.43 592.05C443.94 593.25 441.42 594.41 438.89 595.55C438.44 595.75 438 595.95 437.55 596.14C435.37 597.11 433.18 598.05 430.97 598.96C429.88 598.54 428.8 598.09 427.73 597.62C416.76 592.82 406.96 585.52 398.31 576.99C386.69 565.5 377.17 551.76 369.7 538.78C366.02 532.39 362.84 526.18 360.15 520.52L360.11 520.43C352.86 505.1 349.27 493.82 349.27 493.82L339.62 454.19L336.97 443.32L321.89 381.44L316.41 358.94L324.59 358.58L346.94 357.6L371.59 356.51C377.27 356.94 382.81 358 388.14 359.66C405.25 364.91 420.13 376.13 429.9 391.57C456.76 434.04 499.77 508.95 502.58 557.23H502.57Z" fill="#DDDEDF"/>
<path d="M221.73 331.37C234.7 326.7 269.03 326.68 284.43 331.88C287.42 332.89 289.23 335.93 288.71 339.04L288.1 342.73C289.44 342.53 290.75 342.15 291.99 341.58C295.66 339.9 302.89 337.62 310.19 341.26C315.29 343.8 318.88 348.59 320.14 354.16C323.15 367.48 315.56 374.85 315.56 374.85L305.45 384.34C296.98 392.28 287.74 399.36 277.87 405.46L277.67 405.58L281.27 383.92C283.3 387.49 287.89 388.66 291.38 386.5C300.2 381.04 314.61 370.1 312.86 357.68C311.64 349.02 306.83 347.18 302.21 347.57C297.04 348.01 292.53 351.26 290.32 355.95C289.79 357.07 288.92 357.99 287.84 358.59L285.24 360.01L277.62 405.92C277.28 407.98 275.96 409.76 274.09 410.68C256.17 419.47 236.83 414.91 230.14 412.86C228.61 412.39 227.3 411.38 226.48 410L225.04 407.61C224.54 406.79 224.24 405.86 224.14 404.91L217.49 338.09C217.2 335.14 218.95 332.38 221.74 331.37H221.73Z" fill="#00BFA6"/>
<path d="M282.9 334.92C282.9 336.49 269.41 337.76 252.77 337.76C236.13 337.76 222.64 336.49 222.64 334.92C222.64 333.35 236.13 332.08 252.77 332.08C269.41 332.08 282.9 333.35 282.9 334.92Z" fill="#DEDFE0"/>
<path d="M297.47 397.64C286.13 381.34 285.72 362.17 296.55 354.81C307.38 347.45 325.34 354.69 336.68 371C341.3 377.45 344.24 384.93 345.26 392.82L392.38 462.49L357.8 484.39L315.02 413.39C307.93 409.63 301.91 404.23 297.47 397.65V397.64Z" fill="#EBAE9C"/>
<path d="M325.36 453.99L364.3 418.15L441.29 489.84L369.69 538.78L325.36 453.99Z" fill="#DDDEDF"/>
<path opacity="0.1" d="M434.49 499.78L437.55 523.29L417.15 499.78V476.07L434.49 499.78Z" fill="#272223"/>
</g>
<defs>
<clipPath id="clip0_5_2">
<rect width="623.65" height="623.63" fill="white"/>
</clipPath>
</defs>
</svg>
